{"glyphs":{"0":{"ha":733,"x_min":65,"x_max":669,"o":"m 375 700 q 592 609 515 700 q 669 350 669 518 q 589 84 669 178 q 361 -10 508 -10 q 142 81 219 -10 q 65 336 65 171 q 146 606 65 511 q 375 700 226 700 m 365 599 q 206 535 260 599 q 153 344 153 471 q 207 152 153 217 q 367 88 261 88 q 527 151 472 88 q 582 338 582 214 q 527 533 582 467 q 365 599 472 599 z "},"1":{"ha":478,"x_min":15,"x_max":313,"o":"m 313 686 l 306 288 l 311 0 l 200 0 l 207 274 l 206 571 l 26 521 l 15 526 l 15 614 l 296 697 l 313 686 z "},"2":{"ha":632,"x_min":65,"x_max":592,"o":"m 319 697 q 456 655 403 697 q 510 543 510 613 q 471 419 510 488 q 347 251 432 350 l 207 92 l 210 86 l 467 86 l 583 94 l 592 88 l 576 -6 l 435 0 l 124 0 l 72 -3 l 65 3 l 65 72 l 258 282 q 368 420 333 365 q 403 517 403 475 q 375 578 403 554 q 297 603 347 603 q 198 578 247 603 q 108 508 149 553 l 94 508 l 76 593 q 193 670 131 643 q 319 697 256 697 z "},"3":{"ha":572,"x_min":43,"x_max":507,"o":"m 265 699 q 418 649 360 699 q 476 522 476 600 q 441 407 476 463 q 338 317 406 351 l 338 311 q 464 244 421 292 q 507 126 507 197 q 467 -10 507 50 q 356 -102 428 -69 q 190 -135 283 -135 q 54 -122 126 -135 l 47 -28 l 56 -21 q 197 -49 121 -49 q 346 -5 289 -49 q 403 113 403 39 q 356 215 403 178 q 224 256 310 253 l 142 256 l 135 264 l 138 340 l 199 342 q 275 363 236 342 q 340 419 314 383 q 365 499 365 456 q 332 578 365 549 q 244 607 299 607 q 160 587 201 607 q 72 525 119 567 l 60 525 l 43 613 q 265 699 147 699 z "},"4":{"ha":668,"x_min":38,"x_max":624,"o":"m 489 107 l 486 107 l 490 -119 l 483 -128 l 400 -135 l 393 -126 l 396 107 l 136 107 l 44 104 l 38 115 l 38 186 l 386 692 l 488 692 l 485 193 l 615 193 l 624 182 l 617 104 l 489 107 m 397 193 l 397 558 l 388 558 l 135 193 l 397 193 z "},"5":{"ha":581,"x_min":43,"x_max":521,"o":"m 521 689 l 510 601 l 501 593 l 400 601 l 194 601 l 189 385 l 276 367 q 460 286 406 339 q 514 147 514 233 q 472 0 514 64 q 353 -100 429 -64 q 182 -136 278 -136 q 51 -122 124 -136 l 43 -25 l 53 -15 q 204 -49 131 -49 q 354 1 299 -49 q 410 129 410 50 q 367 229 410 192 q 229 285 325 267 l 111 307 l 101 317 l 108 679 l 126 694 l 200 692 l 388 692 l 515 697 l 521 689 z "},"6":{"ha":653,"x_min":64,"x_max":593,"o":"m 371 485 q 534 421 475 485 q 593 250 593 357 q 521 62 593 135 q 322 -11 449 -11 q 129 68 194 -11 q 64 293 64 147 q 172 608 64 469 q 475 825 279 747 l 482 825 l 568 775 l 568 764 q 308 625 401 706 q 182 433 214 544 l 190 424 q 371 485 274 485 m 331 65 q 451 109 408 65 q 494 235 494 153 q 454 359 494 315 q 340 403 414 403 q 165 331 249 403 q 164 293 164 318 q 204 122 164 179 q 331 65 244 65 z "},"7":{"ha":579,"x_min":31,"x_max":540,"o":"m 163 692 l 481 692 l 539 694 l 540 613 l 271 24 l 208 -142 l 119 -117 l 113 -99 l 436 600 l 143 600 l 38 589 l 31 601 l 38 696 l 163 692 z "},"8":{"ha":658,"x_min":67,"x_max":582,"o":"m 340 822 q 499 770 442 822 q 557 628 557 718 q 521 511 557 557 q 422 429 485 465 l 422 422 q 540 342 497 386 q 582 219 582 299 q 508 53 582 115 q 313 -10 435 -10 q 133 48 199 -10 q 67 199 67 106 q 111 326 67 276 q 229 411 156 375 l 229 418 q 135 493 171 449 q 99 610 99 538 q 165 765 99 708 q 340 822 232 822 m 335 742 q 231 707 269 742 q 192 613 192 672 q 228 520 192 553 q 335 460 265 488 q 433 522 397 486 q 468 618 468 557 q 433 709 468 676 q 335 742 397 742 m 315 376 q 203 314 244 351 q 161 210 161 276 q 205 108 161 147 q 322 69 249 69 q 444 109 399 69 q 489 213 489 149 q 465 287 489 257 q 409 334 442 317 q 315 376 376 351 z "},"9":{"ha":653,"x_min":60,"x_max":589,"o":"m 282 208 q 119 272 178 208 q 60 443 60 336 q 132 631 60 558 q 331 704 204 704 q 524 625 458 704 q 589 400 589 546 q 481 85 589 224 q 178 -132 374 -54 l 171 -132 l 85 -82 l 85 -71 q 345 68 251 -12 q 471 260 439 149 l 463 269 q 282 208 379 208 m 322 628 q 201 584 244 628 q 158 458 158 540 q 199 334 158 378 q 313 290 239 290 q 488 363 404 290 q 489 400 489 375 q 449 571 489 514 q 322 628 408 628 z "},"\r":{"ha":229,"x_min":0,"x_max":0,"o":""}," ":{"ha":229,"x_min":0,"x_max":0,"o":""},"A":{"ha":803,"x_min":19,"x_max":772,"o":"m 772 0 l 658 0 l 638 89 l 588 242 l 388 246 l 207 242 l 153 94 l 131 0 l 19 0 l 346 890 l 475 890 l 772 0 m 557 336 l 413 775 l 403 775 l 242 336 l 397 333 l 557 336 z "},"Á":{"ha":803,"x_min":19,"x_max":772,"o":"m 772 0 l 658 0 l 638 89 l 588 242 l 388 246 l 207 242 l 153 94 l 131 0 l 19 0 l 346 890 l 475 890 l 772 0 m 557 336 l 413 775 l 403 775 l 242 336 l 397 333 l 557 336 m 557 1197 l 585 1132 l 582 1121 q 310 1001 450 1060 l 297 1007 l 278 1057 q 543 1200 424 1129 l 557 1197 z "},"Ă":{"ha":803,"x_min":19,"x_max":772,"o":"m 772 0 l 658 0 l 638 89 l 588 242 l 388 246 l 207 242 l 153 94 l 131 0 l 19 0 l 346 890 l 475 890 l 772 0 m 557 336 l 413 775 l 403 775 l 242 336 l 397 333 l 557 336 m 579 1132 q 513 1040 558 1072 q 401 1007 467 1007 q 293 1039 338 1007 q 229 1132 249 1071 l 260 1171 l 276 1171 q 324 1108 292 1131 q 404 1086 357 1086 q 484 1108 451 1086 q 532 1171 517 1131 l 549 1171 l 579 1132 z "},"Ắ":{"ha":803,"x_min":19,"x_max":772,"o":"m 772 0 l 658 0 l 638 89 l 588 242 l 388 246 l 207 242 l 153 94 l 131 0 l 19 0 l 346 890 l 475 890 l 772 0 m 557 336 l 413 775 l 403 775 l 242 336 l 397 333 l 557 336 m 528 1282 l 529 1271 l 397 1136 l 386 1136 l 347 1167 q 469 1318 406 1235 l 479 1319 l 528 1282 m 578 1104 q 511 1012 557 1044 q 400 979 465 979 q 292 1011 336 979 q 228 1104 247 1043 l 258 1143 l 275 1143 q 323 1081 290 1103 q 403 1058 356 1058 q 483 1081 450 1058 q 531 1143 515 1103 l 547 1143 l 578 1104 z "},"Ặ":{"ha":803,"x_min":19,"x_max":772,"o":"m 772 0 l 658 0 l 638 89 l 588 242 l 388 246 l 207 242 l 153 94 l 131 0 l 19 0 l 346 890 l 475 890 l 772 0 m 557 336 l 413 775 l 403 775 l 242 336 l 397 333 l 557 336 m 403 -97 q 447 -114 431 -97 q 464 -160 464 -131 q 447 -208 464 -190 q 399 -226 429 -226 q 353 -210 369 -226 q 338 -162 338 -193 q 355 -115 338 -133 q 403 -97 372 -97 m 579 1132 q 513 1040 558 1072 q 401 1007 467 1007 q 293 1039 338 1007 q 229 1132 249 1071 l 260 1171 l 276 1171 q 324 1108 292 1131 q 404 1086 357 1086 q 484 1108 451 1086 q 532 1171 517 1131 l 549 1171 l 579 1132 z "},"Ằ":{"ha":803,"x_min":19,"x_max":772,"o":"m 772 0 l 658 0 l 638 89 l 588 242 l 388 246 l 207 242 l 153 94 l 131 0 l 19 0 l 346 890 l 475 890 l 772 0 m 557 336 l 413 775 l 403 775 l 242 336 l 397 333 l 557 336 m 401 1136 l 271 1271 l 271 1282 l 318 1319 l 329 1318 q 451 1167 372 1263 l 414 1136 l 401 1136 m 578 1104 q 511 1012 557 1044 q 400 979 465 979 q 292 1011 336 979 q 228 1104 247 1043 l 258 1143 l 275 1143 q 323 1081 290 1103 q 403 1058 356 1058 q 483 1081 450 1058 q 531 1143 515 1103 l 547 1143 l 578 1104 z "},"Ẳ":{"ha":803,"x_min":19,"x_max":772,"o":"m 772 0 l 658 0 l 638 89 l 588 242 l 388 246 l 207 242 l 153 94 l 131 0 l 19 0 l 346 890 l 475 890 l 772 0 m 557 336 l 413 775 l 403 775 l 242 336 l 397 333 l 557 336 m 578 1104 q 511 1012 557 1044 q 400 979 465 979 q 292 1011 336 979 q 228 1104 247 1043 l 258 1143 l 275 1143 q 323 1081 290 1103 q 403 1058 356 1058 q 483 1081 450 1058 q 531 1143 515 1103 l 547 1143 l 578 1104 m 364 1208 q 416 1256 398 1231 q 435 1299 435 1280 q 424 1320 435 1312 q 398 1327 414 1327 q 357 1319 379 1327 q 315 1295 336 1311 l 294 1331 q 352 1373 321 1358 q 414 1388 383 1388 q 478 1365 453 1388 q 504 1309 504 1343 q 488 1262 504 1285 q 433 1207 472 1238 l 460 1160 l 411 1133 l 364 1208 z "},"Ẵ":{"ha":803,"x_min":19,"x_max":772,"o":"m 772 0 l 658 0 l 638 89 l 588 242 l 388 246 l 207 242 l 153 94 l 131 0 l 19 0 l 346 890 l 475 890 l 772 0 m 557 336 l 413 775 l 403 775 l 242 336 l 397 333 l 557 336 m 574 1102 q 509 1012 554 1044 q 401 980 464 980 q 295 1011 338 980 q 232 1102 251 1042 l 262 1140 l 279 1140 q 325 1079 294 1101 q 403 1057 357 1057 q 481 1079 450 1057 q 528 1140 513 1101 l 545 1140 l 574 1102 m 604 1304 l 604 1293 l 525 1201 l 513 1198 q 407 1225 489 1200 q 315 1248 334 1248 q 296 1239 306 1248 q 264 1208 285 1231 l 243 1186 l 232 1186 l 202 1220 l 202 1229 l 282 1321 l 293 1325 q 397 1298 321 1322 q 491 1276 472 1276 q 510 1284 500 1276 q 540 1313 520 1292 l 563 1337 l 573 1337 l 604 1304 z "},"Ǎ":{"ha":803,"x_min":19,"x_max":772,"o":"m 772 0 l 658 0 l 638 89 l 588 242 l 388 246 l 207 242 l 153 94 l 131 0 l 19 0 l 346 890 l 475 890 l 772 0 m 557 336 l 413 775 l 403 775 l 242 336 l 397 333 l 557 336 m 581 1132 q 419 1006 479 1061 l 389 1006 q 226 1132 317 1068 l 247 1179 l 261 1179 q 403 1088 349 1125 q 546 1179 439 1113 l 558 1179 l 581 1132 z "},"Â":{"ha":803,"x_min":19,"x_max":772,"o":"m 772 0 l 658 0 l 638 89 l 588 242 l 388 246 l 207 242 l 153 94 l 131 0 l 19 0 l 346 890 l 475 890 l 772 0 m 557 336 l 413 775 l 403 775 l 242 336 l 397 333 l 557 336 m 226 1067 q 388 1193 328 1138 l 418 1193 q 581 1067 490 1131 l 560 1019 l 546 1019 q 404 1111 458 1074 q 261 1019 368 1086 l 249 1019 l 226 1067 z "},"Ấ":{"ha":803,"x_min":19,"x_max":772,"o":"m 772 0 l 658 0 l 638 89 l 588 242 l 388 246 l 207 242 l 153 94 l 131 0 l 19 0 l 346 890 l 475 890 l 772 0 m 557 336 l 413 775 l 403 775 l 242 336 l 397 333 l 557 336 m 629 1283 l 632 1272 l 528 1149 l 517 1149 l 476 1179 l 565 1310 l 576 1313 l 629 1283 m 225 1039 q 386 1165 326 1110 l 417 1165 q 579 1039 489 1103 l 558 992 l 544 992 q 403 1085 454 1049 q 260 992 343 1043 l 247 992 l 225 1039 z "},"Ậ":{"ha":803,"x_min":19,"x_max":772,"o":"m 772 0 l 658 0 l 638 89 l 588 242 l 388 246 l 207 242 l 153 94 l 131 0 l 19 0 l 346 890 l 475 890 l 772 0 m 557 336 l 413 775 l 403 775 l 242 336 l 397 333 l 557 336 m 403 -97 q 447 -114 431 -97 q 464 -160 464 -131 q 447 -208 464 -190 q 399 -226 429 -226 q 353 -210 369 -226 q 338 -162 338 -193 q 355 -115 338 -133 q 403 -97 372 -97 m 226 1067 q 388 1193 328 1138 l 418 1193 q 581 1067 490 1131 l 560 1019 l 546 1019 q 404 1111 458 1074 q 261 1019 368 1086 l 249 1019 l 226 1067 z "},"Ầ":{"ha":803,"x_min":19,"x_max":772,"o":"m 772 0 l 658 0 l 638 89 l 588 242 l 388 246 l 207 242 l 153 94 l 131 0 l 19 0 l 346 890 l 475 890 l 772 0 m 557 336 l 413 775 l 403 775 l 242 336 l 397 333 l 557 336 m 439 1272 l 440 1283 l 493 1313 l 504 1310 l 594 1179 l 554 1149 l 543 1149 l 439 1272 m 225 1039 q 386 1165 326 1110 l 417 1165 q 579 1039 489 1103 l 558 992 l 544 992 q 403 1085 454 1049 q 260 992 343 1043 l 247 992 l 225 1039 z "},"Ẩ":{"ha":803,"x_min":19,"x_max":772,"o":"m 772 0 l 658 0 l 638 89 l 588 242 l 388 246 l 207 242 l 153 94 l 131 0 l 19 0 l 346 890 l 475 890 l 772 0 m 557 336 l 413 775 l 403 775 l 242 336 l 397 333 l 557 336 m 225 1067 q 386 1193 326 1138 l 417 1193 q 579 1067 489 1131 l 558 1019 l 544 1019 q 403 1111 457 1074 q 260 1019 367 1086 l 247 1019 l 225 1067 m 512 1230 q 564 1277 546 1253 q 583 1319 583 1300 q 572 1339 583 1332 q 546 1347 561 1347 q 506 1339 527 1347 q 465 1315 485 1331 l 444 1351 q 501 1392 470 1377 q 561 1406 531 1406 q 625 1384 600 1406 q 650 1329 650 1363 q 634 1283 650 1306 q 580 1229 618 1259 l 606 1183 l 559 1156 l 512 1230 z "},"Ẫ":{"ha":803,"x_min":19,"x_max":772,"o":"m 772 0 l 658 0 l 638 89 l 588 242 l 388 246 l 207 242 l 153 94 l 131 0 l 19 0 l 346 890 l 475 890 l 772 0 m 557 336 l 413 775 l 403 775 l 242 336 l 397 333 l 557 336 m 226 1067 q 388 1193 328 1138 l 418 1193 q 581 1067 490 1131 l 560 1019 l 546 1019 q 404 1111 458 1074 q 261 1019 368 1086 l 249 1019 l 226 1067 m 621 1346 l 621 1335 l 535 1239 l 522 1235 q 407 1264 496 1238 q 307 1288 328 1288 q 286 1278 297 1288 q 251 1246 275 1269 l 229 1222 l 217 1222 l 185 1258 l 185 1268 l 271 1364 l 283 1368 q 396 1340 314 1365 q 499 1317 478 1317 q 519 1325 508 1317 q 551 1356 529 1333 l 576 1381 l 588 1381 l 621 1346 z "},"Ȁ":{"ha":803,"x_min":19,"x_max":772,"o":"m 772 0 l 658 0 l 638 89 l 588 242 l 388 246 l 207 242 l 153 94 l 131 0 l 19 0 l 346 890 l 475 890 l 772 0 m 557 336 l 413 775 l 403 775 l 242 336 l 397 333 l 557 336 m 324 999 l 313 1000 l 256 1051 l 147 1153 l 149 1165 l 199 1200 l 210 1200 q 336 1058 238 1167 l 361 1032 l 324 999 m 522 999 l 510 1000 l 465 1040 l 346 1153 l 347 1165 l 397 1200 l 408 1200 q 560 1032 468 1129 l 522 999 z "},"Ä":{"ha":803,"x_min":19,"x_max":772,"o":"m 772 0 l 658 0 l 638 89 l 588 242 l 388 246 l 207 242 l 153 94 l 131 0 l 19 0 l 346 890 l 475 890 l 772 0 m 557 336 l 413 775 l 403 775 l 242 336 l 397 333 l 557 336 m 297 1158 q 340 1143 324 1158 q 356 1100 356 1128 q 339 1053 356 1071 q 294 1035 322 1035 q 250 1051 265 1035 q 235 1096 235 1067 q 251 1141 235 1124 q 297 1158 268 1158 m 515 1158 q 558 1143 543 1158 q 574 1100 574 1128 q 557 1053 574 1071 q 513 1035 540 1035 q 469 1051 485 1035 q 453 1096 453 1068 q 469 1141 453 1124 q 515 1158 486 1158 z "},"Ạ":{"ha":803,"x_min":19,"x_max":772,"o":"m 772 0 l 658 0 l 638 89 l 588 242 l 388 246 l 207 242 l 153 94 l 131 0 l 19 0 l 346 890 l 475 890 l 772 0 m 557 336 l 413 775 l 403 775 l 242 336 l 397 333 l 557 336 m 403 -97 q 447 -114 431 -97 q 464 -160 464 -131 q 447 -208 464 -190 q 399 -226 429 -226 q 353 -210 369 -226 q 338 -162 338 -193 q 355 -115 338 -133 q 403 -97 372 -97 z "},"À":{"ha":803,"x_min":19,"x_max":772,"o":"m 772 0 l 658 0 l 638 89 l 588 242 l 388 246 l 207 242 l 153 94 l 131 0 l 19 0 l 346 890 l 475 890 l 772 0 m 557 336 l 413 775 l 403 775 l 242 336 l 397 333 l 557 336 m 290 1200 q 556 1057 410 1129 l 536 1007 l 524 1001 q 253 1121 379 1061 l 249 1132 l 276 1197 l 290 1200 z "},"Ả":{"ha":803,"x_min":19,"x_max":772,"o":"m 772 0 l 658 0 l 638 89 l 588 242 l 388 246 l 207 242 l 153 94 l 131 0 l 19 0 l 346 890 l 475 890 l 772 0 m 557 336 l 413 775 l 403 775 l 242 336 l 397 333 l 557 336 m 363 1040 q 417 1089 397 1064 q 436 1133 436 1114 q 425 1155 436 1147 q 397 1163 414 1163 q 356 1154 378 1163 q 313 1129 333 1146 l 290 1167 q 350 1210 318 1194 q 414 1225 382 1225 q 481 1202 454 1225 q 507 1144 507 1179 q 490 1095 507 1119 q 433 1039 474 1071 l 461 990 l 411 963 l 363 1040 z "},"Ȃ":{"ha":803,"x_min":19,"x_max":772,"o":"m 772 0 l 658 0 l 638 89 l 588 242 l 388 246 l 207 242 l 153 94 l 131 0 l 19 0 l 346 890 l 475 890 l 772 0 m 557 336 l 413 775 l 403 775 l 242 336 l 397 333 l 557 336 m 225 1043 q 404 1203 263 1203 q 519 1161 476 1203 q 576 1043 561 1119 l 546 1003 l 529 1003 q 401 1124 503 1124 q 274 1003 300 1124 l 257 1003 l 225 1043 z "},"Ā":{"ha":803,"x_min":19,"x_max":772,"o":"m 772 0 l 658 0 l 638 89 l 588 242 l 388 246 l 207 242 l 153 94 l 131 0 l 19 0 l 346 890 l 475 890 l 772 0 m 557 336 l 413 775 l 403 775 l 242 336 l 397 333 l 557 336 m 607 1128 l 600 1063 l 207 1063 l 199 1071 l 204 1135 l 597 1135 l 607 1128 z "},"Ą":{"ha":803,"x_min":19,"x_max":790,"o":"m 772 0 l 658 0 l 638 89 l 588 242 l 388 246 l 207 242 l 153 94 l 131 0 l 19 0 l 346 890 l 475 890 l 772 0 m 557 336 l 413 775 l 403 775 l 242 336 l 397 333 l 557 336 m 772 0 q 672 -119 693 -90 q 650 -167 650 -147 q 683 -199 650 -199 q 761 -150 722 -199 l 768 -150 l 790 -204 q 669 -269 742 -269 q 601 -247 626 -269 q 576 -185 576 -224 q 603 -110 576 -149 q 699 0 629 -71 l 772 0 z "},"Å":{"ha":803,"x_min":19,"x_max":772,"o":"m 772 0 l 658 0 l 638 89 l 588 242 l 388 246 l 207 242 l 153 94 l 131 0 l 19 0 l 346 890 l 475 890 l 772 0 m 557 336 l 413 775 l 403 775 l 242 336 l 397 333 l 557 336 m 403 1222 q 488 1191 457 1222 q 518 1110 518 1160 q 484 1024 518 1056 q 399 993 450 993 q 317 1023 349 993 q 285 1107 285 1053 q 317 1191 285 1160 q 403 1222 349 1222 m 400 1168 q 353 1152 369 1168 q 338 1108 338 1136 q 355 1062 338 1078 q 401 1046 372 1046 q 447 1061 429 1046 q 464 1106 464 1076 q 448 1151 464 1135 q 400 1168 432 1168 z "},"Ǻ":{"ha":803,"x_min":19,"x_max":772,"o":"m 296 1093 l 283 1146 q 569 1244 460 1200 l 582 1239 l 600 1171 l 594 1160 q 307 1086 469 1124 l 296 1093 m 772 0 l 658 0 l 638 88 l 588 239 l 388 243 l 207 239 l 153 93 l 131 0 l 19 0 l 340 854 q 294 950 294 886 q 326 1034 294 1003 q 413 1065 358 1065 q 497 1034 467 1065 q 528 953 528 1003 q 479 856 528 888 l 772 0 m 410 1011 q 364 995 381 1011 q 347 951 347 979 q 365 905 347 921 q 411 889 382 889 q 456 904 439 889 q 474 949 474 919 q 457 994 474 976 q 410 1011 440 1011 m 556 333 l 413 768 l 403 768 l 242 333 l 397 331 l 556 333 z "},"Ã":{"ha":803,"x_min":19,"x_max":772,"o":"m 772 0 l 658 0 l 638 89 l 588 242 l 388 246 l 207 242 l 153 94 l 131 0 l 19 0 l 346 890 l 475 890 l 772 0 m 557 336 l 413 775 l 403 775 l 242 336 l 397 333 l 557 336 m 621 1146 l 621 1135 l 536 1039 l 522 1035 q 406 1063 492 1038 q 307 1086 326 1086 q 286 1077 297 1086 q 251 1044 275 1068 l 229 1021 l 217 1021 l 183 1057 l 183 1067 l 268 1163 l 282 1167 q 397 1139 315 1164 q 444 1126 407 1136 q 497 1117 482 1117 q 521 1126 508 1117 q 553 1157 533 1136 l 576 1181 l 588 1181 l 621 1146 z "},"Æ":{"ha":1121,"x_min":-22,"x_max":1100,"o":"m 1100 86 l 1090 0 l 607 0 l 600 89 l 560 360 l 229 285 l 128 94 l 93 0 l -22 0 l 447 890 l 965 890 l 974 879 l 963 793 l 738 799 l 603 799 l 651 469 l 950 532 l 960 524 l 965 443 l 664 383 l 707 90 l 864 90 l 1092 97 l 1100 86 m 546 447 l 497 775 l 489 775 l 285 390 l 546 447 z "},"Ǽ":{"ha":1121,"x_min":-22,"x_max":1100,"o":"m 1100 86 l 1090 0 l 607 0 l 600 89 l 560 360 l 229 285 l 128 94 l 93 0 l -22 0 l 447 890 l 965 890 l 974 879 l 963 793 l 738 799 l 603 799 l 651 469 l 950 532 l 960 524 l 965 443 l 664 383 l 707 90 l 864 90 l 1092 97 l 1100 86 m 546 447 l 497 775 l 489 775 l 285 390 l 546 447 m 846 1197 l 874 1132 l 871 1121 q 599 1001 739 1060 l 586 1007 l 567 1057 q 832 1200 713 1129 l 846 1197 z "},"B":{"ha":746,"x_min":129,"x_max":692,"o":"m 503 464 q 692 249 692 426 q 600 58 692 122 q 326 -6 508 -6 q 131 0 204 -6 l 129 0 l 136 268 l 129 890 l 376 892 q 569 836 501 892 q 636 675 636 781 q 601 546 636 600 q 503 464 567 492 m 522 663 q 483 767 522 735 q 354 800 443 800 l 242 800 l 239 501 l 392 497 q 522 663 522 528 m 343 88 q 518 131 457 88 q 579 254 579 174 q 408 410 579 390 l 238 408 l 236 278 l 240 92 q 343 88 294 88 z "},"C":{"ha":722,"x_min":53,"x_max":690,"o":"m 447 897 q 690 831 588 897 l 668 729 l 656 726 q 442 804 563 804 q 239 713 310 804 q 168 447 168 622 q 239 178 168 271 q 439 85 310 85 q 560 107 500 85 q 671 169 621 129 l 685 163 l 675 57 q 429 -10 554 -10 q 151 106 250 -10 q 53 438 53 222 q 156 778 53 658 q 447 897 258 897 z "},"Ć":{"ha":722,"x_min":53,"x_max":690,"o":"m 447 897 q 690 831 588 897 l 668 729 l 656 726 q 442 804 563 804 q 239 713 310 804 q 168 447 168 622 q 239 178 168 271 q 439 85 310 85 q 560 107 500 85 q 671 169 621 129 l 685 163 l 675 57 q 429 -10 554 -10 q 151 106 250 -10 q 53 438 53 222 q 156 778 53 658 q 447 897 258 897 m 590 1197 l 618 1132 l 615 1121 q 343 1001 483 1060 l 331 1007 l 311 1057 q 576 1200 457 1129 l 590 1197 z "},"Č":{"ha":722,"x_min":53,"x_max":690,"o":"m 447 897 q 690 831 588 897 l 668 729 l 656 726 q 442 804 563 804 q 239 713 310 804 q 168 447 168 622 q 239 178 168 271 q 439 85 310 85 q 560 107 500 85 q 671 169 621 129 l 685 163 l 675 57 q 429 -10 554 -10 q 151 106 250 -10 q 53 438 53 222 q 156 778 53 658 q 447 897 258 897 m 614 1132 q 453 1006 513 1061 l 422 1006 q 260 1132 350 1068 l 281 1179 l 294 1179 q 436 1088 382 1125 q 579 1179 472 1113 l 592 1179 l 614 1132 z "},"Ç":{"ha":722,"x_min":53,"x_max":690,"o":"m 447 897 q 690 831 588 897 l 668 729 l 656 726 q 442 804 563 804 q 239 713 310 804 q 168 447 168 622 q 239 178 168 271 q 439 85 310 85 q 560 107 500 85 q 671 169 621 129 l 685 163 l 675 57 q 429 -10 554 -10 q 151 106 250 -10 q 53 438 53 222 q 156 778 53 658 q 447 897 258 897 m 440 -71 l 488 -99 q 540 -176 540 -129 q 509 -242 540 -217 q 428 -268 478 -268 q 328 -225 368 -268 l 338 -169 l 344 -168 q 382 -201 364 -190 q 424 -211 400 -211 q 455 -201 443 -211 q 467 -174 467 -192 q 460 -155 467 -162 q 438 -139 453 -147 l 371 -99 l 406 26 l 469 26 l 440 -71 z "},"Ḉ":{"ha":722,"x_min":53,"x_max":690,"o":"m 447 897 q 690 831 588 897 l 668 729 l 656 726 q 442 804 563 804 q 239 713 310 804 q 168 447 168 622 q 239 178 168 271 q 439 85 310 85 q 560 107 500 85 q 671 169 621 129 l 685 163 l 675 57 q 429 -10 554 -10 q 151 106 250 -10 q 53 438 53 222 q 156 778 53 658 q 447 897 258 897 m 440 -71 l 488 -99 q 540 -176 540 -129 q 509 -242 540 -217 q 428 -268 478 -268 q 328 -225 368 -268 l 338 -169 l 344 -168 q 382 -201 364 -190 q 424 -211 400 -211 q 455 -201 443 -211 q 467 -174 467 -192 q 460 -155 467 -162 q 438 -139 453 -147 l 371 -99 l 406 26 l 469 26 l 440 -71 m 590 1197 l 618 1132 l 615 1121 q 343 1001 483 1060 l 331 1007 l 311 1057 q 576 1200 457 1129 l 590 1197 z "},"Ĉ":{"ha":722,"x_min":53,"x_max":690,"o":"m 447 897 q 690 831 588 897 l 668 729 l 656 726 q 442 804 563 804 q 239 713 310 804 q 168 447 168 622 q 239 178 168 271 q 439 85 310 85 q 560 107 500 85 q 671 169 621 129 l 685 163 l 675 57 q 429 -10 554 -10 q 151 106 250 -10 q 53 438 53 222 q 156 778 53 658 q 447 897 258 897 m 260 1067 q 421 1193 361 1138 l 451 1193 q 614 1067 524 1131 l 593 1019 l 579 1019 q 438 1111 492 1074 q 294 1019 401 1086 l 282 1019 l 260 1067 z "},"Ċ":{"ha":722,"x_min":53,"x_max":690,"o":"m 447 897 q 690 831 588 897 l 668 729 l 656 726 q 442 804 563 804 q 239 713 310 804 q 168 447 168 622 q 239 178 168 271 q 439 85 310 85 q 560 107 500 85 q 671 169 621 129 l 685 163 l 675 57 q 429 -10 554 -10 q 151 106 250 -10 q 53 438 53 222 q 156 778 53 658 q 447 897 258 897 m 439 1175 q 483 1158 467 1175 q 500 1113 500 1142 q 483 1064 500 1082 q 435 1046 465 1046 q 390 1063 406 1046 q 374 1110 374 1079 q 391 1157 374 1139 q 439 1175 408 1175 z "},"D":{"ha":897,"x_min":129,"x_max":844,"o":"m 451 896 q 743 788 642 896 q 844 476 844 679 q 735 117 844 242 q 419 -8 625 -8 q 281 -6 363 -8 q 131 0 200 -4 l 129 0 l 136 268 l 129 890 l 131 890 l 451 896 m 438 85 q 655 177 579 85 q 731 453 731 269 q 443 803 731 803 q 242 797 356 803 l 236 278 l 240 93 q 344 87 283 89 q 438 85 404 85 z "},"Ǆ":{"ha":1631,"x_min":129,"x_max":1581,"o":"m 451 896 q 743 788 642 896 q 844 476 844 679 q 735 117 844 242 q 419 -8 625 -8 q 281 -6 363 -8 q 131 0 200 -4 l 129 0 l 136 268 l 129 890 l 131 890 l 451 896 m 438 85 q 655 177 579 85 q 731 453 731 269 q 443 803 731 803 q 242 797 356 803 l 236 278 l 240 93 q 344 87 283 89 q 438 85 404 85 m 1572 808 l 1074 90 l 1443 90 l 1575 100 l 1581 92 l 1571 -3 l 1410 0 l 1019 0 l 940 -4 l 940 78 l 1440 799 l 1097 799 l 964 789 l 957 797 l 965 892 l 1504 890 l 1572 892 l 1572 808 m 1442 1131 q 1281 1004 1340 1060 l 1250 1004 q 1088 1131 1178 1067 l 1108 1178 l 1122 1178 q 1264 1086 1210 1124 q 1407 1178 1300 1111 l 1419 1178 l 1442 1131 z "},"Ð":{"ha":928,"x_min":17,"x_max":875,"o":"m 482 896 q 774 788 672 896 q 875 476 875 679 q 765 117 875 242 q 450 -8 656 -8 q 312 -6 393 -8 q 161 0 231 -4 l 160 0 l 167 268 l 160 890 l 161 890 l 482 896 m 468 85 q 685 177 610 85 q 761 453 761 269 q 474 803 761 803 q 272 797 386 803 l 267 278 l 271 93 q 374 87 314 89 q 468 85 435 85 m 474 481 l 471 413 l 22 413 l 16 421 l 21 490 l 470 490 l 474 481 z "},"Ď":{"ha":897,"x_min":129,"x_max":844,"o":"m 451 896 q 743 788 642 896 q 844 476 844 679 q 735 117 844 242 q 419 -8 625 -8 q 281 -6 363 -8 q 131 0 200 -4 l 129 0 l 136 268 l 129 890 l 131 890 l 451 896 m 438 85 q 655 177 579 85 q 731 453 731 269 q 443 803 731 803 q 242 797 356 803 l 236 278 l 240 93 q 344 87 283 89 q 438 85 404 85 m 628 1132 q 467 1006 526 1061 l 436 1006 q 274 1132 364 1068 l 294 1179 l 308 1179 q 450 1088 396 1125 q 593 1179 486 1113 l 606 1179 l 628 1132 z "},"Đ":{"ha":928,"x_min":17,"x_max":875,"o":"m 482 896 q 774 788 672 896 q 875 476 875 679 q 765 117 875 242 q 450 -8 656 -8 q 312 -6 393 -8 q 161 0 231 -4 l 160 0 l 167 268 l 160 890 l 161 890 l 482 896 m 468 85 q 685 177 610 85 q 761 453 761 269 q 474 803 761 803 q 272 797 386 803 l 267 278 l 271 93 q 374 87 314 89 q 468 85 435 85 m 474 481 l 471 413 l 22 413 l 16 421 l 21 490 l 470 490 l 474 481 z "},"Ḍ":{"ha":897,"x_min":129,"x_max":844,"o":"m 451 896 q 743 788 642 896 q 844 476 844 679 q 735 117 844 242 q 419 -8 625 -8 q 281 -6 363 -8 q 131 0 200 -4 l 129 0 l 136 268 l 129 890 l 131 890 l 451 896 m 438 85 q 655 177 579 85 q 731 453 731 269 q 443 803 731 803 q 242 797 356 803 l 236 278 l 240 93 q 344 87 283 89 q 438 85 404 85 m 451 -97 q 496 -114 479 -97 q 513 -160 513 -131 q 495 -208 513 -190 q 447 -226 478 -226 q 402 -210 418 -226 q 386 -162 386 -193 q 403 -115 386 -133 q 451 -97 421 -97 z "},"Ḏ":{"ha":897,"x_min":129,"x_max":844,"o":"m 451 896 q 743 788 642 896 q 844 476 844 679 q 735 117 844 242 q 419 -8 625 -8 q 281 -6 363 -8 q 131 0 200 -4 l 129 0 l 136 268 l 129 890 l 131 890 l 451 896 m 438 85 q 655 177 579 85 q 731 453 731 269 q 443 803 731 803 q 242 797 356 803 l 236 278 l 240 93 q 344 87 283 89 q 438 85 404 85 m 622 -157 l 617 -222 l 288 -222 l 279 -212 l 285 -149 l 614 -149 l 622 -157 z "},"ǅ":{"ha":1469,"x_min":129,"x_max":1424,"o":"m 451 896 q 743 788 642 896 q 844 476 844 679 q 735 117 844 242 q 419 -8 625 -8 q 281 -6 363 -8 q 131 0 200 -4 l 129 0 l 136 268 l 129 890 l 131 890 l 451 896 m 438 85 q 655 177 579 85 q 731 453 731 269 q 443 803 731 803 q 242 797 356 803 l 236 278 l 240 93 q 344 87 283 89 q 438 85 404 85 m 1076 636 l 1361 636 l 1414 638 l 1417 571 l 1061 78 l 1313 78 l 1417 88 l 1424 78 l 1414 -3 l 1286 0 l 1008 0 l 943 -3 l 943 64 l 1300 560 l 1060 560 l 961 549 l 953 558 l 963 639 l 1076 636 m 1369 911 q 1200 725 1290 831 l 1167 725 q 999 911 1081 832 l 1029 956 l 1042 956 q 1183 811 1128 874 q 1325 956 1236 869 l 1339 956 l 1369 911 z "},"E":{"ha":669,"x_min":129,"x_max":638,"o":"m 638 86 l 629 0 l 129 0 l 136 268 l 129 890 l 631 890 l 636 879 l 628 793 l 418 797 l 242 794 l 239 503 l 406 500 l 553 504 l 561 494 l 551 408 l 396 411 l 238 410 l 236 278 l 240 93 l 417 92 l 631 97 l 638 86 z "},"É":{"ha":669,"x_min":129,"x_max":638,"o":"m 638 86 l 629 0 l 129 0 l 136 268 l 129 890 l 631 890 l 636 879 l 628 793 l 418 797 l 242 794 l 239 503 l 406 500 l 553 504 l 561 494 l 551 408 l 396 411 l 238 410 l 236 278 l 240 93 l 417 92 l 631 97 l 638 86 m 535 1197 l 563 1132 l 560 1121 q 288 1001 428 1060 l 275 1007 l 256 1057 q 521 1200 401 1129 l 535 1197 z "},"Ĕ":{"ha":669,"x_min":129,"x_max":638,"o":"m 638 86 l 629 0 l 129 0 l 136 268 l 129 890 l 631 890 l 636 879 l 628 793 l 418 797 l 242 794 l 239 503 l 406 500 l 553 504 l 561 494 l 551 408 l 396 411 l 238 410 l 236 278 l 240 93 l 417 92 l 631 97 l 638 86 m 557 1132 q 490 1040 536 1072 q 379 1007 444 1007 q 271 1039 315 1007 q 207 1132 226 1071 l 238 1171 l 254 1171 q 302 1108 269 1131 q 382 1086 335 1086 q 462 1108 429 1086 q 510 1171 494 1131 l 526 1171 l 557 1132 z "},"Ě":{"ha":669,"x_min":129,"x_max":638,"o":"m 638 86 l 629 0 l 129 0 l 136 268 l 129 890 l 631 890 l 636 879 l 628 793 l 418 797 l 242 794 l 239 503 l 406 500 l 553 504 l 561 494 l 551 408 l 396 411 l 238 410 l 236 278 l 240 93 l 417 92 l 631 97 l 638 86 m 558 1132 q 397 1006 457 1061 l 367 1006 q 204 1132 294 1068 l 225 1179 l 239 1179 q 381 1088 326 1125 q 524 1179 417 1113 l 536 1179 l 558 1132 z "},"Ḝ":{"ha":669,"x_min":129,"x_max":638,"o":"m 638 86 l 629 0 l 129 0 l 136 268 l 129 890 l 631 890 l 636 879 l 628 793 l 418 797 l 242 794 l 239 503 l 406 500 l 553 504 l 561 494 l 551 408 l 396 411 l 238 410 l 236 278 l 240 93 l 417 92 l 631 97 l 638 86 m 404 -71 l 451 -99 q 504 -176 504 -129 q 473 -242 504 -217 q 392 -268 442 -268 q 292 -225 332 -268 l 301 -169 l 308 -168 q 346 -201 328 -190 q 388 -211 364 -211 q 419 -201 407 -211 q 431 -174 431 -192 q 424 -155 431 -162 q 401 -139 417 -147 l 335 -99 l 369 26 l 433 26 l 404 -71 m 557 1132 q 490 1040 536 1072 q 379 1007 444 1007 q 271 1039 315 1007 q 207 1132 226 1071 l 238 1171 l 254 1171 q 302 1108 269 1131 q 382 1086 335 1086 q 462 1108 429 1086 q 510 1171 494 1131 l 526 1171 l 557 1132 z "},"Ê":{"ha":669,"x_min":129,"x_max":638,"o":"m 638 86 l 629 0 l 129 0 l 136 268 l 129 890 l 631 890 l 636 879 l 628 793 l 418 797 l 242 794 l 239 503 l 406 500 l 553 504 l 561 494 l 551 408 l 396 411 l 238 410 l 236 278 l 240 93 l 417 92 l 631 97 l 638 86 m 204 1067 q 365 1193 306 1138 l 396 1193 q 558 1067 468 1131 l 538 1019 l 524 1019 q 382 1111 436 1074 q 239 1019 346 1086 l 226 1019 l 204 1067 z "},"Ế":{"ha":669,"x_min":129,"x_max":638,"o":"m 638 86 l 629 0 l 129 0 l 136 268 l 129 890 l 631 890 l 636 879 l 628 793 l 418 797 l 242 794 l 239 503 l 406 500 l 553 504 l 561 494 l 551 408 l 396 411 l 238 410 l 236 278 l 240 93 l 417 92 l 631 97 l 638 86 m 607 1283 l 610 1272 l 506 1149 l 494 1149 l 454 1179 l 543 1310 l 554 1313 l 607 1283 m 203 1039 q 364 1165 304 1110 l 394 1165 q 557 1039 467 1103 l 536 992 l 522 992 q 381 1085 432 1049 q 238 992 321 1043 l 225 992 l 203 1039 z "},"Ệ":{"ha":669,"x_min":129,"x_max":638,"o":"m 638 86 l 629 0 l 129 0 l 136 268 l 129 890 l 631 890 l 636 879 l 628 793 l 418 797 l 242 794 l 239 503 l 406 500 l 553 504 l 561 494 l 551 408 l 396 411 l 238 410 l 236 278 l 240 93 l 417 92 l 631 97 l 638 86 m 392 -97 q 436 -114 419 -97 q 453 -160 453 -131 q 435 -208 453 -190 q 388 -226 418 -226 q 342 -210 358 -226 q 326 -162 326 -193 q 344 -115 326 -133 q 392 -97 361 -97 m 204 1067 q 365 1193 306 1138 l 396 1193 q 558 1067 468 1131 l 538 1019 l 524 1019 q 382 1111 436 1074 q 239 1019 346 1086 l 226 1019 l 204 1067 z "},"Ề":{"ha":669,"x_min":129,"x_max":638,"o":"m 638 86 l 629 0 l 129 0 l 136 268 l 129 890 l 631 890 l 636 879 l 628 793 l 418 797 l 242 794 l 239 503 l 406 500 l 553 504 l 561 494 l 551 408 l 396 411 l 238 410 l 236 278 l 240 93 l 417 92 l 631 97 l 638 86 m 417 1272 l 418 1283 l 471 1313 l 482 1310 l 572 1179 l 532 1149 l 521 1149 l 417 1272 m 203 1039 q 364 1165 304 1110 l 394 1165 q 557 1039 467 1103 l 536 992 l 522 992 q 381 1085 432 1049 q 238 992 321 1043 l 225 992 l 203 1039 z "},"Ể":{"ha":669,"x_min":129,"x_max":638,"o":"m 638 86 l 629 0 l 129 0 l 136 268 l 129 890 l 631 890 l 636 879 l 628 793 l 418 797 l 242 794 l 239 503 l 406 500 l 553 504 l 561 494 l 551 408 l 396 411 l 238 410 l 236 278 l 240 93 l 417 92 l 631 97 l 638 86 m 203 1067 q 364 1193 304 1138 l 394 1193 q 557 1067 467 1131 l 536 1019 l 522 1019 q 381 1111 435 1074 q 238 1019 344 1086 l 225 1019 l 203 1067 m 490 1230 q 542 1277 523 1253 q 560 1319 560 1300 q 550 1339 560 1332 q 523 1347 539 1347 q 484 1339 505 1347 q 443 1315 462 1331 l 421 1351 q 478 1392 448 1377 q 539 1406 509 1406 q 603 1384 578 1406 q 628 1329 628 1363 q 612 1283 628 1306 q 558 1229 596 1259 l 584 1183 l 537 1156 l 490 1230 z "},"Ễ":{"ha":669,"x_min":129,"x_max":638,"o":"m 638 86 l 629 0 l 129 0 l 136 268 l 129 890 l 631 890 l 636 879 l 628 793 l 418 797 l 242 794 l 239 503 l 406 500 l 553 504 l 561 494 l 551 408 l 396 411 l 238 410 l 236 278 l 240 93 l 417 92 l 631 97 l 638 86 m 204 1067 q 365 1193 306 1138 l 396 1193 q 558 1067 468 1131 l 538 1019 l 524 1019 q 382 1111 436 1074 q 239 1019 346 1086 l 226 1019 l 204 1067 m 597 1344 l 597 1333 l 511 1238 l 499 1233 q 383 1263 472 1236 q 283 1286 304 1286 q 263 1277 274 1286 q 228 1244 251 1268 l 206 1221 l 193 1221 l 161 1257 l 161 1267 l 247 1363 l 260 1367 q 372 1339 290 1364 q 475 1315 454 1315 q 495 1324 485 1315 q 528 1354 506 1332 l 553 1379 l 564 1379 l 597 1344 z "},"Ȅ":{"ha":669,"x_min":125,"x_max":638,"o":"m 638 86 l 629 0 l 129 0 l 136 268 l 129 890 l 631 890 l 636 879 l 628 793 l 418 797 l 242 794 l 239 503 l 406 500 l 553 504 l 561 494 l 551 408 l 396 411 l 238 410 l 236 278 l 240 93 l 417 92 l 631 97 l 638 86 m 301 999 l 290 1000 l 233 1051 l 125 1153 l 126 1165 l 176 1200 l 188 1200 q 314 1058 215 1167 l 339 1032 l 301 999 m 500 999 l 488 1000 l 443 1040 l 324 1153 l 325 1165 l 375 1200 l 386 1200 q 538 1032 446 1129 l 500 999 z "},"Ë":{"ha":669,"x_min":129,"x_max":638,"o":"m 638 86 l 629 0 l 129 0 l 136 268 l 129 890 l 631 890 l 636 879 l 628 793 l 418 797 l 242 794 l 239 503 l 406 500 l 553 504 l 561 494 l 551 408 l 396 411 l 238 410 l 236 278 l 240 93 l 417 92 l 631 97 l 638 86 m 275 1158 q 317 1143 301 1158 q 333 1100 333 1128 q 317 1053 333 1071 q 272 1035 300 1035 q 228 1051 243 1035 q 213 1096 213 1067 q 229 1141 213 1124 q 275 1158 246 1158 m 493 1158 q 536 1143 521 1158 q 551 1100 551 1128 q 535 1053 551 1071 q 490 1035 518 1035 q 447 1051 463 1035 q 431 1096 431 1068 q 447 1141 431 1124 q 493 1158 464 1158 z "},"Ė":{"ha":669,"x_min":129,"x_max":638,"o":"m 638 86 l 629 0 l 129 0 l 136 268 l 129 890 l 631 890 l 636 879 l 628 793 l 418 797 l 242 794 l 239 503 l 406 500 l 553 504 l 561 494 l 551 408 l 396 411 l 238 410 l 236 278 l 240 93 l 417 92 l 631 97 l 638 86 m 383 1175 q 428 1158 411 1175 q 444 1113 444 1142 q 427 1064 444 1082 q 379 1046 410 1046 q 334 1063 350 1046 q 318 1110 318 1079 q 335 1157 318 1139 q 383 1175 353 1175 z "},"Ẹ":{"ha":669,"x_min":129,"x_max":638,"o":"m 638 86 l 629 0 l 129 0 l 136 268 l 129 890 l 631 890 l 636 879 l 628 793 l 418 797 l 242 794 l 239 503 l 406 500 l 553 504 l 561 494 l 551 408 l 396 411 l 238 410 l 236 278 l 240 93 l 417 92 l 631 97 l 638 86 m 392 -97 q 436 -114 419 -97 q 453 -160 453 -131 q 435 -208 453 -190 q 388 -226 418 -226 q 342 -210 358 -226 q 326 -162 326 -193 q 344 -115 326 -133 q 392 -97 361 -97 z "},"È":{"ha":669,"x_min":129,"x_max":638,"o":"m 638 86 l 629 0 l 129 0 l 136 268 l 129 890 l 631 890 l 636 879 l 628 793 l 418 797 l 242 794 l 239 503 l 406 500 l 553 504 l 561 494 l 551 408 l 396 411 l 238 410 l 236 278 l 240 93 l 417 92 l 631 97 l 638 86 m 268 1200 q 533 1057 388 1129 l 514 1007 l 501 1001 q 231 1121 357 1061 l 226 1132 l 254 1197 l 268 1200 z "},"Ẻ":{"ha":669,"x_min":129,"x_max":638,"o":"m 638 86 l 629 0 l 129 0 l 136 268 l 129 890 l 631 890 l 636 879 l 628 793 l 418 797 l 242 794 l 239 503 l 406 500 l 553 504 l 561 494 l 551 408 l 396 411 l 238 410 l 236 278 l 240 93 l 417 92 l 631 97 l 638 86 m 340 1040 q 394 1089 375 1064 q 414 1133 414 1114 q 403 1155 414 1147 q 375 1163 392 1163 q 333 1154 356 1163 q 290 1129 311 1146 l 268 1167 q 328 1210 296 1194 q 392 1225 360 1225 q 458 1202 432 1225 q 485 1144 485 1179 q 468 1095 485 1119 q 411 1039 451 1071 l 439 990 l 389 963 l 340 1040 z "},"Ȇ":{"ha":669,"x_min":129,"x_max":638,"o":"m 638 86 l 629 0 l 129 0 l 136 268 l 129 890 l 631 890 l 636 879 l 628 793 l 418 797 l 242 794 l 239 503 l 406 500 l 553 504 l 561 494 l 551 408 l 396 411 l 238 410 l 236 278 l 240 93 l 417 92 l 631 97 l 638 86 m 203 1043 q 382 1203 240 1203 q 497 1161 454 1203 q 554 1043 539 1119 l 524 1003 l 507 1003 q 379 1124 481 1124 q 251 1003 278 1124 l 235 1003 l 203 1043 z "},"Ē":{"ha":669,"x_min":129,"x_max":638,"o":"m 638 86 l 629 0 l 129 0 l 136 268 l 129 890 l 631 890 l 636 879 l 628 793 l 418 797 l 242 794 l 239 503 l 406 500 l 553 504 l 561 494 l 551 408 l 396 411 l 238 410 l 236 278 l 240 93 l 417 92 l 631 97 l 638 86 m 585 1128 l 578 1063 l 185 1063 l 176 1071 l 182 1135 l 575 1135 l 585 1128 z "},"Ḗ":{"ha":669,"x_min":129,"x_max":638,"o":"m 638 86 l 629 0 l 129 0 l 136 268 l 129 890 l 631 890 l 636 879 l 628 793 l 418 797 l 242 794 l 239 503 l 406 500 l 553 504 l 561 494 l 551 408 l 396 411 l 238 410 l 236 278 l 240 93 l 417 92 l 631 97 l 638 86 m 521 1322 l 539 1253 l 532 1240 q 244 1172 425 1213 l 232 1179 l 222 1232 q 510 1326 369 1275 l 521 1322 m 538 1090 l 532 1025 l 231 1025 l 224 1035 l 229 1099 l 531 1099 l 538 1090 z "},"Ḕ":{"ha":669,"x_min":129,"x_max":638,"o":"m 638 86 l 629 0 l 129 0 l 136 268 l 129 890 l 631 890 l 636 879 l 628 793 l 418 797 l 242 794 l 239 503 l 406 500 l 553 504 l 561 494 l 551 408 l 396 411 l 238 410 l 236 278 l 240 93 l 417 92 l 631 97 l 638 86 m 517 1172 q 229 1240 336 1213 l 222 1253 l 240 1322 l 251 1326 q 540 1232 385 1278 l 529 1179 l 517 1172 m 538 1090 l 532 1025 l 231 1025 l 224 1035 l 229 1099 l 531 1099 l 538 1090 z "},"Ę":{"ha":669,"x_min":129,"x_max":638,"o":"m 638 86 l 629 0 l 129 0 l 136 268 l 129 890 l 631 890 l 636 879 l 628 793 l 418 797 l 242 794 l 239 503 l 406 500 l 553 504 l 561 494 l 551 408 l 396 411 l 238 410 l 236 278 l 240 93 l 417 92 l 631 97 l 638 86 m 476 -292 q 392 -265 424 -292 q 360 -190 360 -237 q 389 -106 360 -149 q 510 22 418 -62 l 582 22 q 463 -117 488 -83 q 438 -174 438 -150 q 488 -218 438 -218 q 590 -164 533 -218 l 597 -165 l 617 -224 q 476 -292 551 -292 z "},"Ẽ":{"ha":669,"x_min":129,"x_max":638,"o":"m 638 86 l 629 0 l 129 0 l 136 268 l 129 890 l 631 890 l 636 879 l 628 793 l 418 797 l 242 794 l 239 503 l 406 500 l 553 504 l 561 494 l 551 408 l 396 411 l 238 410 l 236 278 l 240 93 l 417 92 l 631 97 l 638 86 m 599 1146 l 599 1135 l 514 1039 l 500 1035 q 383 1063 469 1038 q 285 1086 304 1086 q 264 1077 275 1086 q 229 1044 253 1068 l 207 1021 l 194 1021 l 161 1057 l 161 1067 l 246 1163 l 260 1167 q 375 1139 293 1164 q 422 1126 385 1136 q 475 1117 460 1117 q 499 1126 486 1117 q 531 1157 511 1136 l 554 1181 l 565 1181 l 599 1146 z "},"F":{"ha":603,"x_min":129,"x_max":611,"o":"m 242 794 l 239 485 l 389 482 l 533 486 l 542 475 l 532 390 l 378 394 l 238 393 l 236 278 l 242 0 l 129 0 l 136 268 l 129 890 l 603 890 l 611 879 l 601 790 l 397 797 l 242 794 z "},"G":{"ha":833,"x_min":53,"x_max":747,"o":"m 486 897 q 747 835 626 897 l 725 729 l 711 726 q 588 786 644 768 q 469 804 532 804 q 168 432 168 804 q 238 169 168 253 q 456 85 308 85 q 534 92 494 85 q 636 118 574 99 l 639 222 l 638 356 l 742 364 l 739 238 l 744 43 q 585 3 654 15 q 450 -10 515 -10 q 152 103 251 -10 q 53 428 53 215 q 165 777 53 657 q 486 897 278 897 z "},"Ğ":{"ha":833,"x_min":53,"x_max":747,"o":"m 486 897 q 747 835 626 897 l 725 729 l 711 726 q 588 786 644 768 q 469 804 532 804 q 168 432 168 804 q 238 169 168 253 q 456 85 308 85 q 534 92 494 85 q 636 118 574 99 l 639 222 l 638 356 l 742 364 l 739 238 l 744 43 q 585 3 654 15 q 450 -10 515 -10 q 152 103 251 -10 q 53 428 53 215 q 165 777 53 657 q 486 897 278 897 m 629 1132 q 563 1040 608 1072 q 451 1007 517 1007 q 343 1039 388 1007 q 279 1132 299 1071 l 310 1171 l 326 1171 q 374 1108 342 1131 q 454 1086 407 1086 q 534 1108 501 1086 q 582 1171 567 1131 l 599 1171 l 629 1132 z "},"Ǧ":{"ha":833,"x_min":53,"x_max":747,"o":"m 486 897 q 747 835 626 897 l 725 729 l 711 726 q 588 786 644 768 q 469 804 532 804 q 168 432 168 804 q 238 169 168 253 q 456 85 308 85 q 534 92 494 85 q 636 118 574 99 l 639 222 l 638 356 l 742 364 l 739 238 l 744 43 q 585 3 654 15 q 450 -10 515 -10 q 152 103 251 -10 q 53 428 53 215 q 165 777 53 657 q 486 897 278 897 m 631 1132 q 469 1006 529 1061 l 439 1006 q 276 1132 367 1068 l 297 1179 l 311 1179 q 453 1088 399 1125 q 596 1179 489 1113 l 608 1179 l 631 1132 z "},"Ĝ":{"ha":833,"x_min":53,"x_max":747,"o":"m 486 897 q 747 835 626 897 l 725 729 l 711 726 q 588 786 644 768 q 469 804 532 804 q 168 432 168 804 q 238 169 168 253 q 456 85 308 85 q 534 92 494 85 q 636 118 574 99 l 639 222 l 638 356 l 742 364 l 739 238 l 744 43 q 585 3 654 15 q 450 -10 515 -10 q 152 103 251 -10 q 53 428 53 215 q 165 777 53 657 q 486 897 278 897 m 276 1067 q 438 1193 378 1138 l 468 1193 q 631 1067 540 1131 l 610 1019 l 596 1019 q 454 1111 508 1074 q 311 1019 418 1086 l 299 1019 l 276 1067 z "},"Ģ":{"ha":833,"x_min":53,"x_max":747,"o":"m 486 897 q 747 835 626 897 l 725 729 l 711 726 q 588 786 644 768 q 469 804 532 804 q 168 432 168 804 q 238 169 168 253 q 456 85 308 85 q 534 92 494 85 q 636 118 574 99 l 639 222 l 638 356 l 742 364 l 739 238 l 744 43 q 585 3 654 15 q 450 -10 515 -10 q 152 103 251 -10 q 53 428 53 215 q 165 777 53 657 q 486 897 278 897 m 451 -78 q 507 -164 507 -112 q 385 -337 507 -249 l 350 -306 l 350 -296 q 421 -182 421 -240 q 381 -122 421 -147 l 381 -111 q 451 -78 415 -87 z "},"Ġ":{"ha":833,"x_min":53,"x_max":747,"o":"m 486 897 q 747 835 626 897 l 725 729 l 711 726 q 588 786 644 768 q 469 804 532 804 q 168 432 168 804 q 238 169 168 253 q 456 85 308 85 q 534 92 494 85 q 636 118 574 99 l 639 222 l 638 356 l 742 364 l 739 238 l 744 43 q 585 3 654 15 q 450 -10 515 -10 q 152 103 251 -10 q 53 428 53 215 q 165 777 53 657 q 486 897 278 897 m 456 1175 q 500 1158 483 1175 q 517 1113 517 1142 q 499 1064 517 1082 q 451 1046 482 1046 q 406 1063 422 1046 q 390 1110 390 1079 q 408 1157 390 1139 q 456 1175 425 1175 z "},"Ḡ":{"ha":833,"x_min":53,"x_max":747,"o":"m 486 897 q 747 835 626 897 l 725 729 l 711 726 q 588 786 644 768 q 469 804 532 804 q 168 432 168 804 q 238 169 168 253 q 456 85 308 85 q 534 92 494 85 q 636 118 574 99 l 639 222 l 638 356 l 742 364 l 739 238 l 744 43 q 585 3 654 15 q 450 -10 515 -10 q 152 103 251 -10 q 53 428 53 215 q 165 777 53 657 q 486 897 278 897 m 657 1128 l 650 1063 l 257 1063 l 249 1071 l 254 1135 l 647 1135 l 657 1128 z "},"H":{"ha":950,"x_min":131,"x_max":819,"o":"m 814 278 l 817 0 l 707 0 l 713 268 l 711 401 l 464 403 l 238 401 l 236 278 l 240 0 l 131 0 l 135 268 l 131 890 l 242 890 l 238 496 l 474 494 l 711 496 l 707 890 l 819 890 l 814 278 z "},"Ħ":{"ha":993,"x_min":56,"x_max":938,"o":"m 838 664 l 835 278 l 836 0 l 726 0 l 732 268 l 731 401 l 483 403 l 257 401 l 256 278 l 260 0 l 150 0 l 154 268 l 151 664 l 63 664 l 56 669 l 61 742 l 151 742 l 150 890 l 261 890 l 260 742 l 728 742 l 726 890 l 839 890 l 838 742 l 931 742 l 938 733 l 932 664 l 838 664 m 728 664 l 260 664 l 257 496 l 493 494 l 731 496 l 728 664 z "},"Ḫ":{"ha":950,"x_min":131,"x_max":819,"o":"m 814 278 l 817 0 l 707 0 l 713 268 l 711 401 l 464 403 l 238 401 l 236 278 l 240 0 l 131 0 l 135 268 l 131 890 l 242 890 l 238 496 l 474 494 l 711 496 l 707 890 l 819 890 l 814 278 m 651 -119 q 472 -279 614 -279 q 358 -237 400 -279 q 300 -119 315 -196 l 331 -79 l 347 -79 q 475 -200 374 -200 q 603 -79 576 -200 l 619 -79 l 651 -119 z "},"Ĥ":{"ha":950,"x_min":131,"x_max":819,"o":"m 814 278 l 817 0 l 707 0 l 713 268 l 711 401 l 464 403 l 238 401 l 236 278 l 240 0 l 131 0 l 135 268 l 131 890 l 242 890 l 238 496 l 474 494 l 711 496 l 707 890 l 819 890 l 814 278 m 299 1067 q 460 1193 400 1138 l 490 1193 q 653 1067 563 1131 l 632 1019 l 618 1019 q 476 1111 531 1074 q 333 1019 440 1086 l 321 1019 l 299 1067 z "},"Ḥ":{"ha":950,"x_min":131,"x_max":819,"o":"m 814 278 l 817 0 l 707 0 l 713 268 l 711 401 l 464 403 l 238 401 l 236 278 l 240 0 l 131 0 l 135 268 l 131 890 l 242 890 l 238 496 l 474 494 l 711 496 l 707 890 l 819 890 l 814 278 m 476 -97 q 521 -114 504 -97 q 538 -160 538 -131 q 520 -208 538 -190 q 472 -226 503 -226 q 427 -210 443 -226 q 411 -162 411 -193 q 428 -115 411 -133 q 476 -97 446 -97 z "},"I":{"ha":372,"x_min":129,"x_max":243,"o":"m 236 278 l 242 0 l 129 0 l 136 268 l 129 890 l 243 890 l 236 278 z "},"Ĳ":{"ha":803,"x_min":129,"x_max":674,"o":"m 236 278 l 242 0 l 129 0 l 136 268 l 129 890 l 243 890 l 236 278 m 668 294 l 671 164 q 618 -10 671 58 q 435 -142 565 -79 l 392 -79 l 392 -65 q 528 36 488 -14 q 568 163 568 86 l 568 283 l 563 800 l 392 799 l 381 808 l 388 890 l 674 890 l 668 294 z "},"Í":{"ha":372,"x_min":61,"x_max":368,"o":"m 236 278 l 242 0 l 129 0 l 136 268 l 129 890 l 243 890 l 236 278 m 340 1197 l 368 1132 l 365 1121 q 93 1001 233 1060 l 81 1007 l 61 1057 q 326 1200 207 1129 l 340 1197 z "},"Ĭ":{"ha":372,"x_min":13,"x_max":363,"o":"m 236 278 l 242 0 l 129 0 l 136 268 l 129 890 l 243 890 l 236 278 m 363 1132 q 296 1040 342 1072 q 185 1007 250 1007 q 76 1039 121 1007 q 13 1132 32 1071 l 43 1171 l 60 1171 q 108 1108 75 1131 q 188 1086 140 1086 q 267 1108 235 1086 q 315 1171 300 1131 l 332 1171 l 363 1132 z "},"Ǐ":{"ha":372,"x_min":10,"x_max":364,"o":"m 236 278 l 242 0 l 129 0 l 136 268 l 129 890 l 243 890 l 236 278 m 364 1132 q 203 1006 263 1061 l 172 1006 q 10 1132 100 1068 l 31 1179 l 44 1179 q 186 1088 132 1125 q 329 1179 222 1113 l 342 1179 l 364 1132 z "},"Î":{"ha":372,"x_min":10,"x_max":364,"o":"m 236 278 l 242 0 l 129 0 l 136 268 l 129 890 l 243 890 l 236 278 m 10 1067 q 171 1193 111 1138 l 201 1193 q 364 1067 274 1131 l 343 1019 l 329 1019 q 188 1111 242 1074 q 44 1019 151 1086 l 32 1019 l 10 1067 z "},"Ȉ":{"ha":372,"x_min":-69,"x_max":343,"o":"m 236 278 l 242 0 l 129 0 l 136 268 l 129 890 l 243 890 l 236 278 m 107 999 l 96 1000 l 39 1051 l -69 1153 l -68 1165 l -18 1200 l -7 1200 q 119 1058 21 1167 l 144 1032 l 107 999 m 306 999 l 293 1000 l 249 1040 l 129 1153 l 131 1165 l 181 1200 l 192 1200 q 343 1032 251 1129 l 306 999 z "},"Ï":{"ha":372,"x_min":51,"x_max":322,"o":"m 236 278 l 242 0 l 129 0 l 136 268 l 129 890 l 243 890 l 236 278 m 114 1158 q 156 1142 140 1158 q 171 1100 171 1126 q 154 1052 171 1069 q 110 1035 138 1035 q 67 1051 82 1035 q 51 1096 51 1067 q 68 1141 51 1124 q 114 1158 85 1158 m 265 1158 q 307 1142 292 1158 q 322 1100 322 1126 q 306 1052 322 1069 q 263 1035 290 1035 q 218 1051 233 1035 q 203 1096 203 1067 q 219 1141 203 1124 q 265 1158 236 1158 z "},"Ḯ":{"ha":372,"x_min":18,"x_max":351,"o":"m 236 278 l 242 0 l 129 0 l 136 268 l 129 890 l 243 890 l 236 278 m 326 1349 l 343 1279 l 336 1268 q 50 1199 236 1240 l 38 1206 l 26 1258 q 314 1354 188 1306 l 326 1349 m 78 1128 q 118 1113 103 1128 q 133 1071 133 1097 q 117 1027 133 1043 q 75 1011 101 1011 q 33 1026 47 1011 q 18 1068 18 1042 q 34 1112 18 1096 q 78 1128 50 1128 m 296 1128 q 337 1113 322 1128 q 351 1071 351 1097 q 335 1027 351 1043 q 293 1011 319 1011 q 251 1026 267 1011 q 236 1068 236 1042 q 252 1112 236 1096 q 296 1128 268 1128 z "},"İ":{"ha":372,"x_min":124,"x_max":250,"o":"m 236 278 l 242 0 l 129 0 l 136 268 l 129 890 l 243 890 l 236 278 m 189 1175 q 233 1158 217 1175 q 250 1113 250 1142 q 233 1064 250 1082 q 185 1046 215 1046 q 140 1063 156 1046 q 124 1110 124 1079 q 141 1157 124 1139 q 189 1175 158 1175 z "},"Ị":{"ha":372,"x_min":115,"x_max":243,"o":"m 236 278 l 242 0 l 129 0 l 136 268 l 129 890 l 243 890 l 236 278 m 181 -97 q 225 -114 208 -97 q 242 -160 242 -131 q 224 -208 242 -190 q 176 -226 207 -226 q 131 -210 147 -226 q 115 -162 115 -193 q 133 -115 115 -133 q 181 -97 150 -97 z "},"Ì":{"ha":372,"x_min":32,"x_max":339,"o":"m 236 278 l 242 0 l 129 0 l 136 268 l 129 890 l 243 890 l 236 278 m 74 1200 q 339 1057 193 1129 l 319 1007 l 307 1001 q 36 1121 163 1061 l 32 1132 l 60 1197 l 74 1200 z "},"Ỉ":{"ha":372,"x_min":74,"x_max":290,"o":"m 236 278 l 242 0 l 129 0 l 136 268 l 129 890 l 243 890 l 236 278 m 146 1040 q 200 1089 181 1064 q 219 1133 219 1114 q 208 1155 219 1147 q 181 1163 197 1163 q 139 1154 161 1163 q 96 1129 117 1146 l 74 1167 q 133 1210 101 1194 q 197 1225 165 1225 q 264 1202 238 1225 q 290 1144 290 1179 q 274 1095 290 1119 q 217 1039 257 1071 l 244 990 l 194 963 l 146 1040 z "},"Ȋ":{"ha":372,"x_min":8,"x_max":360,"o":"m 236 278 l 242 0 l 129 0 l 136 268 l 129 890 l 243 890 l 236 278 m 8 1043 q 188 1203 46 1203 q 302 1161 260 1203 q 360 1043 344 1119 l 329 1003 l 313 1003 q 185 1124 286 1124 q 57 1003 83 1124 l 40 1003 l 8 1043 z "},"Ī":{"ha":372,"x_min":29,"x_max":343,"o":"m 236 278 l 242 0 l 129 0 l 136 268 l 129 890 l 243 890 l 236 278 m 343 1128 l 338 1063 l 36 1063 l 29 1071 l 35 1135 l 336 1135 l 343 1128 z "},"Į":{"ha":372,"x_min":46,"x_max":260,"o":"m 236 278 l 242 0 l 129 0 l 136 268 l 129 890 l 243 890 l 236 278 m 242 0 q 141 -119 163 -90 q 119 -167 119 -147 q 153 -199 119 -199 q 231 -150 192 -199 l 238 -150 l 260 -204 q 139 -269 211 -269 q 71 -247 96 -269 q 46 -185 46 -224 q 72 -110 46 -149 q 168 0 99 -71 l 242 0 z "},"Ĩ":{"ha":372,"x_min":-7,"x_max":381,"o":"m 236 278 l 242 0 l 129 0 l 136 268 l 129 890 l 243 890 l 236 278 m 381 1142 l 381 1131 l 303 1035 l 292 1031 q 192 1058 272 1033 q 107 1082 124 1082 q 86 1072 97 1082 q 61 1046 75 1063 q 38 1018 47 1029 l 26 1018 l -7 1054 l -7 1064 l 69 1158 l 82 1164 q 182 1136 111 1161 q 221 1124 189 1133 q 267 1114 253 1114 q 289 1124 278 1114 q 317 1154 300 1133 l 336 1176 l 346 1176 l 381 1142 z "},"J":{"ha":431,"x_min":8,"x_max":301,"o":"m 296 294 l 299 164 q 246 -10 299 58 q 63 -142 193 -79 l 19 -79 l 19 -65 q 156 36 115 -14 q 196 163 196 86 l 196 283 l 190 800 l 19 799 l 8 808 l 15 890 l 301 890 l 296 294 z "},"Ĵ":{"ha":431,"x_min":8,"x_max":363,"o":"m 296 294 l 299 164 q 246 -10 299 58 q 63 -142 193 -79 l 19 -79 l 19 -65 q 156 36 115 -14 q 196 163 196 86 l 196 283 l 190 800 l 19 799 l 8 808 l 15 890 l 301 890 l 296 294 m 8 1067 q 169 1193 110 1138 l 200 1193 q 363 1067 272 1131 l 342 1019 l 328 1019 q 186 1111 240 1074 q 43 1019 150 1086 l 31 1019 l 8 1067 z "},"K":{"ha":760,"x_min":131,"x_max":760,"o":"m 236 278 l 240 0 l 131 0 l 135 268 l 131 890 l 242 890 l 236 278 m 374 472 q 760 24 558 233 l 758 10 q 654 -12 717 -3 l 640 -6 q 257 467 421 243 l 257 475 l 554 813 l 610 890 l 735 890 l 374 472 z "},"Ķ":{"ha":760,"x_min":131,"x_max":760,"o":"m 236 278 l 240 0 l 131 0 l 135 268 l 131 890 l 242 890 l 236 278 m 374 472 q 760 24 558 233 l 758 10 q 654 -12 717 -3 l 640 -6 q 257 467 421 243 l 257 475 l 554 813 l 610 890 l 735 890 l 374 472 m 424 -78 q 479 -164 479 -112 q 357 -337 479 -249 l 322 -306 l 322 -296 q 393 -182 393 -240 q 353 -122 393 -147 l 353 -111 q 424 -78 388 -87 z "},"L":{"ha":578,"x_min":125,"x_max":574,"o":"m 574 83 l 564 0 l 125 0 l 132 268 l 125 890 l 239 890 l 232 278 l 236 93 l 565 93 l 574 83 z "},"Ǉ":{"ha":1008,"x_min":125,"x_max":879,"o":"m 574 83 l 564 0 l 125 0 l 132 268 l 125 890 l 239 890 l 232 278 l 236 93 l 565 93 l 574 83 m 874 294 l 876 164 q 824 -10 876 58 q 640 -142 771 -79 l 597 -79 l 597 -65 q 733 36 693 -14 q 774 163 774 86 l 774 283 l 768 800 l 597 799 l 586 808 l 593 890 l 879 890 l 874 294 z "},"Ĺ":{"ha":578,"x_min":61,"x_max":574,"o":"m 574 83 l 564 0 l 125 0 l 132 268 l 125 890 l 239 890 l 232 278 l 236 93 l 565 93 l 574 83 m 340 1197 l 368 1132 l 365 1121 q 93 1001 233 1060 l 81 1007 l 61 1057 q 326 1200 207 1129 l 340 1197 z "},"Ľ":{"ha":619,"x_min":125,"x_max":574,"o":"m 574 83 l 564 0 l 125 0 l 132 268 l 125 890 l 239 890 l 232 278 l 236 93 l 565 93 l 574 83 m 443 553 l 433 561 l 440 804 l 519 810 l 528 800 l 496 561 l 443 553 z "},"Ļ":{"ha":578,"x_min":125,"x_max":574,"o":"m 574 83 l 564 0 l 125 0 l 132 268 l 125 890 l 239 890 l 232 278 l 236 93 l 565 93 l 574 83 m 351 -78 q 407 -164 407 -112 q 285 -337 407 -249 l 250 -306 l 250 -296 q 321 -182 321 -240 q 281 -122 321 -147 l 281 -111 q 351 -78 315 -87 z "},"Ŀ":{"ha":578,"x_min":125,"x_max":574,"o":"m 574 83 l 564 0 l 125 0 l 132 268 l 125 890 l 239 890 l 232 278 l 236 93 l 565 93 l 574 83 m 471 590 q 515 574 499 590 q 532 528 532 557 q 515 479 532 497 q 467 461 497 461 q 422 478 438 461 q 406 525 406 494 q 423 572 406 554 q 471 590 440 590 z "},"Ḷ":{"ha":578,"x_min":125,"x_max":574,"o":"m 574 83 l 564 0 l 125 0 l 132 268 l 125 890 l 239 890 l 232 278 l 236 93 l 565 93 l 574 83 m 328 -97 q 372 -114 356 -97 q 389 -160 389 -131 q 372 -208 389 -190 q 324 -226 354 -226 q 278 -210 294 -226 q 263 -162 263 -193 q 280 -115 263 -133 q 328 -97 297 -97 z "},"ǈ":{"ha":946,"x_min":125,"x_max":831,"o":"m 574 83 l 564 0 l 125 0 l 132 268 l 125 890 l 239 890 l 232 278 l 236 93 l 565 93 l 574 83 m 831 636 l 821 279 l 828 26 q 784 -148 828 -82 q 635 -269 740 -214 l 593 -219 l 593 -207 q 695 -114 667 -164 q 724 21 724 -64 l 726 269 l 721 561 l 593 561 l 585 571 l 592 635 l 722 635 l 826 639 l 831 636 m 756 921 q 800 904 783 921 q 817 858 817 888 q 799 810 817 828 q 751 792 782 792 q 706 808 722 792 q 690 856 690 825 q 708 903 690 885 q 756 921 725 921 z "},"Ḻ":{"ha":578,"x_min":125,"x_max":574,"o":"m 574 83 l 564 0 l 125 0 l 132 268 l 125 890 l 239 890 l 232 278 l 236 93 l 565 93 l 574 83 m 499 -157 l 493 -222 l 164 -222 l 156 -212 l 161 -149 l 490 -149 l 499 -157 z "},"Ł":{"ha":596,"x_min":14,"x_max":593,"o":"m 593 83 l 583 0 l 144 0 l 151 268 l 150 401 l 49 347 l 35 354 l 14 421 l 149 492 l 144 890 l 257 890 l 254 547 l 435 642 l 447 636 l 468 571 l 253 456 l 251 278 l 256 93 l 585 93 l 593 83 z "},"M":{"ha":1096,"x_min":83,"x_max":1011,"o":"m 1011 0 l 911 0 l 890 271 l 843 714 l 833 714 l 586 103 l 494 103 l 260 714 l 249 714 l 201 279 l 178 0 l 83 0 l 176 890 l 303 890 l 349 754 l 542 247 l 550 247 l 753 763 l 799 890 l 924 890 l 1011 0 z "},"Ṃ":{"ha":1096,"x_min":83,"x_max":1011,"o":"m 1011 0 l 911 0 l 890 271 l 843 714 l 833 714 l 586 103 l 494 103 l 260 714 l 249 714 l 201 279 l 178 0 l 83 0 l 176 890 l 303 890 l 349 754 l 542 247 l 550 247 l 753 763 l 799 890 l 924 890 l 1011 0 m 550 -97 q 594 -114 578 -97 q 611 -160 611 -131 q 594 -208 611 -190 q 546 -226 576 -226 q 501 -210 517 -226 q 485 -162 485 -193 q 502 -115 485 -133 q 550 -97 519 -97 z "},"N":{"ha":949,"x_min":131,"x_max":819,"o":"m 813 261 l 815 0 l 699 0 l 238 713 l 231 713 l 229 293 l 231 0 l 131 0 l 135 264 l 132 890 l 247 890 l 707 178 l 717 178 l 715 885 l 819 893 l 813 261 z "},"Ǌ":{"ha":1379,"x_min":131,"x_max":1250,"o":"m 813 261 l 815 0 l 699 0 l 238 713 l 231 713 l 229 293 l 231 0 l 131 0 l 135 264 l 132 890 l 247 890 l 707 178 l 717 178 l 715 885 l 819 893 l 813 261 m 1244 294 l 1247 164 q 1194 -10 1247 58 q 1011 -142 1142 -79 l 968 -79 l 968 -65 q 1104 36 1064 -14 q 1144 163 1144 86 l 1144 283 l 1139 800 l 968 799 l 957 808 l 964 890 l 1250 890 l 1244 294 z "},"Ń":{"ha":949,"x_min":131,"x_max":819,"o":"m 813 261 l 815 0 l 699 0 l 238 713 l 231 713 l 229 293 l 231 0 l 131 0 l 135 264 l 132 890 l 247 890 l 707 178 l 717 178 l 715 885 l 819 893 l 813 261 m 625 1197 l 653 1132 l 650 1121 q 378 1001 518 1060 l 365 1007 l 346 1057 q 611 1200 492 1129 l 625 1197 z "},"Ň":{"ha":949,"x_min":131,"x_max":819,"o":"m 813 261 l 815 0 l 699 0 l 238 713 l 231 713 l 229 293 l 231 0 l 131 0 l 135 264 l 132 890 l 247 890 l 707 178 l 717 178 l 715 885 l 819 893 l 813 261 m 649 1132 q 488 1006 547 1061 l 457 1006 q 294 1132 385 1068 l 315 1179 l 329 1179 q 471 1088 417 1125 q 614 1179 507 1113 l 626 1179 l 649 1132 z "},"Ņ":{"ha":949,"x_min":131,"x_max":819,"o":"m 813 261 l 815 0 l 699 0 l 238 713 l 231 713 l 229 293 l 231 0 l 131 0 l 135 264 l 132 890 l 247 890 l 707 178 l 717 178 l 715 885 l 819 893 l 813 261 m 494 -78 q 550 -164 550 -112 q 428 -337 550 -249 l 393 -306 l 393 -296 q 464 -182 464 -240 q 424 -122 464 -147 l 424 -111 q 494 -78 458 -87 z "},"Ṅ":{"ha":949,"x_min":131,"x_max":819,"o":"m 813 261 l 815 0 l 699 0 l 238 713 l 231 713 l 229 293 l 231 0 l 131 0 l 135 264 l 132 890 l 247 890 l 707 178 l 717 178 l 715 885 l 819 893 l 813 261 m 474 1175 q 518 1158 501 1175 q 535 1113 535 1142 q 517 1064 535 1082 q 469 1046 500 1046 q 424 1063 440 1046 q 408 1110 408 1079 q 426 1157 408 1139 q 474 1175 443 1175 z "},"Ṇ":{"ha":949,"x_min":131,"x_max":819,"o":"m 813 261 l 815 0 l 699 0 l 238 713 l 231 713 l 229 293 l 231 0 l 131 0 l 135 264 l 132 890 l 247 890 l 707 178 l 717 178 l 715 885 l 819 893 l 813 261 m 471 -97 q 515 -114 499 -97 q 532 -160 532 -131 q 515 -208 532 -190 q 467 -226 497 -226 q 422 -210 438 -226 q 406 -162 406 -193 q 423 -115 406 -133 q 471 -97 440 -97 z "},"Ŋ":{"ha":949,"x_min":129,"x_max":821,"o":"m 813 261 l 814 78 q 761 -93 814 -25 q 578 -222 708 -161 l 535 -161 l 535 -147 q 643 -75 604 -110 q 699 1 682 -40 l 239 713 l 231 713 l 229 293 l 233 0 l 129 0 l 136 264 l 132 890 l 249 890 l 707 179 l 717 179 l 715 885 l 821 893 l 813 261 z "},"ǋ":{"ha":1317,"x_min":131,"x_max":1201,"o":"m 813 261 l 815 0 l 699 0 l 238 713 l 231 713 l 229 293 l 231 0 l 131 0 l 135 264 l 132 890 l 247 890 l 707 178 l 717 178 l 715 885 l 819 893 l 813 261 m 1201 636 l 1192 279 l 1199 26 q 1155 -148 1199 -82 q 1006 -269 1111 -214 l 964 -219 l 964 -207 q 1066 -114 1038 -164 q 1094 21 1094 -64 l 1097 269 l 1092 561 l 964 561 l 956 571 l 963 635 l 1093 635 l 1197 639 l 1201 636 m 1126 921 q 1171 904 1154 921 q 1188 858 1188 888 q 1170 810 1188 828 q 1122 792 1153 792 q 1077 808 1093 792 q 1061 856 1061 825 q 1078 903 1061 885 q 1126 921 1096 921 z "},"Ṉ":{"ha":949,"x_min":131,"x_max":819,"o":"m 813 261 l 815 0 l 699 0 l 238 713 l 231 713 l 229 293 l 231 0 l 131 0 l 135 264 l 132 890 l 247 890 l 707 178 l 717 178 l 715 885 l 819 893 l 813 261 m 642 -157 l 636 -222 l 307 -222 l 299 -212 l 304 -149 l 633 -149 l 642 -157 z "},"Ñ":{"ha":949,"x_min":131,"x_max":819,"o":"m 813 261 l 815 0 l 699 0 l 238 713 l 231 713 l 229 293 l 231 0 l 131 0 l 135 264 l 132 890 l 247 890 l 707 178 l 717 178 l 715 885 l 819 893 l 813 261 m 689 1146 l 689 1135 l 604 1039 l 590 1035 q 474 1063 560 1038 q 375 1086 394 1086 q 354 1077 365 1086 q 319 1044 343 1068 l 297 1021 l 285 1021 l 251 1057 l 251 1067 l 336 1163 l 350 1167 q 465 1139 383 1164 q 513 1126 475 1136 q 565 1117 550 1117 q 589 1126 576 1117 q 621 1157 601 1136 l 644 1181 l 656 1181 l 689 1146 z "},"O":{"ha":882,"x_min":53,"x_max":831,"o":"m 451 899 q 733 786 635 899 q 831 463 831 674 q 726 112 831 235 q 429 -11 622 -11 q 151 106 249 -11 q 53 438 53 222 q 156 779 53 660 q 451 899 260 899 m 444 808 q 167 450 167 808 q 234 168 167 260 q 438 76 301 76 q 715 442 715 76 q 648 718 715 628 q 444 808 581 808 z "},"Ó":{"ha":882,"x_min":53,"x_max":831,"o":"m 451 899 q 733 786 635 899 q 831 463 831 674 q 726 112 831 235 q 429 -11 622 -11 q 151 106 249 -11 q 53 438 53 222 q 156 779 53 660 q 451 899 260 899 m 444 808 q 167 450 167 808 q 234 168 167 260 q 438 76 301 76 q 715 442 715 76 q 648 718 715 628 q 444 808 581 808 m 597 1197 l 625 1132 l 622 1121 q 350 1001 490 1060 l 338 1007 l 318 1057 q 583 1200 464 1129 l 597 1197 z "},"Ŏ":{"ha":882,"x_min":53,"x_max":831,"o":"m 451 899 q 733 786 635 899 q 831 463 831 674 q 726 112 831 235 q 429 -11 622 -11 q 151 106 249 -11 q 53 438 53 222 q 156 779 53 660 q 451 899 260 899 m 444 808 q 167 450 167 808 q 234 168 167 260 q 438 76 301 76 q 715 442 715 76 q 648 718 715 628 q 444 808 581 808 m 619 1132 q 553 1040 599 1072 q 442 1007 507 1007 q 333 1039 378 1007 q 269 1132 289 1071 l 300 1171 l 317 1171 q 365 1108 332 1131 q 444 1086 397 1086 q 524 1108 492 1086 q 572 1171 557 1131 l 589 1171 l 619 1132 z "},"Ǒ":{"ha":882,"x_min":53,"x_max":831,"o":"m 451 899 q 733 786 635 899 q 831 463 831 674 q 726 112 831 235 q 429 -11 622 -11 q 151 106 249 -11 q 53 438 53 222 q 156 779 53 660 q 451 899 260 899 m 444 808 q 167 450 167 808 q 234 168 167 260 q 438 76 301 76 q 715 442 715 76 q 648 718 715 628 q 444 808 581 808 m 621 1132 q 460 1006 519 1061 l 429 1006 q 267 1132 357 1068 l 288 1179 l 301 1179 q 443 1088 389 1125 q 586 1179 479 1113 l 599 1179 l 621 1132 z "},"Ô":{"ha":882,"x_min":53,"x_max":831,"o":"m 451 899 q 733 786 635 899 q 831 463 831 674 q 726 112 831 235 q 429 -11 622 -11 q 151 106 249 -11 q 53 438 53 222 q 156 779 53 660 q 451 899 260 899 m 444 808 q 167 450 167 808 q 234 168 167 260 q 438 76 301 76 q 715 442 715 76 q 648 718 715 628 q 444 808 581 808 m 267 1067 q 428 1193 368 1138 l 458 1193 q 621 1067 531 1131 l 600 1019 l 586 1019 q 444 1111 499 1074 q 301 1019 408 1086 l 289 1019 l 267 1067 z "},"Ố":{"ha":882,"x_min":53,"x_max":831,"o":"m 451 899 q 733 786 635 899 q 831 463 831 674 q 726 112 831 235 q 429 -11 622 -11 q 151 106 249 -11 q 53 438 53 222 q 156 779 53 660 q 451 899 260 899 m 444 808 q 167 450 167 808 q 234 168 167 260 q 438 76 301 76 q 715 442 715 76 q 648 718 715 628 q 444 808 581 808 m 669 1283 l 672 1272 l 568 1149 l 557 1149 l 517 1179 l 606 1310 l 617 1313 l 669 1283 m 265 1039 q 426 1165 367 1110 l 457 1165 q 619 1039 529 1103 l 599 992 l 585 992 q 443 1085 494 1049 q 300 992 383 1043 l 288 992 l 265 1039 z "},"Ộ":{"ha":882,"x_min":53,"x_max":831,"o":"m 279 1056 q 440 1182 381 1126 l 471 1182 q 633 1056 543 1119 l 613 1008 l 599 1008 q 457 1100 511 1063 q 314 1008 421 1075 l 301 1008 l 279 1056 m 451 899 q 733 786 635 899 q 831 463 831 674 q 726 112 831 235 q 429 -11 622 -11 q 151 106 249 -11 q 53 438 53 222 q 156 779 53 660 q 451 899 260 899 m 444 808 q 167 450 167 808 q 234 168 167 260 q 438 76 301 76 q 715 442 715 76 q 648 718 715 628 q 444 808 581 808 m 443 -97 q 488 -114 471 -97 q 504 -160 504 -131 q 487 -208 504 -190 q 439 -226 469 -226 q 394 -210 410 -226 q 378 -162 378 -193 q 395 -115 378 -133 q 443 -97 413 -97 z "},"Ồ":{"ha":882,"x_min":53,"x_max":831,"o":"m 451 899 q 733 786 635 899 q 831 463 831 674 q 726 112 831 235 q 429 -11 622 -11 q 151 106 249 -11 q 53 438 53 222 q 156 779 53 660 q 451 899 260 899 m 444 808 q 167 450 167 808 q 234 168 167 260 q 438 76 301 76 q 715 442 715 76 q 648 718 715 628 q 444 808 581 808 m 479 1272 l 481 1283 l 533 1313 l 544 1310 l 635 1179 l 594 1149 l 583 1149 l 479 1272 m 265 1039 q 426 1165 367 1110 l 457 1165 q 619 1039 529 1103 l 599 992 l 585 992 q 443 1085 494 1049 q 300 992 383 1043 l 288 992 l 265 1039 z "},"Ổ":{"ha":882,"x_min":53,"x_max":831,"o":"m 451 899 q 733 786 635 899 q 831 463 831 674 q 726 112 831 235 q 429 -11 622 -11 q 151 106 249 -11 q 53 438 53 222 q 156 779 53 660 q 451 899 260 899 m 444 808 q 167 450 167 808 q 234 168 167 260 q 438 76 301 76 q 715 442 715 76 q 648 718 715 628 q 444 808 581 808 m 265 1067 q 426 1193 367 1138 l 457 1193 q 619 1067 529 1131 l 599 1019 l 585 1019 q 443 1111 497 1074 q 300 1019 407 1086 l 288 1019 l 265 1067 m 553 1230 q 604 1277 586 1253 q 623 1319 623 1300 q 612 1339 623 1332 q 586 1347 602 1347 q 546 1339 567 1347 q 505 1315 525 1331 l 484 1351 q 541 1392 510 1377 q 602 1406 571 1406 q 665 1384 640 1406 q 690 1329 690 1363 q 674 1283 690 1306 q 620 1229 659 1259 l 647 1183 l 599 1156 l 553 1230 z "},"Ỗ":{"ha":882,"x_min":53,"x_max":831,"o":"m 451 899 q 733 786 635 899 q 831 463 831 674 q 726 112 831 235 q 429 -11 622 -11 q 151 106 249 -11 q 53 438 53 222 q 156 779 53 660 q 451 899 260 899 m 444 808 q 167 450 167 808 q 234 168 167 260 q 438 76 301 76 q 715 442 715 76 q 648 718 715 628 q 444 808 581 808 m 267 1067 q 428 1193 368 1138 l 458 1193 q 621 1067 531 1131 l 600 1019 l 586 1019 q 444 1111 499 1074 q 301 1019 408 1086 l 289 1019 l 267 1067 m 661 1346 l 661 1335 l 575 1239 l 563 1235 q 447 1264 536 1238 q 347 1288 368 1288 q 326 1278 338 1288 q 292 1246 315 1269 l 269 1222 l 257 1222 l 225 1258 l 225 1268 l 311 1364 l 324 1368 q 436 1340 354 1365 q 539 1317 518 1317 q 559 1325 549 1317 q 592 1356 569 1333 l 617 1381 l 628 1381 l 661 1346 z "},"Ȍ":{"ha":882,"x_min":53,"x_max":831,"o":"m 451 899 q 733 786 635 899 q 831 463 831 674 q 726 112 831 235 q 429 -11 622 -11 q 151 106 249 -11 q 53 438 53 222 q 156 779 53 660 q 451 899 260 899 m 444 808 q 167 450 167 808 q 234 168 167 260 q 438 76 301 76 q 715 442 715 76 q 648 718 715 628 q 444 808 581 808 m 364 999 l 353 1000 l 296 1051 l 188 1153 l 189 1165 l 239 1200 l 250 1200 q 376 1058 278 1167 l 401 1032 l 364 999 m 563 999 l 550 1000 l 506 1040 l 386 1153 l 388 1165 l 438 1200 l 449 1200 q 600 1032 508 1129 l 563 999 z "},"Ö":{"ha":882,"x_min":53,"x_max":831,"o":"m 451 899 q 733 786 635 899 q 831 463 831 674 q 726 112 831 235 q 429 -11 622 -11 q 151 106 249 -11 q 53 438 53 222 q 156 779 53 660 q 451 899 260 899 m 444 808 q 167 450 167 808 q 234 168 167 260 q 438 76 301 76 q 715 442 715 76 q 648 718 715 628 q 444 808 581 808 m 338 1158 q 380 1143 364 1158 q 396 1100 396 1128 q 379 1053 396 1071 q 335 1035 363 1035 q 290 1051 306 1035 q 275 1096 275 1067 q 292 1141 275 1124 q 338 1158 308 1158 m 556 1158 q 599 1143 583 1158 q 614 1100 614 1128 q 597 1053 614 1071 q 553 1035 581 1035 q 509 1051 525 1035 q 493 1096 493 1068 q 510 1141 493 1124 q 556 1158 526 1158 z "},"Ȫ":{"ha":882,"x_min":53,"x_max":831,"o":"m 451 899 q 733 786 635 899 q 831 463 831 674 q 726 112 831 235 q 429 -11 622 -11 q 151 106 249 -11 q 53 438 53 222 q 156 779 53 660 q 451 899 260 899 m 444 808 q 167 450 167 808 q 234 168 167 260 q 438 76 301 76 q 715 442 715 76 q 648 718 715 628 q 444 808 581 808 m 614 1285 l 607 1219 l 283 1219 l 275 1228 l 281 1293 l 606 1293 l 614 1285 m 335 1128 q 375 1113 360 1128 q 390 1071 390 1097 q 374 1027 390 1043 q 332 1011 358 1011 q 290 1026 304 1011 q 275 1068 275 1042 q 291 1112 275 1096 q 335 1128 307 1128 m 553 1128 q 594 1113 579 1128 q 608 1071 608 1097 q 592 1027 608 1043 q 550 1011 576 1011 q 508 1026 524 1011 q 493 1068 493 1042 q 509 1112 493 1096 q 553 1128 525 1128 z "},"Ȱ":{"ha":882,"x_min":53,"x_max":831,"o":"m 451 899 q 733 786 635 899 q 831 463 831 674 q 726 112 831 235 q 429 -11 622 -11 q 151 106 249 -11 q 53 438 53 222 q 156 779 53 660 q 451 899 260 899 m 444 808 q 167 450 167 808 q 234 168 167 260 q 438 76 301 76 q 715 442 715 76 q 648 718 715 628 q 444 808 581 808 m 446 1138 q 490 1121 474 1138 q 507 1075 507 1104 q 490 1026 507 1044 q 442 1008 472 1008 q 397 1025 413 1008 q 381 1072 381 1042 q 398 1119 381 1101 q 446 1138 415 1138 m 600 1268 l 594 1203 l 293 1203 l 286 1211 l 292 1275 l 593 1275 l 600 1268 z "},"Ọ":{"ha":882,"x_min":53,"x_max":831,"o":"m 451 899 q 733 786 635 899 q 831 463 831 674 q 726 112 831 235 q 429 -11 622 -11 q 151 106 249 -11 q 53 438 53 222 q 156 779 53 660 q 451 899 260 899 m 444 808 q 167 450 167 808 q 234 168 167 260 q 438 76 301 76 q 715 442 715 76 q 648 718 715 628 q 444 808 581 808 m 443 -97 q 488 -114 471 -97 q 504 -160 504 -131 q 487 -208 504 -190 q 439 -226 469 -226 q 394 -210 410 -226 q 378 -162 378 -193 q 395 -115 378 -133 q 443 -97 413 -97 z "},"Ò":{"ha":882,"x_min":53,"x_max":831,"o":"m 451 899 q 733 786 635 899 q 831 463 831 674 q 726 112 831 235 q 429 -11 622 -11 q 151 106 249 -11 q 53 438 53 222 q 156 779 53 660 q 451 899 260 899 m 444 808 q 167 450 167 808 q 234 168 167 260 q 438 76 301 76 q 715 442 715 76 q 648 718 715 628 q 444 808 581 808 m 331 1200 q 596 1057 450 1129 l 576 1007 l 564 1001 q 293 1121 419 1061 l 289 1132 l 317 1197 l 331 1200 z "},"Ỏ":{"ha":882,"x_min":53,"x_max":831,"o":"m 451 899 q 733 786 635 899 q 831 463 831 674 q 726 112 831 235 q 429 -11 622 -11 q 151 106 249 -11 q 53 438 53 222 q 156 779 53 660 q 451 899 260 899 m 444 808 q 167 450 167 808 q 234 168 167 260 q 438 76 301 76 q 715 442 715 76 q 648 718 715 628 q 444 808 581 808 m 403 1040 q 457 1089 438 1064 q 476 1133 476 1114 q 465 1155 476 1147 q 438 1163 454 1163 q 396 1154 418 1163 q 353 1129 374 1146 l 331 1167 q 390 1210 358 1194 q 454 1225 422 1225 q 521 1202 494 1225 q 547 1144 547 1179 q 531 1095 547 1119 q 474 1039 514 1071 l 501 990 l 451 963 l 403 1040 z "},"Ơ":{"ha":910,"x_min":57,"x_max":847,"o":"m 847 922 q 815 838 847 872 q 728 793 782 804 q 833 460 833 683 q 729 112 833 235 q 435 -11 625 -11 q 155 106 253 -11 q 57 436 57 222 q 103 686 57 582 q 236 844 150 790 q 440 899 322 899 q 531 891 492 899 q 617 869 569 883 q 689 854 668 854 q 741 871 721 854 q 761 917 761 888 q 749 965 761 940 q 714 1011 736 990 l 715 1022 q 768 1043 744 1043 q 822 1006 797 1043 q 847 922 847 968 m 442 76 q 719 440 719 76 q 652 718 719 628 q 447 808 585 808 q 171 449 171 808 q 238 168 171 260 q 442 76 306 76 z "},"Ớ":{"ha":910,"x_min":57,"x_max":847,"o":"m 847 922 q 815 838 847 872 q 728 793 782 804 q 833 460 833 683 q 729 112 833 235 q 435 -11 625 -11 q 155 106 253 -11 q 57 436 57 222 q 103 686 57 582 q 236 844 150 790 q 440 899 322 899 q 531 891 492 899 q 617 869 569 883 q 689 854 668 854 q 741 871 721 854 q 761 917 761 888 q 749 965 761 940 q 714 1011 736 990 l 715 1022 q 768 1043 744 1043 q 822 1006 797 1043 q 847 922 847 968 m 442 76 q 719 440 719 76 q 652 718 719 628 q 447 808 585 808 q 171 449 171 808 q 238 168 171 260 q 442 76 306 76 m 600 1197 l 628 1132 l 625 1121 q 353 1001 493 1060 l 340 1007 l 321 1057 q 586 1200 467 1129 l 600 1197 z "},"Ợ":{"ha":889,"x_min":57,"x_max":847,"o":"m 847 922 q 815 838 847 872 q 728 793 782 804 q 833 460 833 683 q 729 112 833 235 q 435 -11 625 -11 q 155 106 253 -11 q 57 436 57 222 q 103 686 57 582 q 236 844 150 790 q 440 899 322 899 q 531 891 492 899 q 617 869 569 883 q 689 854 668 854 q 741 871 721 854 q 761 917 761 888 q 749 965 761 940 q 714 1011 736 990 l 715 1022 q 768 1043 744 1043 q 822 1006 797 1043 q 847 922 847 968 m 442 76 q 719 440 719 76 q 652 718 719 628 q 447 808 585 808 q 171 449 171 808 q 238 168 171 260 q 442 76 306 76 m 442 -97 q 486 -114 469 -97 q 503 -160 503 -131 q 485 -208 503 -190 q 438 -226 468 -226 q 392 -210 408 -226 q 376 -162 376 -193 q 394 -115 376 -133 q 442 -97 411 -97 z "},"Ờ":{"ha":910,"x_min":57,"x_max":847,"o":"m 847 922 q 815 838 847 872 q 728 793 782 804 q 833 460 833 683 q 729 112 833 235 q 435 -11 625 -11 q 155 106 253 -11 q 57 436 57 222 q 103 686 57 582 q 236 844 150 790 q 440 899 322 899 q 531 891 492 899 q 617 869 569 883 q 689 854 668 854 q 741 871 721 854 q 761 917 761 888 q 749 965 761 940 q 714 1011 736 990 l 715 1022 q 768 1043 744 1043 q 822 1006 797 1043 q 847 922 847 968 m 442 76 q 719 440 719 76 q 652 718 719 628 q 447 808 585 808 q 171 449 171 808 q 238 168 171 260 q 442 76 306 76 m 333 1200 q 599 1057 453 1129 l 579 1007 l 567 1001 q 296 1121 422 1061 l 292 1132 l 319 1197 l 333 1200 z "},"Ở":{"ha":910,"x_min":57,"x_max":847,"o":"m 847 922 q 815 838 847 872 q 728 793 782 804 q 833 460 833 683 q 729 112 833 235 q 435 -11 625 -11 q 155 106 253 -11 q 57 436 57 222 q 103 686 57 582 q 236 844 150 790 q 440 899 322 899 q 531 891 492 899 q 617 869 569 883 q 689 854 668 854 q 741 871 721 854 q 761 917 761 888 q 749 965 761 940 q 714 1011 736 990 l 715 1022 q 768 1043 744 1043 q 822 1006 797 1043 q 847 922 847 968 m 442 76 q 719 440 719 76 q 652 718 719 628 q 447 808 585 808 q 171 449 171 808 q 238 168 171 260 q 442 76 306 76 m 406 1040 q 460 1089 440 1064 q 479 1133 479 1114 q 468 1155 479 1147 q 440 1163 457 1163 q 399 1154 421 1163 q 356 1129 376 1146 l 333 1167 q 393 1210 361 1194 q 457 1225 425 1225 q 524 1202 497 1225 q 550 1144 550 1179 q 533 1095 550 1119 q 476 1039 517 1071 l 504 990 l 454 963 l 406 1040 z "},"Ỡ":{"ha":910,"x_min":57,"x_max":847,"o":"m 847 922 q 815 838 847 872 q 728 793 782 804 q 833 460 833 683 q 729 112 833 235 q 435 -11 625 -11 q 155 106 253 -11 q 57 436 57 222 q 103 686 57 582 q 236 844 150 790 q 440 899 322 899 q 531 891 492 899 q 617 869 569 883 q 689 854 668 854 q 741 871 721 854 q 761 917 761 888 q 749 965 761 940 q 714 1011 736 990 l 715 1022 q 768 1043 744 1043 q 822 1006 797 1043 q 847 922 847 968 m 442 76 q 719 440 719 76 q 652 718 719 628 q 447 808 585 808 q 171 449 171 808 q 238 168 171 260 q 442 76 306 76 m 664 1146 l 664 1135 l 579 1039 l 565 1035 q 449 1063 535 1038 q 350 1086 369 1086 q 329 1077 340 1086 q 294 1044 318 1068 l 272 1021 l 260 1021 l 226 1057 l 226 1067 l 311 1163 l 325 1167 q 440 1139 358 1164 q 488 1126 450 1136 q 540 1117 525 1117 q 564 1126 551 1117 q 596 1157 576 1136 l 619 1181 l 631 1181 l 664 1146 z "},"Ő":{"ha":882,"x_min":53,"x_max":831,"o":"m 451 899 q 733 786 635 899 q 831 463 831 674 q 726 112 831 235 q 429 -11 622 -11 q 151 106 249 -11 q 53 438 53 222 q 156 779 53 660 q 451 899 260 899 m 444 808 q 167 450 167 808 q 234 168 167 260 q 438 76 301 76 q 715 442 715 76 q 648 718 715 628 q 444 808 581 808 m 288 1032 q 438 1200 388 1140 l 450 1200 l 500 1165 l 500 1153 q 336 1000 450 1103 l 324 999 l 288 1032 m 486 1032 q 636 1200 586 1140 l 647 1200 l 699 1165 l 699 1153 l 579 1040 l 535 1000 l 522 999 l 486 1032 z "},"Ȏ":{"ha":882,"x_min":53,"x_max":831,"o":"m 451 899 q 733 786 635 899 q 831 463 831 674 q 726 112 831 235 q 429 -11 622 -11 q 151 106 249 -11 q 53 438 53 222 q 156 779 53 660 q 451 899 260 899 m 444 808 q 167 450 167 808 q 234 168 167 260 q 438 76 301 76 q 715 442 715 76 q 648 718 715 628 q 444 808 581 808 m 265 1043 q 444 1203 303 1203 q 559 1161 517 1203 q 617 1043 601 1119 l 586 1003 l 569 1003 q 442 1124 543 1124 q 314 1003 340 1124 l 297 1003 l 265 1043 z "},"Ō":{"ha":882,"x_min":53,"x_max":831,"o":"m 451 899 q 733 786 635 899 q 831 463 831 674 q 726 112 831 235 q 429 -11 622 -11 q 151 106 249 -11 q 53 438 53 222 q 156 779 53 660 q 451 899 260 899 m 444 808 q 167 450 167 808 q 234 168 167 260 q 438 76 301 76 q 715 442 715 76 q 648 718 715 628 q 444 808 581 808 m 647 1128 l 640 1063 l 247 1063 l 239 1071 l 244 1135 l 638 1135 l 647 1128 z "},"Ṓ":{"ha":882,"x_min":53,"x_max":831,"o":"m 451 899 q 733 786 635 899 q 831 463 831 674 q 726 112 831 235 q 429 -11 622 -11 q 151 106 249 -11 q 53 438 53 222 q 156 779 53 660 q 451 899 260 899 m 444 808 q 167 450 167 808 q 234 168 167 260 q 438 76 301 76 q 715 442 715 76 q 648 718 715 628 q 444 808 581 808 m 583 1322 l 601 1253 l 594 1240 q 307 1172 488 1213 l 294 1179 l 285 1232 q 572 1326 432 1275 l 583 1322 m 600 1090 l 594 1025 l 293 1025 l 286 1035 l 292 1099 l 593 1099 l 600 1090 z "},"Ṑ":{"ha":882,"x_min":53,"x_max":831,"o":"m 451 899 q 733 786 635 899 q 831 463 831 674 q 726 112 831 235 q 429 -11 622 -11 q 151 106 249 -11 q 53 438 53 222 q 156 779 53 660 q 451 899 260 899 m 444 808 q 167 450 167 808 q 234 168 167 260 q 438 76 301 76 q 715 442 715 76 q 648 718 715 628 q 444 808 581 808 m 579 1172 q 292 1240 399 1213 l 285 1253 l 303 1322 l 314 1326 q 603 1232 447 1278 l 592 1179 l 579 1172 m 600 1090 l 594 1025 l 293 1025 l 286 1035 l 292 1099 l 593 1099 l 600 1090 z "},"Ǫ":{"ha":882,"x_min":53,"x_max":831,"o":"m 451 899 q 733 786 635 899 q 831 463 831 674 q 726 112 831 235 q 429 -11 622 -11 q 151 106 249 -11 q 53 438 53 222 q 156 779 53 660 q 451 899 260 899 m 444 808 q 167 450 167 808 q 234 168 167 260 q 438 76 301 76 q 715 442 715 76 q 648 718 715 628 q 444 808 581 808 m 521 -276 q 436 -249 468 -276 q 404 -175 404 -222 q 433 -90 404 -133 q 554 38 463 -47 l 626 38 q 507 -101 532 -68 q 482 -158 482 -135 q 532 -203 482 -203 q 635 -149 578 -203 l 642 -150 l 661 -208 q 521 -276 596 -276 z "},"Ø":{"ha":882,"x_min":53,"x_max":831,"o":"m 668 842 q 789 694 747 790 q 831 463 831 599 q 726 112 831 235 q 429 -11 622 -11 q 281 14 346 -11 l 207 -142 l 139 -118 l 135 -107 l 208 53 q 92 203 132 106 q 53 438 53 301 q 156 779 53 660 q 451 899 260 899 q 594 878 529 899 l 654 1006 l 721 981 l 726 967 l 668 842 m 167 450 q 253 146 167 236 l 554 790 q 444 808 508 808 q 167 450 167 808 m 438 76 q 715 442 715 76 q 624 746 715 658 l 319 99 q 438 76 368 76 z "},"Ǿ":{"ha":882,"x_min":53,"x_max":831,"o":"m 668 842 q 789 694 747 790 q 831 463 831 599 q 726 112 831 235 q 429 -11 622 -11 q 281 14 346 -11 l 207 -142 l 139 -118 l 135 -107 l 208 53 q 92 203 132 106 q 53 438 53 301 q 156 779 53 660 q 451 899 260 899 q 594 878 529 899 l 654 1006 l 721 981 l 726 967 l 668 842 m 167 450 q 253 146 167 236 l 554 790 q 444 808 508 808 q 167 450 167 808 m 438 76 q 715 442 715 76 q 624 746 715 658 l 319 99 q 438 76 368 76 m 594 1199 l 622 1133 l 619 1122 q 347 1003 488 1061 l 335 1008 l 315 1058 q 581 1201 461 1131 l 594 1199 z "},"Õ":{"ha":882,"x_min":53,"x_max":831,"o":"m 451 899 q 733 786 635 899 q 831 463 831 674 q 726 112 831 235 q 429 -11 622 -11 q 151 106 249 -11 q 53 438 53 222 q 156 779 53 660 q 451 899 260 899 m 444 808 q 167 450 167 808 q 234 168 167 260 q 438 76 301 76 q 715 442 715 76 q 648 718 715 628 q 444 808 581 808 m 661 1146 l 661 1135 l 576 1039 l 563 1035 q 446 1063 532 1038 q 347 1086 367 1086 q 326 1077 338 1086 q 292 1044 315 1068 l 269 1021 l 257 1021 l 224 1057 l 224 1067 l 308 1163 l 322 1167 q 438 1139 356 1164 q 485 1126 447 1136 q 538 1117 522 1117 q 561 1126 549 1117 q 593 1157 574 1136 l 617 1181 l 628 1181 l 661 1146 z "},"Ṍ":{"ha":882,"x_min":53,"x_max":831,"o":"m 451 899 q 733 786 635 899 q 831 463 831 674 q 726 112 831 235 q 429 -11 622 -11 q 151 106 249 -11 q 53 438 53 222 q 156 779 53 660 q 451 899 260 899 m 444 808 q 167 450 167 808 q 234 168 167 260 q 438 76 301 76 q 715 442 715 76 q 648 718 715 628 q 444 808 581 808 m 579 1340 l 597 1272 l 590 1260 q 304 1192 422 1218 l 292 1199 l 282 1251 q 569 1346 404 1286 l 579 1340 m 638 1119 l 638 1108 l 560 1013 l 549 1008 q 449 1036 519 1011 q 410 1049 442 1039 q 364 1058 378 1058 q 342 1048 353 1058 q 317 1022 331 1038 q 294 996 303 1006 l 283 996 l 250 1031 l 250 1042 l 326 1136 l 339 1142 q 439 1114 368 1139 q 478 1101 446 1111 q 524 1092 510 1092 q 546 1102 535 1092 q 571 1128 557 1113 q 593 1154 585 1144 l 603 1154 l 638 1119 z "},"Ṏ":{"ha":882,"x_min":53,"x_max":831,"o":"m 451 899 q 733 786 635 899 q 831 463 831 674 q 726 112 831 235 q 429 -11 622 -11 q 151 106 249 -11 q 53 438 53 222 q 156 779 53 660 q 451 899 260 899 m 444 808 q 167 450 167 808 q 234 168 167 260 q 438 76 301 76 q 715 442 715 76 q 648 718 715 628 q 444 808 581 808 m 638 1119 l 638 1108 l 560 1013 l 549 1008 q 449 1036 529 1011 q 364 1060 381 1060 q 343 1050 354 1060 q 318 1024 332 1040 q 294 996 304 1007 l 283 996 l 250 1032 l 250 1042 l 326 1136 l 339 1142 q 439 1114 368 1139 q 478 1101 446 1111 q 524 1092 510 1092 q 546 1101 535 1092 q 574 1132 557 1111 l 593 1154 l 603 1154 l 638 1119 m 338 1336 q 380 1321 364 1336 q 396 1278 396 1306 q 379 1231 396 1249 q 335 1213 363 1213 q 290 1228 306 1213 q 275 1274 275 1244 q 292 1319 275 1301 q 338 1336 308 1336 m 556 1336 q 599 1321 583 1336 q 614 1278 614 1306 q 597 1231 614 1249 q 553 1213 581 1213 q 509 1229 525 1213 q 493 1274 493 1246 q 510 1319 493 1301 q 556 1336 526 1336 z "},"Ȭ":{"ha":882,"x_min":53,"x_max":831,"o":"m 451 899 q 733 786 635 899 q 831 463 831 674 q 726 112 831 235 q 429 -11 622 -11 q 151 106 249 -11 q 53 438 53 222 q 156 779 53 660 q 451 899 260 899 m 444 808 q 167 450 167 808 q 234 168 167 260 q 438 76 301 76 q 715 442 715 76 q 648 718 715 628 q 444 808 581 808 m 638 1119 l 638 1108 l 560 1013 l 549 1008 q 449 1036 529 1011 q 364 1060 381 1060 q 343 1050 354 1060 q 318 1024 332 1040 q 294 996 304 1007 l 283 996 l 250 1032 l 250 1042 l 326 1136 l 339 1142 q 439 1114 368 1139 q 478 1101 446 1111 q 524 1092 510 1092 q 546 1101 535 1092 q 574 1132 557 1111 l 593 1154 l 603 1154 l 638 1119 m 600 1306 l 594 1240 l 293 1240 l 286 1249 l 292 1313 l 593 1313 l 600 1306 z "},"Œ":{"ha":1182,"x_min":53,"x_max":1150,"o":"m 493 907 q 617 899 539 907 q 728 890 692 890 l 1142 890 l 1149 879 l 1140 793 l 940 797 l 753 797 l 751 503 l 910 500 l 1067 504 l 1074 494 l 1064 408 l 901 411 l 749 410 l 749 271 l 750 93 l 924 92 l 1142 97 l 1150 86 l 1140 0 l 728 0 q 651 -3 693 1 q 597 -8 608 -7 q 472 -17 514 -17 q 163 103 272 -17 q 53 439 53 222 q 168 784 53 661 q 493 907 283 907 m 485 814 q 247 721 328 814 q 167 446 167 628 q 483 75 167 75 q 558 80 519 75 q 614 89 596 85 q 641 106 633 96 q 649 138 649 117 l 643 744 q 639 781 643 769 q 624 796 635 793 q 567 808 608 803 q 485 814 526 814 z "},"P":{"ha":722,"x_min":129,"x_max":674,"o":"m 401 892 q 603 824 532 892 q 674 631 674 757 q 585 397 674 482 q 342 313 497 313 l 236 313 l 236 278 l 242 0 l 129 0 l 136 268 l 129 890 l 401 892 m 383 403 q 515 472 469 417 q 560 621 560 528 q 376 800 560 793 l 242 796 l 238 406 l 383 403 z "},"Þ":{"ha":729,"x_min":131,"x_max":678,"o":"m 404 738 q 607 670 536 738 q 678 475 678 603 q 591 243 678 325 q 344 161 504 161 l 239 160 l 242 0 l 131 0 l 135 268 l 131 890 l 243 890 l 242 736 l 404 738 m 385 250 q 563 467 563 282 q 379 647 563 639 l 240 643 l 238 278 l 238 253 l 385 250 z "},"Q":{"ha":888,"x_min":53,"x_max":1018,"o":"m 1018 -192 q 993 -233 1004 -218 q 967 -262 982 -249 l 957 -267 q 697 -167 822 -232 q 467 -10 571 -101 q 433 -11 456 -11 q 151 106 250 -11 q 53 438 53 222 q 156 779 53 660 q 453 899 260 899 q 733 785 635 899 q 831 458 831 672 q 763 164 831 279 q 568 8 694 49 q 1014 -178 768 -132 l 1018 -192 m 167 447 q 440 82 167 82 q 645 174 575 82 q 715 449 715 265 q 442 807 715 807 q 235 718 303 807 q 167 447 167 629 z "},"R":{"ha":771,"x_min":129,"x_max":722,"o":"m 492 360 q 722 26 583 208 l 721 13 q 618 -12 671 -7 l 603 -3 q 399 331 489 168 l 236 331 l 236 278 l 242 0 l 129 0 l 136 268 l 129 890 l 401 892 q 603 826 532 892 q 675 638 675 760 q 627 473 675 546 q 492 360 579 400 m 238 425 l 404 421 q 560 628 560 465 q 514 755 560 713 q 376 800 468 797 l 242 796 l 238 425 z "},"Ŕ":{"ha":771,"x_min":129,"x_max":722,"o":"m 492 360 q 722 26 583 208 l 721 13 q 618 -12 671 -7 l 603 -3 q 399 331 489 168 l 236 331 l 236 278 l 242 0 l 129 0 l 136 268 l 129 890 l 401 892 q 603 826 532 892 q 675 638 675 760 q 627 473 675 546 q 492 360 579 400 m 238 425 l 404 421 q 560 628 560 465 q 514 755 560 713 q 376 800 468 797 l 242 796 l 238 425 m 524 1221 l 565 1163 l 563 1151 q 326 975 425 1044 l 314 976 l 283 1021 q 511 1222 419 1132 l 524 1221 z "},"Ř":{"ha":771,"x_min":129,"x_max":722,"o":"m 492 360 q 722 26 583 208 l 721 13 q 618 -12 671 -7 l 603 -3 q 399 331 489 168 l 236 331 l 236 278 l 242 0 l 129 0 l 136 268 l 129 890 l 401 892 q 603 826 532 892 q 675 638 675 760 q 627 473 675 546 q 492 360 579 400 m 238 425 l 404 421 q 560 628 560 465 q 514 755 560 713 q 376 800 468 797 l 242 796 l 238 425 m 564 1132 q 403 1006 463 1061 l 372 1006 q 210 1132 300 1068 l 231 1179 l 244 1179 q 386 1088 332 1125 q 529 1179 422 1113 l 542 1179 l 564 1132 z "},"Ŗ":{"ha":771,"x_min":129,"x_max":722,"o":"m 492 360 q 722 26 583 208 l 721 13 q 618 -12 671 -7 l 603 -3 q 399 331 489 168 l 236 331 l 236 278 l 242 0 l 129 0 l 136 268 l 129 890 l 401 892 q 603 826 532 892 q 675 638 675 760 q 627 473 675 546 q 492 360 579 400 m 238 425 l 404 421 q 560 628 560 465 q 514 755 560 713 q 376 800 468 797 l 242 796 l 238 425 m 411 -78 q 467 -164 467 -112 q 344 -337 467 -249 l 310 -306 l 310 -296 q 381 -182 381 -240 q 340 -122 381 -147 l 340 -111 q 411 -78 375 -87 z "},"Ȑ":{"ha":771,"x_min":129,"x_max":722,"o":"m 492 360 q 722 26 583 208 l 721 13 q 618 -12 671 -7 l 603 -3 q 399 331 489 168 l 236 331 l 236 278 l 242 0 l 129 0 l 136 268 l 129 890 l 401 892 q 603 826 532 892 q 675 638 675 760 q 627 473 675 546 q 492 360 579 400 m 238 425 l 404 421 q 560 628 560 465 q 514 755 560 713 q 376 800 468 797 l 242 796 l 238 425 m 307 999 l 296 1000 l 239 1051 l 131 1153 l 132 1165 l 182 1200 l 193 1200 q 319 1058 221 1167 l 344 1032 l 307 999 m 506 999 l 493 1000 l 449 1040 l 329 1153 l 331 1165 l 381 1200 l 392 1200 q 543 1032 451 1129 l 506 999 z "},"Ṛ":{"ha":771,"x_min":129,"x_max":722,"o":"m 492 360 q 722 26 583 208 l 721 13 q 618 -12 671 -7 l 603 -3 q 399 331 489 168 l 236 331 l 236 278 l 242 0 l 129 0 l 136 268 l 129 890 l 401 892 q 603 826 532 892 q 675 638 675 760 q 627 473 675 546 q 492 360 579 400 m 238 425 l 404 421 q 560 628 560 465 q 514 755 560 713 q 376 800 468 797 l 242 796 l 238 425 m 388 -97 q 432 -114 415 -97 q 449 -160 449 -131 q 431 -208 449 -190 q 383 -226 414 -226 q 338 -210 354 -226 q 322 -162 322 -193 q 340 -115 322 -133 q 388 -97 357 -97 z "},"Ȓ":{"ha":771,"x_min":129,"x_max":722,"o":"m 492 360 q 722 26 583 208 l 721 13 q 618 -12 671 -7 l 603 -3 q 399 331 489 168 l 236 331 l 236 278 l 242 0 l 129 0 l 136 268 l 129 890 l 401 892 q 603 826 532 892 q 675 638 675 760 q 627 473 675 546 q 492 360 579 400 m 238 425 l 404 421 q 560 628 560 465 q 514 755 560 713 q 376 800 468 797 l 242 796 l 238 425 m 208 1043 q 388 1203 246 1203 q 502 1161 460 1203 q 560 1043 544 1119 l 529 1003 l 513 1003 q 385 1124 486 1124 q 257 1003 283 1124 l 240 1003 l 208 1043 z "},"Ṟ":{"ha":771,"x_min":129,"x_max":722,"o":"m 492 360 q 722 26 583 208 l 721 13 q 618 -12 671 -7 l 603 -3 q 399 331 489 168 l 236 331 l 236 278 l 242 0 l 129 0 l 136 268 l 129 890 l 401 892 q 603 826 532 892 q 675 638 675 760 q 627 473 675 546 q 492 360 579 400 m 238 425 l 404 421 q 560 628 560 465 q 514 755 560 713 q 376 800 468 797 l 242 796 l 238 425 m 558 -157 l 553 -222 l 224 -222 l 215 -212 l 221 -149 l 550 -149 l 558 -157 z "},"S":{"ha":656,"x_min":58,"x_max":596,"o":"m 371 897 q 569 856 467 897 l 551 749 l 532 743 q 447 790 492 774 q 357 807 401 807 q 267 786 306 807 q 209 732 229 765 q 189 663 189 699 q 212 597 189 625 q 269 547 235 568 q 364 497 304 526 q 485 433 439 463 q 563 357 531 403 q 596 246 596 311 q 558 118 596 176 q 453 25 521 60 q 297 -10 385 -10 q 176 6 239 -10 q 58 53 113 22 l 72 167 l 88 174 q 195 103 136 126 q 308 81 254 81 q 402 101 361 81 q 465 157 443 122 q 486 231 486 192 q 442 324 486 289 q 307 401 397 360 q 189 466 233 438 q 113 540 144 494 q 81 650 81 585 q 117 775 81 718 q 220 865 154 832 q 371 897 286 897 z "},"Ś":{"ha":656,"x_min":58,"x_max":596,"o":"m 371 897 q 569 856 467 897 l 551 749 l 532 743 q 447 790 492 774 q 357 807 401 807 q 267 786 306 807 q 209 732 229 765 q 189 663 189 699 q 212 597 189 625 q 269 547 235 568 q 364 497 304 526 q 485 433 439 463 q 563 357 531 403 q 596 246 596 311 q 558 118 596 176 q 453 25 521 60 q 297 -10 385 -10 q 176 6 239 -10 q 58 53 113 22 l 72 167 l 88 174 q 195 103 136 126 q 308 81 254 81 q 402 101 361 81 q 465 157 443 122 q 486 231 486 192 q 442 324 486 289 q 307 401 397 360 q 189 466 233 438 q 113 540 144 494 q 81 650 81 585 q 117 775 81 718 q 220 865 154 832 q 371 897 286 897 m 482 1221 l 524 1163 l 521 1151 q 285 975 383 1044 l 272 976 l 242 1021 q 469 1222 378 1132 l 482 1221 z "},"Ṥ":{"ha":656,"x_min":58,"x_max":596,"o":"m 371 897 q 569 856 467 897 l 551 749 l 532 743 q 447 790 492 774 q 357 807 401 807 q 267 786 306 807 q 209 732 229 765 q 189 663 189 699 q 212 597 189 625 q 269 547 235 568 q 364 497 304 526 q 485 433 439 463 q 563 357 531 403 q 596 246 596 311 q 558 118 596 176 q 453 25 521 60 q 297 -10 385 -10 q 176 6 239 -10 q 58 53 113 22 l 72 167 l 88 174 q 195 103 136 126 q 308 81 254 81 q 402 101 361 81 q 465 157 443 122 q 486 231 486 192 q 442 324 486 289 q 307 401 397 360 q 189 466 233 438 q 113 540 144 494 q 81 650 81 585 q 117 775 81 718 q 220 865 154 832 q 371 897 286 897 m 499 1197 l 526 1132 l 524 1121 q 251 1001 392 1060 l 239 1007 l 219 1057 q 485 1200 365 1129 l 499 1197 m 336 1360 q 381 1343 364 1360 q 397 1297 397 1326 q 380 1249 397 1267 q 332 1231 363 1231 q 287 1247 303 1231 q 271 1294 271 1264 q 288 1342 271 1324 q 336 1360 306 1360 z "},"Ꞌ":{"ha":167,"x_min":39,"x_max":138,"o":"m 138 843 l 104 483 l 47 472 l 39 485 l 44 846 l 129 856 l 138 843 z "},"Š":{"ha":656,"x_min":58,"x_max":596,"o":"m 371 897 q 569 856 467 897 l 551 749 l 532 743 q 447 790 492 774 q 357 807 401 807 q 267 786 306 807 q 209 732 229 765 q 189 663 189 699 q 212 597 189 625 q 269 547 235 568 q 364 497 304 526 q 485 433 439 463 q 563 357 531 403 q 596 246 596 311 q 558 118 596 176 q 453 25 521 60 q 297 -10 385 -10 q 176 6 239 -10 q 58 53 113 22 l 72 167 l 88 174 q 195 103 136 126 q 308 81 254 81 q 402 101 361 81 q 465 157 443 122 q 486 231 486 192 q 442 324 486 289 q 307 401 397 360 q 189 466 233 438 q 113 540 144 494 q 81 650 81 585 q 117 775 81 718 q 220 865 154 832 q 371 897 286 897 m 522 1132 q 361 1006 421 1061 l 331 1006 q 168 1132 258 1068 l 189 1179 l 203 1179 q 344 1088 290 1125 q 488 1179 381 1113 l 500 1179 l 522 1132 z "},"Ṧ":{"ha":656,"x_min":58,"x_max":596,"o":"m 371 897 q 569 856 467 897 l 551 749 l 532 743 q 447 790 492 774 q 357 807 401 807 q 267 786 306 807 q 209 732 229 765 q 189 663 189 699 q 212 597 189 625 q 269 547 235 568 q 364 497 304 526 q 485 433 439 463 q 563 357 531 403 q 596 246 596 311 q 558 118 596 176 q 453 25 521 60 q 297 -10 385 -10 q 176 6 239 -10 q 58 53 113 22 l 72 167 l 88 174 q 195 103 136 126 q 308 81 254 81 q 402 101 361 81 q 465 157 443 122 q 486 231 486 192 q 442 324 486 289 q 307 401 397 360 q 189 466 233 438 q 113 540 144 494 q 81 650 81 585 q 117 775 81 718 q 220 865 154 832 q 371 897 286 897 m 522 1132 q 361 1006 421 1061 l 331 1006 q 168 1132 258 1068 l 189 1179 l 203 1179 q 344 1088 290 1125 q 488 1179 381 1113 l 500 1179 l 522 1132 m 347 1339 q 392 1322 375 1339 q 408 1276 408 1306 q 391 1228 408 1246 q 343 1210 374 1210 q 298 1226 314 1210 q 282 1274 282 1243 q 299 1321 282 1303 q 347 1339 317 1339 z "},"Ş":{"ha":656,"x_min":58,"x_max":596,"o":"m 371 897 q 569 856 467 897 l 551 749 l 532 743 q 447 790 492 774 q 357 807 401 807 q 267 786 306 807 q 209 732 229 765 q 189 663 189 699 q 212 597 189 625 q 269 547 235 568 q 364 497 304 526 q 485 433 439 463 q 563 357 531 403 q 596 246 596 311 q 558 118 596 176 q 453 25 521 60 q 297 -10 385 -10 q 176 6 239 -10 q 58 53 113 22 l 72 167 l 88 174 q 195 103 136 126 q 308 81 254 81 q 402 101 361 81 q 465 157 443 122 q 486 231 486 192 q 442 324 486 289 q 307 401 397 360 q 189 466 233 438 q 113 540 144 494 q 81 650 81 585 q 117 775 81 718 q 220 865 154 832 q 371 897 286 897 m 332 -71 l 379 -99 q 432 -176 432 -129 q 401 -242 432 -217 q 319 -268 369 -268 q 219 -225 260 -268 l 229 -169 l 236 -168 q 274 -201 256 -190 q 315 -211 292 -211 q 347 -201 335 -211 q 358 -174 358 -192 q 351 -155 358 -162 q 329 -139 344 -147 l 263 -99 l 297 26 l 361 26 l 332 -71 z "},"Ŝ":{"ha":656,"x_min":58,"x_max":596,"o":"m 371 897 q 569 856 467 897 l 551 749 l 532 743 q 447 790 492 774 q 357 807 401 807 q 267 786 306 807 q 209 732 229 765 q 189 663 189 699 q 212 597 189 625 q 269 547 235 568 q 364 497 304 526 q 485 433 439 463 q 563 357 531 403 q 596 246 596 311 q 558 118 596 176 q 453 25 521 60 q 297 -10 385 -10 q 176 6 239 -10 q 58 53 113 22 l 72 167 l 88 174 q 195 103 136 126 q 308 81 254 81 q 402 101 361 81 q 465 157 443 122 q 486 231 486 192 q 442 324 486 289 q 307 401 397 360 q 189 466 233 438 q 113 540 144 494 q 81 650 81 585 q 117 775 81 718 q 220 865 154 832 q 371 897 286 897 m 160 1025 q 329 1211 239 1106 l 363 1211 q 531 1025 449 1104 l 500 981 l 488 981 q 346 1125 401 1063 q 204 981 293 1067 l 190 981 l 160 1025 z "},"Ș":{"ha":656,"x_min":58,"x_max":596,"o":"m 371 897 q 569 856 467 897 l 551 749 l 532 743 q 447 790 492 774 q 357 807 401 807 q 267 786 306 807 q 209 732 229 765 q 189 663 189 699 q 212 597 189 625 q 269 547 235 568 q 364 497 304 526 q 485 433 439 463 q 563 357 531 403 q 596 246 596 311 q 558 118 596 176 q 453 25 521 60 q 297 -10 385 -10 q 176 6 239 -10 q 58 53 113 22 l 72 167 l 88 174 q 195 103 136 126 q 308 81 254 81 q 402 101 361 81 q 465 157 443 122 q 486 231 486 192 q 442 324 486 289 q 307 401 397 360 q 189 466 233 438 q 113 540 144 494 q 81 650 81 585 q 117 775 81 718 q 220 865 154 832 q 371 897 286 897 m 343 -78 q 399 -164 399 -112 q 276 -337 399 -249 l 242 -306 l 242 -296 q 313 -182 313 -240 q 272 -122 313 -147 l 272 -111 q 343 -78 307 -87 z "},"Ṡ":{"ha":656,"x_min":58,"x_max":596,"o":"m 371 897 q 569 856 467 897 l 551 749 l 532 743 q 447 790 492 774 q 357 807 401 807 q 267 786 306 807 q 209 732 229 765 q 189 663 189 699 q 212 597 189 625 q 269 547 235 568 q 364 497 304 526 q 485 433 439 463 q 563 357 531 403 q 596 246 596 311 q 558 118 596 176 q 453 25 521 60 q 297 -10 385 -10 q 176 6 239 -10 q 58 53 113 22 l 72 167 l 88 174 q 195 103 136 126 q 308 81 254 81 q 402 101 361 81 q 465 157 443 122 q 486 231 486 192 q 442 324 486 289 q 307 401 397 360 q 189 466 233 438 q 113 540 144 494 q 81 650 81 585 q 117 775 81 718 q 220 865 154 832 q 371 897 286 897 m 347 1175 q 392 1158 375 1175 q 408 1113 408 1142 q 391 1064 408 1082 q 343 1046 374 1046 q 298 1063 314 1046 q 282 1110 282 1079 q 299 1157 282 1139 q 347 1175 317 1175 z "},"Ṣ":{"ha":656,"x_min":58,"x_max":596,"o":"m 371 897 q 569 856 467 897 l 551 749 l 532 743 q 447 790 492 774 q 357 807 401 807 q 267 786 306 807 q 209 732 229 765 q 189 663 189 699 q 212 597 189 625 q 269 547 235 568 q 364 497 304 526 q 485 433 439 463 q 563 357 531 403 q 596 246 596 311 q 558 118 596 176 q 453 25 521 60 q 297 -10 385 -10 q 176 6 239 -10 q 58 53 113 22 l 72 167 l 88 174 q 195 103 136 126 q 308 81 254 81 q 402 101 361 81 q 465 157 443 122 q 486 231 486 192 q 442 324 486 289 q 307 401 397 360 q 189 466 233 438 q 113 540 144 494 q 81 650 81 585 q 117 775 81 718 q 220 865 154 832 q 371 897 286 897 m 319 -97 q 364 -114 347 -97 q 381 -160 381 -131 q 363 -208 381 -190 q 315 -226 346 -226 q 270 -210 286 -226 q 254 -162 254 -193 q 272 -115 254 -133 q 319 -97 289 -97 z "},"Ṩ":{"ha":656,"x_min":58,"x_max":596,"o":"m 371 897 q 569 856 467 897 l 551 749 l 532 743 q 447 790 492 774 q 357 807 401 807 q 267 786 306 807 q 209 732 229 765 q 189 663 189 699 q 212 597 189 625 q 269 547 235 568 q 364 497 304 526 q 485 433 439 463 q 563 357 531 403 q 596 246 596 311 q 558 118 596 176 q 453 25 521 60 q 297 -10 385 -10 q 176 6 239 -10 q 58 53 113 22 l 72 167 l 88 174 q 195 103 136 126 q 308 81 254 81 q 402 101 361 81 q 465 157 443 122 q 486 231 486 192 q 442 324 486 289 q 307 401 397 360 q 189 466 233 438 q 113 540 144 494 q 81 650 81 585 q 117 775 81 718 q 220 865 154 832 q 371 897 286 897 m 319 -97 q 364 -114 347 -97 q 381 -160 381 -131 q 363 -208 381 -190 q 315 -226 346 -226 q 270 -210 286 -226 q 254 -162 254 -193 q 272 -115 254 -133 q 319 -97 289 -97 m 347 1175 q 392 1158 375 1175 q 408 1113 408 1142 q 391 1064 408 1082 q 343 1046 374 1046 q 298 1063 314 1046 q 282 1110 282 1079 q 299 1157 282 1139 q 347 1175 317 1175 z "},"ẞ":{"ha":876,"x_min":100,"x_max":835,"o":"m 444 897 q 603 875 524 897 q 771 811 683 853 l 776 789 l 544 506 q 764 400 693 460 q 835 238 835 340 q 798 106 835 163 q 698 20 761 50 q 558 -10 635 -10 q 439 6 500 -10 q 326 53 378 22 l 340 167 l 356 174 q 459 106 401 131 q 568 81 517 81 q 681 122 638 81 q 725 226 725 164 q 652 351 725 301 q 411 444 579 400 l 404 468 l 636 758 q 442 806 536 806 q 272 748 332 806 q 211 589 211 690 l 208 279 l 213 0 l 100 0 l 108 264 l 104 589 q 144 751 103 681 q 263 859 185 821 q 444 897 340 897 z "},"Ə":{"ha":863,"x_min":78,"x_max":811,"o":"m 415 897 q 627 844 538 897 q 764 689 717 790 q 811 450 811 588 q 763 206 811 310 q 627 47 715 103 q 419 -10 539 -10 q 242 29 319 -10 q 121 142 164 68 q 78 314 78 215 q 86 406 78 344 l 103 424 l 697 426 l 697 443 q 620 706 697 613 q 400 799 543 799 q 262 776 331 799 q 139 714 193 754 l 124 724 l 142 829 q 415 897 274 897 m 419 79 q 596 148 525 79 q 689 338 667 217 l 196 333 l 193 301 q 256 138 193 197 q 419 79 318 79 z "},"T":{"ha":681,"x_min":31,"x_max":651,"o":"m 651 879 l 643 793 l 488 801 l 397 801 l 393 278 l 397 0 l 285 0 l 293 268 l 286 801 l 196 801 l 38 793 l 31 804 l 39 890 l 643 890 l 651 879 z "},"Ŧ":{"ha":681,"x_min":31,"x_max":651,"o":"m 397 801 l 394 479 l 539 479 l 549 472 l 543 410 l 394 410 l 393 278 l 397 0 l 285 0 l 293 268 l 292 410 l 158 410 l 150 418 l 156 479 l 290 479 l 286 801 l 196 801 l 38 793 l 31 804 l 39 890 l 643 890 l 651 879 l 643 793 l 488 801 l 397 801 z "},"Ť":{"ha":681,"x_min":31,"x_max":651,"o":"m 651 879 l 643 793 l 488 801 l 397 801 l 393 278 l 397 0 l 285 0 l 293 268 l 286 801 l 196 801 l 38 793 l 31 804 l 39 890 l 643 890 l 651 879 m 522 1132 q 361 1006 421 1061 l 331 1006 q 168 1132 258 1068 l 189 1179 l 203 1179 q 344 1088 290 1125 q 488 1179 381 1113 l 500 1179 l 522 1132 z "},"Ţ":{"ha":681,"x_min":31,"x_max":651,"o":"m 651 879 l 643 793 l 488 801 l 397 801 l 393 278 l 397 0 l 368 0 l 347 -71 l 394 -99 q 447 -176 447 -129 q 416 -242 447 -217 q 335 -268 385 -268 q 235 -225 275 -268 l 244 -169 l 251 -168 q 289 -201 271 -190 q 331 -211 307 -211 q 362 -201 350 -211 q 374 -174 374 -192 q 367 -155 374 -162 q 344 -139 360 -147 l 278 -99 l 304 0 l 285 0 l 293 268 l 286 801 l 196 801 l 38 793 l 31 804 l 39 890 l 643 890 l 651 879 z "},"Ț":{"ha":681,"x_min":31,"x_max":651,"o":"m 651 879 l 643 793 l 488 801 l 397 801 l 393 278 l 397 0 l 285 0 l 293 268 l 286 801 l 196 801 l 38 793 l 31 804 l 39 890 l 643 890 l 651 879 m 358 -78 q 414 -164 414 -112 q 292 -337 414 -249 l 257 -306 l 257 -296 q 328 -182 328 -240 q 288 -122 328 -147 l 288 -111 q 358 -78 322 -87 z "},"Ṭ":{"ha":681,"x_min":31,"x_max":651,"o":"m 651 879 l 643 793 l 488 801 l 397 801 l 393 278 l 397 0 l 285 0 l 293 268 l 286 801 l 196 801 l 38 793 l 31 804 l 39 890 l 643 890 l 651 879 m 335 -97 q 379 -114 363 -97 q 396 -160 396 -131 q 378 -208 396 -190 q 331 -226 361 -226 q 285 -210 301 -226 q 269 -162 269 -193 q 287 -115 269 -133 q 335 -97 304 -97 z "},"Ṯ":{"ha":681,"x_min":31,"x_max":651,"o":"m 651 879 l 643 793 l 488 801 l 397 801 l 393 278 l 397 0 l 285 0 l 293 268 l 286 801 l 196 801 l 38 793 l 31 804 l 39 890 l 643 890 l 651 879 m 506 -157 l 500 -222 l 171 -222 l 163 -212 l 168 -149 l 497 -149 l 506 -157 z "},"U":{"ha":869,"x_min":100,"x_max":767,"o":"m 765 438 l 764 338 q 678 82 767 174 q 425 -10 589 -10 q 184 78 268 -10 q 103 325 100 165 l 104 446 l 103 890 l 213 890 l 208 339 q 264 151 207 214 q 433 88 321 88 q 604 147 546 88 q 661 325 663 207 l 656 890 l 767 890 l 765 438 z "},"Ú":{"ha":869,"x_min":103,"x_max":767,"o":"m 765 438 l 764 338 q 678 82 767 174 q 425 -10 589 -10 q 184 78 268 -10 q 103 325 100 165 l 104 446 l 103 890 l 213 890 l 208 339 q 264 151 207 214 q 433 88 321 88 q 604 147 546 88 q 661 325 663 207 l 656 890 l 767 890 l 765 438 m 592 1197 l 619 1132 l 617 1121 q 344 1001 485 1060 l 332 1007 l 313 1057 q 578 1200 458 1129 l 592 1197 z "},"Ŭ":{"ha":869,"x_min":103,"x_max":767,"o":"m 765 438 l 764 338 q 678 82 767 174 q 425 -10 589 -10 q 184 78 268 -10 q 103 325 100 165 l 104 446 l 103 890 l 213 890 l 208 339 q 264 151 207 214 q 433 88 321 88 q 604 147 546 88 q 661 325 663 207 l 656 890 l 767 890 l 765 438 m 615 1146 q 436 986 578 986 q 322 1028 364 986 q 264 1146 279 1069 l 294 1186 l 311 1186 q 439 1065 338 1065 q 567 1186 540 1065 l 583 1186 l 615 1146 z "},"Ǔ":{"ha":869,"x_min":103,"x_max":767,"o":"m 765 438 l 764 338 q 678 82 767 174 q 425 -10 589 -10 q 184 78 268 -10 q 103 325 100 165 l 104 446 l 103 890 l 213 890 l 208 339 q 264 151 207 214 q 433 88 321 88 q 604 147 546 88 q 661 325 663 207 l 656 890 l 767 890 l 765 438 m 615 1132 q 454 1006 514 1061 l 424 1006 q 261 1132 351 1068 l 282 1179 l 296 1179 q 438 1088 383 1125 q 581 1179 474 1113 l 593 1179 l 615 1132 z "},"Û":{"ha":869,"x_min":103,"x_max":767,"o":"m 765 438 l 764 338 q 678 82 767 174 q 425 -10 589 -10 q 184 78 268 -10 q 103 325 100 165 l 104 446 l 103 890 l 213 890 l 208 339 q 264 151 207 214 q 433 88 321 88 q 604 147 546 88 q 661 325 663 207 l 656 890 l 767 890 l 765 438 m 261 1067 q 422 1193 363 1138 l 453 1193 q 615 1067 525 1131 l 594 1019 l 581 1019 q 439 1111 493 1074 q 296 1019 403 1086 l 283 1019 l 261 1067 z "},"Ȕ":{"ha":869,"x_min":103,"x_max":767,"o":"m 765 438 l 764 338 q 678 82 767 174 q 425 -10 589 -10 q 184 78 268 -10 q 103 325 100 165 l 104 446 l 103 890 l 213 890 l 208 339 q 264 151 207 214 q 433 88 321 88 q 604 147 546 88 q 661 325 663 207 l 656 890 l 767 890 l 765 438 m 358 999 l 347 1000 l 290 1051 l 182 1153 l 183 1165 l 233 1200 l 244 1200 q 371 1058 272 1167 l 396 1032 l 358 999 m 557 999 l 544 1000 l 500 1040 l 381 1153 l 382 1165 l 432 1200 l 443 1200 q 594 1032 503 1129 l 557 999 z "},"Ü":{"ha":869,"x_min":103,"x_max":767,"o":"m 765 438 l 764 338 q 678 82 767 174 q 425 -10 589 -10 q 184 78 268 -10 q 103 325 100 165 l 104 446 l 103 890 l 213 890 l 208 339 q 264 151 207 214 q 433 88 321 88 q 604 147 546 88 q 661 325 663 207 l 656 890 l 767 890 l 765 438 m 332 1158 q 374 1143 358 1158 q 390 1100 390 1128 q 374 1053 390 1071 q 329 1035 357 1035 q 285 1051 300 1035 q 269 1096 269 1067 q 286 1141 269 1124 q 332 1158 303 1158 m 550 1158 q 593 1143 578 1158 q 608 1100 608 1128 q 592 1053 608 1071 q 547 1035 575 1035 q 503 1051 519 1035 q 488 1096 488 1068 q 504 1141 488 1124 q 550 1158 521 1158 z "},"Ǘ":{"ha":869,"x_min":103,"x_max":767,"o":"m 765 438 l 764 338 q 678 82 767 174 q 425 -10 589 -10 q 184 78 268 -10 q 103 325 100 165 l 104 446 l 103 890 l 213 890 l 208 339 q 264 151 207 214 q 433 88 321 88 q 604 147 546 88 q 661 325 663 207 l 656 890 l 767 890 l 765 438 m 578 1349 l 594 1279 l 588 1268 q 301 1199 488 1240 l 289 1206 l 278 1258 q 565 1354 439 1306 l 578 1349 m 329 1128 q 369 1113 354 1128 q 385 1071 385 1097 q 369 1027 385 1043 q 326 1011 353 1011 q 284 1026 299 1011 q 269 1068 269 1042 q 285 1112 269 1096 q 329 1128 301 1128 m 547 1128 q 588 1113 574 1128 q 603 1071 603 1097 q 587 1027 603 1043 q 544 1011 571 1011 q 503 1026 518 1011 q 488 1068 488 1042 q 503 1112 488 1096 q 547 1128 519 1128 z "},"Ǚ":{"ha":869,"x_min":103,"x_max":767,"o":"m 765 438 l 764 338 q 678 82 767 174 q 425 -10 589 -10 q 184 78 268 -10 q 103 325 100 165 l 104 446 l 103 890 l 213 890 l 208 339 q 264 151 207 214 q 433 88 321 88 q 604 147 546 88 q 661 325 663 207 l 656 890 l 767 890 l 765 438 m 614 1285 q 453 1160 526 1222 l 422 1160 q 260 1285 325 1239 l 281 1332 l 294 1332 q 336 1306 313 1321 q 389 1271 360 1290 l 436 1240 l 579 1332 l 592 1332 l 614 1285 m 329 1128 q 369 1113 354 1128 q 385 1071 385 1097 q 369 1027 385 1043 q 326 1011 353 1011 q 284 1026 299 1011 q 269 1068 269 1042 q 285 1112 269 1096 q 329 1128 301 1128 m 547 1128 q 588 1113 574 1128 q 603 1071 603 1097 q 587 1027 603 1043 q 544 1011 571 1011 q 503 1026 518 1011 q 488 1068 488 1042 q 503 1112 488 1096 q 547 1128 519 1128 z "},"Ǜ":{"ha":869,"x_min":103,"x_max":767,"o":"m 765 438 l 764 338 q 678 82 767 174 q 425 -10 589 -10 q 184 78 268 -10 q 103 325 100 165 l 104 446 l 103 890 l 213 890 l 208 339 q 264 151 207 214 q 433 88 321 88 q 604 147 546 88 q 661 325 663 207 l 656 890 l 767 890 l 765 438 m 307 1354 q 594 1260 438 1306 l 583 1207 l 572 1200 q 285 1268 404 1236 l 278 1281 l 296 1350 l 307 1354 m 329 1128 q 369 1113 354 1128 q 385 1071 385 1097 q 369 1027 385 1043 q 326 1011 353 1011 q 284 1026 299 1011 q 269 1068 269 1042 q 285 1112 269 1096 q 329 1128 301 1128 m 547 1128 q 588 1113 574 1128 q 603 1071 603 1097 q 587 1027 603 1043 q 544 1011 571 1011 q 503 1026 518 1011 q 488 1068 488 1042 q 503 1112 488 1096 q 547 1128 519 1128 z "},"Ǖ":{"ha":869,"x_min":103,"x_max":767,"o":"m 765 438 l 764 338 q 678 82 767 174 q 425 -10 589 -10 q 184 78 268 -10 q 103 325 100 165 l 104 446 l 103 890 l 213 890 l 208 339 q 264 151 207 214 q 433 88 321 88 q 604 147 546 88 q 661 325 663 207 l 656 890 l 767 890 l 765 438 m 608 1285 l 601 1219 l 278 1219 l 269 1228 l 275 1293 l 600 1293 l 608 1285 m 329 1128 q 369 1113 354 1128 q 385 1071 385 1097 q 369 1027 385 1043 q 326 1011 353 1011 q 284 1026 299 1011 q 269 1068 269 1042 q 285 1112 269 1096 q 329 1128 301 1128 m 547 1128 q 588 1113 574 1128 q 603 1071 603 1097 q 587 1027 603 1043 q 544 1011 571 1011 q 503 1026 518 1011 q 488 1068 488 1042 q 503 1112 488 1096 q 547 1128 519 1128 z "},"Ụ":{"ha":869,"x_min":103,"x_max":767,"o":"m 765 438 l 764 338 q 678 82 767 174 q 425 -10 589 -10 q 184 78 268 -10 q 103 325 100 165 l 104 446 l 103 890 l 213 890 l 208 339 q 264 151 207 214 q 433 88 321 88 q 604 147 546 88 q 661 325 663 207 l 656 890 l 767 890 l 765 438 m 432 -97 q 476 -114 460 -97 q 493 -160 493 -131 q 476 -208 493 -190 q 428 -226 458 -226 q 383 -210 399 -226 q 367 -162 367 -193 q 384 -115 367 -133 q 432 -97 401 -97 z "},"Ù":{"ha":869,"x_min":103,"x_max":767,"o":"m 765 438 l 764 338 q 678 82 767 174 q 425 -10 589 -10 q 184 78 268 -10 q 103 325 100 165 l 104 446 l 103 890 l 213 890 l 208 339 q 264 151 207 214 q 433 88 321 88 q 604 147 546 88 q 661 325 663 207 l 656 890 l 767 890 l 765 438 m 325 1200 q 590 1057 444 1129 l 571 1007 l 558 1001 q 288 1121 414 1061 l 283 1132 l 311 1197 l 325 1200 z "},"Ủ":{"ha":869,"x_min":103,"x_max":767,"o":"m 765 438 l 764 338 q 678 82 767 174 q 425 -10 589 -10 q 184 78 268 -10 q 103 325 100 165 l 104 446 l 103 890 l 213 890 l 208 339 q 264 151 207 214 q 433 88 321 88 q 604 147 546 88 q 661 325 663 207 l 656 890 l 767 890 l 765 438 m 397 1040 q 451 1089 432 1064 q 471 1133 471 1114 q 460 1155 471 1147 q 432 1163 449 1163 q 390 1154 413 1163 q 347 1129 368 1146 l 325 1167 q 385 1210 353 1194 q 449 1225 417 1225 q 515 1202 489 1225 q 542 1144 542 1179 q 525 1095 542 1119 q 468 1039 508 1071 l 496 990 l 446 963 l 397 1040 z "},"Ư":{"ha":883,"x_min":100,"x_max":886,"o":"m 886 968 q 853 885 886 921 q 767 836 821 850 l 765 438 l 764 338 q 678 82 767 174 q 425 -10 589 -10 q 184 78 268 -10 q 103 325 100 165 l 104 446 l 103 890 l 213 890 l 208 339 q 264 151 207 214 q 433 88 321 88 q 604 147 546 88 q 661 325 663 207 l 656 890 l 708 890 q 776 908 753 890 q 799 961 799 926 q 753 1044 799 1004 l 757 1056 q 810 1078 789 1078 q 861 1045 836 1078 q 886 968 886 1013 z "},"Ứ":{"ha":883,"x_min":103,"x_max":886,"o":"m 886 968 q 853 885 886 921 q 767 836 821 850 l 765 438 l 764 338 q 678 82 767 174 q 425 -10 589 -10 q 184 78 268 -10 q 103 325 100 165 l 104 446 l 103 890 l 213 890 l 208 339 q 264 151 207 214 q 433 88 321 88 q 604 147 546 88 q 661 325 663 207 l 656 890 l 708 890 q 776 908 753 890 q 799 961 799 926 q 753 1044 799 1004 l 757 1056 q 810 1078 789 1078 q 861 1045 836 1078 q 886 968 886 1013 m 592 1197 l 619 1132 l 617 1121 q 344 1001 485 1060 l 332 1007 l 313 1057 q 578 1200 458 1129 l 592 1197 z "},"Ự":{"ha":883,"x_min":103,"x_max":886,"o":"m 886 968 q 853 885 886 921 q 767 836 821 850 l 765 438 l 764 338 q 678 82 767 174 q 425 -10 589 -10 q 184 78 268 -10 q 103 325 100 165 l 104 446 l 103 890 l 213 890 l 208 339 q 264 151 207 214 q 433 88 321 88 q 604 147 546 88 q 661 325 663 207 l 656 890 l 708 890 q 776 908 753 890 q 799 961 799 926 q 753 1044 799 1004 l 757 1056 q 810 1078 789 1078 q 861 1045 836 1078 q 886 968 886 1013 m 436 -97 q 481 -114 464 -97 q 497 -160 497 -131 q 480 -208 497 -190 q 432 -226 463 -226 q 387 -210 403 -226 q 371 -162 371 -193 q 388 -115 371 -133 q 436 -97 406 -97 z "},"Ừ":{"ha":883,"x_min":103,"x_max":886,"o":"m 886 968 q 853 885 886 921 q 767 836 821 850 l 765 438 l 764 338 q 678 82 767 174 q 425 -10 589 -10 q 184 78 268 -10 q 103 325 100 165 l 104 446 l 103 890 l 213 890 l 208 339 q 264 151 207 214 q 433 88 321 88 q 604 147 546 88 q 661 325 663 207 l 656 890 l 708 890 q 776 908 753 890 q 799 961 799 926 q 753 1044 799 1004 l 757 1056 q 810 1078 789 1078 q 861 1045 836 1078 q 886 968 886 1013 m 325 1200 q 590 1057 444 1129 l 571 1007 l 558 1001 q 288 1121 414 1061 l 283 1132 l 311 1197 l 325 1200 z "},"Ử":{"ha":883,"x_min":103,"x_max":886,"o":"m 886 968 q 853 885 886 921 q 767 836 821 850 l 765 438 l 764 338 q 678 82 767 174 q 425 -10 589 -10 q 184 78 268 -10 q 103 325 100 165 l 104 446 l 103 890 l 213 890 l 208 339 q 264 151 207 214 q 433 88 321 88 q 604 147 546 88 q 661 325 663 207 l 656 890 l 708 890 q 776 908 753 890 q 799 961 799 926 q 753 1044 799 1004 l 757 1056 q 810 1078 789 1078 q 861 1045 836 1078 q 886 968 886 1013 m 397 1040 q 451 1089 432 1064 q 471 1133 471 1114 q 460 1155 471 1147 q 432 1163 449 1163 q 390 1154 413 1163 q 347 1129 368 1146 l 325 1167 q 385 1210 353 1194 q 449 1225 417 1225 q 515 1202 489 1225 q 542 1144 542 1179 q 525 1095 542 1119 q 468 1039 508 1071 l 496 990 l 446 963 l 397 1040 z "},"Ữ":{"ha":883,"x_min":103,"x_max":886,"o":"m 886 968 q 853 885 886 921 q 767 836 821 850 l 765 438 l 764 338 q 678 82 767 174 q 425 -10 589 -10 q 184 78 268 -10 q 103 325 100 165 l 104 446 l 103 890 l 213 890 l 208 339 q 264 151 207 214 q 433 88 321 88 q 604 147 546 88 q 661 325 663 207 l 656 890 l 708 890 q 776 908 753 890 q 799 961 799 926 q 753 1044 799 1004 l 757 1056 q 810 1078 789 1078 q 861 1045 836 1078 q 886 968 886 1013 m 656 1146 l 656 1135 l 571 1039 l 557 1035 q 440 1063 526 1038 q 342 1086 361 1086 q 321 1077 332 1086 q 286 1044 310 1068 l 264 1021 l 251 1021 l 218 1057 l 218 1067 l 303 1163 l 317 1167 q 432 1139 350 1164 q 479 1126 442 1136 q 532 1117 517 1117 q 556 1126 543 1117 q 588 1157 568 1136 l 611 1181 l 622 1181 l 656 1146 z "},"Ű":{"ha":869,"x_min":103,"x_max":767,"o":"m 765 438 l 764 338 q 678 82 767 174 q 425 -10 589 -10 q 184 78 268 -10 q 103 325 100 165 l 104 446 l 103 890 l 213 890 l 208 339 q 264 151 207 214 q 433 88 321 88 q 604 147 546 88 q 661 325 663 207 l 656 890 l 767 890 l 765 438 m 282 1032 q 432 1200 382 1140 l 444 1200 l 494 1165 l 494 1153 q 331 1000 444 1103 l 318 999 l 282 1032 m 481 1032 q 631 1200 581 1140 l 642 1200 l 693 1165 l 693 1153 l 574 1040 l 529 1000 l 517 999 l 481 1032 z "},"Ȗ":{"ha":869,"x_min":103,"x_max":767,"o":"m 765 438 l 764 338 q 678 82 767 174 q 425 -10 589 -10 q 184 78 268 -10 q 103 325 100 165 l 104 446 l 103 890 l 213 890 l 208 339 q 264 151 207 214 q 433 88 321 88 q 604 147 546 88 q 661 325 663 207 l 656 890 l 767 890 l 765 438 m 260 1043 q 439 1203 297 1203 q 553 1161 511 1203 q 611 1043 596 1119 l 581 1003 l 564 1003 q 436 1124 538 1124 q 308 1003 335 1124 l 292 1003 l 260 1043 z "},"Ū":{"ha":869,"x_min":103,"x_max":767,"o":"m 765 438 l 764 338 q 678 82 767 174 q 425 -10 589 -10 q 184 78 268 -10 q 103 325 100 165 l 104 446 l 103 890 l 213 890 l 208 339 q 264 151 207 214 q 433 88 321 88 q 604 147 546 88 q 661 325 663 207 l 656 890 l 767 890 l 765 438 m 642 1128 l 635 1063 l 242 1063 l 233 1071 l 239 1135 l 632 1135 l 642 1128 z "},"Ṻ":{"ha":869,"x_min":103,"x_max":767,"o":"m 765 438 l 764 338 q 678 82 767 174 q 425 -10 589 -10 q 184 78 268 -10 q 103 325 100 165 l 104 446 l 103 890 l 213 890 l 208 339 q 264 151 207 214 q 433 88 321 88 q 604 147 546 88 q 661 325 663 207 l 656 890 l 767 890 l 765 438 m 642 1128 l 635 1063 l 242 1063 l 233 1071 l 239 1135 l 632 1135 l 642 1128 m 332 1379 q 374 1364 358 1379 q 390 1321 390 1349 q 374 1274 390 1292 q 329 1256 357 1256 q 285 1272 300 1256 q 269 1317 269 1288 q 286 1362 269 1344 q 332 1379 303 1379 m 550 1379 q 593 1364 578 1379 q 608 1321 608 1349 q 592 1274 608 1292 q 547 1256 575 1256 q 503 1272 519 1256 q 488 1317 488 1289 q 504 1362 488 1344 q 550 1379 521 1379 z "},"Ų":{"ha":869,"x_min":103,"x_max":767,"o":"m 765 438 l 764 338 q 678 82 767 174 q 425 -10 589 -10 q 184 78 268 -10 q 103 325 100 165 l 104 446 l 103 890 l 213 890 l 208 339 q 264 151 207 214 q 433 88 321 88 q 604 147 546 88 q 661 325 663 207 l 656 890 l 767 890 l 765 438 m 529 -268 q 444 -241 476 -268 q 413 -167 413 -214 q 442 -82 413 -125 q 563 46 471 -39 l 635 46 q 515 -93 540 -60 q 490 -150 490 -126 q 540 -194 490 -194 q 643 -140 586 -194 l 650 -142 l 669 -200 q 529 -268 604 -268 z "},"Ů":{"ha":869,"x_min":103,"x_max":767,"o":"m 765 438 l 764 338 q 678 82 767 174 q 425 -10 589 -10 q 184 78 268 -10 q 103 325 100 165 l 104 446 l 103 890 l 213 890 l 208 339 q 264 151 207 214 q 433 88 321 88 q 604 147 546 88 q 661 325 663 207 l 656 890 l 767 890 l 765 438 m 438 1222 q 522 1191 492 1222 q 553 1110 553 1160 q 519 1024 553 1056 q 433 993 485 993 q 351 1023 383 993 q 319 1107 319 1053 q 351 1191 319 1160 q 438 1222 383 1222 m 435 1168 q 388 1152 404 1168 q 372 1108 372 1136 q 390 1062 372 1078 q 436 1046 407 1046 q 481 1061 464 1046 q 499 1106 499 1076 q 483 1151 499 1135 q 435 1168 467 1168 z "},"Ũ":{"ha":869,"x_min":103,"x_max":767,"o":"m 765 438 l 764 338 q 678 82 767 174 q 425 -10 589 -10 q 184 78 268 -10 q 103 325 100 165 l 104 446 l 103 890 l 213 890 l 208 339 q 264 151 207 214 q 433 88 321 88 q 604 147 546 88 q 661 325 663 207 l 656 890 l 767 890 l 765 438 m 656 1146 l 656 1135 l 571 1039 l 557 1035 q 440 1063 526 1038 q 342 1086 361 1086 q 321 1077 332 1086 q 286 1044 310 1068 l 264 1021 l 251 1021 l 218 1057 l 218 1067 l 303 1163 l 317 1167 q 432 1139 350 1164 q 479 1126 442 1136 q 532 1117 517 1117 q 556 1126 543 1117 q 588 1157 568 1136 l 611 1181 l 622 1181 l 656 1146 z "},"Ṹ":{"ha":869,"x_min":103,"x_max":767,"o":"m 765 438 l 764 338 q 678 82 767 174 q 425 -10 589 -10 q 184 78 268 -10 q 103 325 100 165 l 104 446 l 103 890 l 213 890 l 208 339 q 264 151 207 214 q 433 88 321 88 q 604 147 546 88 q 661 325 663 207 l 656 890 l 767 890 l 765 438 m 574 1340 l 592 1272 l 585 1260 q 299 1192 417 1218 l 286 1199 l 276 1251 q 564 1346 399 1286 l 574 1340 m 632 1119 l 632 1108 l 554 1013 l 543 1008 q 443 1036 514 1011 q 404 1049 436 1039 q 358 1058 372 1058 q 336 1048 347 1058 q 311 1022 325 1038 q 289 996 297 1006 l 278 996 l 244 1031 l 244 1042 l 321 1136 l 333 1142 q 433 1114 363 1139 q 472 1101 440 1111 q 518 1092 504 1092 q 540 1102 529 1092 q 565 1128 551 1113 q 588 1154 579 1144 l 597 1154 l 632 1119 z "},"V":{"ha":783,"x_min":21,"x_max":774,"o":"m 447 0 l 318 0 l 21 890 l 135 890 l 156 800 l 382 113 l 390 113 l 640 794 l 663 890 l 774 890 l 447 0 z "},"W":{"ha":1240,"x_min":29,"x_max":1229,"o":"m 910 0 l 794 0 l 621 517 l 611 517 l 428 0 l 313 0 l 29 890 l 140 890 l 156 804 l 372 124 l 382 124 l 574 665 l 499 890 l 613 890 l 633 794 l 853 124 l 861 124 l 1103 799 l 1124 890 l 1229 890 l 910 0 z "},"Ẃ":{"ha":1240,"x_min":29,"x_max":1229,"o":"m 910 0 l 794 0 l 621 517 l 611 517 l 428 0 l 313 0 l 29 890 l 140 890 l 156 804 l 372 124 l 382 124 l 574 665 l 499 890 l 613 890 l 633 794 l 853 124 l 861 124 l 1103 799 l 1124 890 l 1229 890 l 910 0 m 764 1197 l 792 1132 l 789 1121 q 517 1001 657 1060 l 504 1007 l 485 1057 q 750 1200 631 1129 l 764 1197 z "},"Ŵ":{"ha":1240,"x_min":29,"x_max":1229,"o":"m 910 0 l 794 0 l 621 517 l 611 517 l 428 0 l 313 0 l 29 890 l 140 890 l 156 804 l 372 124 l 382 124 l 574 665 l 499 890 l 613 890 l 633 794 l 853 124 l 861 124 l 1103 799 l 1124 890 l 1229 890 l 910 0 m 433 1067 q 594 1193 535 1138 l 625 1193 q 788 1067 697 1131 l 767 1019 l 753 1019 q 611 1111 665 1074 q 468 1019 575 1086 l 456 1019 l 433 1067 z "},"Ẅ":{"ha":1240,"x_min":29,"x_max":1229,"o":"m 910 0 l 794 0 l 621 517 l 611 517 l 428 0 l 313 0 l 29 890 l 140 890 l 156 804 l 372 124 l 382 124 l 574 665 l 499 890 l 613 890 l 633 794 l 853 124 l 861 124 l 1103 799 l 1124 890 l 1229 890 l 910 0 m 504 1158 q 547 1143 531 1158 q 563 1100 563 1128 q 546 1053 563 1071 q 501 1035 529 1035 q 457 1051 472 1035 q 442 1096 442 1067 q 458 1141 442 1124 q 504 1158 475 1158 m 722 1158 q 765 1143 750 1158 q 781 1100 781 1128 q 764 1053 781 1071 q 719 1035 747 1035 q 676 1051 692 1035 q 660 1096 660 1068 q 676 1141 660 1124 q 722 1158 693 1158 z "},"Ẁ":{"ha":1240,"x_min":29,"x_max":1229,"o":"m 910 0 l 794 0 l 621 517 l 611 517 l 428 0 l 313 0 l 29 890 l 140 890 l 156 804 l 372 124 l 382 124 l 574 665 l 499 890 l 613 890 l 633 794 l 853 124 l 861 124 l 1103 799 l 1124 890 l 1229 890 l 910 0 m 497 1200 q 763 1057 617 1129 l 743 1007 l 731 1001 q 460 1121 586 1061 l 456 1132 l 483 1197 l 497 1200 z "},"X":{"ha":825,"x_min":40,"x_max":786,"o":"m 482 464 l 786 0 l 651 0 l 614 72 l 407 376 l 194 65 l 160 0 l 40 0 l 343 450 l 51 890 l 186 890 l 224 819 l 415 535 l 607 821 l 643 890 l 764 890 l 482 464 z "},"Y":{"ha":733,"x_min":21,"x_max":714,"o":"m 406 260 l 408 0 l 299 0 l 304 260 l 303 318 l 21 890 l 140 890 l 158 840 l 353 440 l 363 440 l 576 838 l 597 890 l 714 890 l 407 322 l 406 260 z "},"Ý":{"ha":733,"x_min":21,"x_max":714,"o":"m 406 260 l 408 0 l 299 0 l 304 260 l 303 318 l 21 890 l 140 890 l 158 840 l 353 440 l 363 440 l 576 838 l 597 890 l 714 890 l 407 322 l 406 260 m 513 1197 l 540 1132 l 538 1121 q 265 1001 406 1060 l 253 1007 l 233 1057 q 499 1200 379 1129 l 513 1197 z "},"Ŷ":{"ha":733,"x_min":21,"x_max":714,"o":"m 406 260 l 408 0 l 299 0 l 304 260 l 303 318 l 21 890 l 140 890 l 158 840 l 353 440 l 363 440 l 576 838 l 597 890 l 714 890 l 407 322 l 406 260 m 182 1067 q 343 1193 283 1138 l 374 1193 q 536 1067 446 1131 l 515 1019 l 501 1019 q 360 1111 414 1074 q 217 1019 324 1086 l 204 1019 l 182 1067 z "},"Ÿ":{"ha":733,"x_min":21,"x_max":714,"o":"m 406 260 l 408 0 l 299 0 l 304 260 l 303 318 l 21 890 l 140 890 l 158 840 l 353 440 l 363 440 l 576 838 l 597 890 l 714 890 l 407 322 l 406 260 m 253 1158 q 295 1143 279 1158 q 311 1100 311 1128 q 294 1053 311 1071 q 250 1035 278 1035 q 206 1051 221 1035 q 190 1096 190 1067 q 207 1141 190 1124 q 253 1158 224 1158 m 471 1158 q 514 1143 499 1158 q 529 1100 529 1128 q 513 1053 529 1071 q 468 1035 496 1035 q 424 1051 440 1035 q 408 1096 408 1068 q 425 1141 408 1124 q 471 1158 442 1158 z "},"Ẏ":{"ha":733,"x_min":21,"x_max":714,"o":"m 406 260 l 408 0 l 299 0 l 304 260 l 303 318 l 21 890 l 140 890 l 158 840 l 353 440 l 363 440 l 576 838 l 597 890 l 714 890 l 407 322 l 406 260 m 361 1175 q 406 1158 389 1175 q 422 1113 422 1142 q 405 1064 422 1082 q 357 1046 388 1046 q 312 1063 328 1046 q 296 1110 296 1079 q 313 1157 296 1139 q 361 1175 331 1175 z "},"Ỵ":{"ha":733,"x_min":21,"x_max":714,"o":"m 406 260 l 408 0 l 299 0 l 304 260 l 303 318 l 21 890 l 140 890 l 158 840 l 353 440 l 363 440 l 576 838 l 597 890 l 714 890 l 407 322 l 406 260 m 356 -97 q 400 -114 383 -97 q 417 -160 417 -131 q 399 -208 417 -190 q 351 -226 382 -226 q 306 -210 322 -226 q 290 -162 290 -193 q 308 -115 290 -133 q 356 -97 325 -97 z "},"Ỳ":{"ha":733,"x_min":21,"x_max":714,"o":"m 406 260 l 408 0 l 299 0 l 304 260 l 303 318 l 21 890 l 140 890 l 158 840 l 353 440 l 363 440 l 576 838 l 597 890 l 714 890 l 407 322 l 406 260 m 246 1200 q 511 1057 365 1129 l 492 1007 l 479 1001 q 208 1121 335 1061 l 204 1132 l 232 1197 l 246 1200 z "},"Ỷ":{"ha":733,"x_min":21,"x_max":714,"o":"m 406 260 l 408 0 l 299 0 l 304 260 l 303 318 l 21 890 l 140 890 l 158 840 l 353 440 l 363 440 l 576 838 l 597 890 l 714 890 l 407 322 l 406 260 m 318 1040 q 372 1089 353 1064 q 392 1133 392 1114 q 381 1155 392 1147 q 353 1163 369 1163 q 311 1154 333 1163 q 268 1129 289 1146 l 246 1167 q 306 1210 274 1194 q 369 1225 338 1225 q 436 1202 410 1225 q 463 1144 463 1179 q 446 1095 463 1119 q 389 1039 429 1071 l 417 990 l 367 963 l 318 1040 z "},"Ȳ":{"ha":733,"x_min":21,"x_max":714,"o":"m 406 260 l 408 0 l 299 0 l 304 260 l 303 318 l 21 890 l 140 890 l 158 840 l 353 440 l 363 440 l 576 838 l 597 890 l 714 890 l 407 322 l 406 260 m 563 1128 l 556 1063 l 163 1063 l 154 1071 l 160 1135 l 553 1135 l 563 1128 z "},"Ỹ":{"ha":733,"x_min":21,"x_max":714,"o":"m 406 260 l 408 0 l 299 0 l 304 260 l 303 318 l 21 890 l 140 890 l 158 840 l 353 440 l 363 440 l 576 838 l 597 890 l 714 890 l 407 322 l 406 260 m 576 1146 l 576 1135 l 492 1039 l 478 1035 q 361 1063 447 1038 q 263 1086 282 1086 q 242 1077 253 1086 q 207 1044 231 1068 l 185 1021 l 172 1021 l 139 1057 l 139 1067 l 224 1163 l 238 1167 q 353 1139 271 1164 q 400 1126 363 1136 q 453 1117 438 1117 q 476 1126 464 1117 q 508 1157 489 1136 l 532 1181 l 543 1181 l 576 1146 z "},"Z":{"ha":733,"x_min":43,"x_max":683,"o":"m 675 808 l 176 90 l 546 90 l 678 100 l 683 92 l 674 -3 l 513 0 l 122 0 l 43 -4 l 43 78 l 543 799 l 200 799 l 67 789 l 60 797 l 68 892 l 607 890 l 675 892 l 675 808 z "},"Ź":{"ha":733,"x_min":43,"x_max":683,"o":"m 675 808 l 176 90 l 546 90 l 678 100 l 683 92 l 674 -3 l 513 0 l 122 0 l 43 -4 l 43 78 l 543 799 l 200 799 l 67 789 l 60 797 l 68 892 l 607 890 l 675 892 l 675 808 m 521 1197 l 549 1132 l 546 1121 q 274 1001 414 1060 l 261 1007 l 242 1057 q 507 1200 388 1129 l 521 1197 z "},"Ž":{"ha":733,"x_min":43,"x_max":683,"o":"m 675 808 l 176 90 l 546 90 l 678 100 l 683 92 l 674 -3 l 513 0 l 122 0 l 43 -4 l 43 78 l 543 799 l 200 799 l 67 789 l 60 797 l 68 892 l 607 890 l 675 892 l 675 808 m 544 1131 q 383 1004 443 1060 l 353 1004 q 190 1131 281 1067 l 211 1178 l 225 1178 q 367 1086 313 1124 q 510 1178 403 1111 l 522 1178 l 544 1131 z "},"Ż":{"ha":733,"x_min":43,"x_max":683,"o":"m 675 808 l 176 90 l 546 90 l 678 100 l 683 92 l 674 -3 l 513 0 l 122 0 l 43 -4 l 43 78 l 543 799 l 200 799 l 67 789 l 60 797 l 68 892 l 607 890 l 675 892 l 675 808 m 369 1175 q 414 1158 397 1175 q 431 1113 431 1142 q 413 1064 431 1082 q 365 1046 396 1046 q 320 1063 336 1046 q 304 1110 304 1079 q 322 1157 304 1139 q 369 1175 339 1175 z "},"Ẓ":{"ha":733,"x_min":43,"x_max":683,"o":"m 675 808 l 176 90 l 546 90 l 678 100 l 683 92 l 674 -3 l 513 0 l 122 0 l 43 -4 l 43 78 l 543 799 l 200 799 l 67 789 l 60 797 l 68 892 l 607 890 l 675 892 l 675 808 m 368 -97 q 413 -114 396 -97 q 429 -160 429 -131 q 412 -208 429 -190 q 364 -226 394 -226 q 319 -210 335 -226 q 303 -162 303 -193 q 320 -115 303 -133 q 368 -97 338 -97 z "},"a":{"ha":642,"x_min":58,"x_max":600,"o":"m 321 647 q 463 603 411 647 q 515 481 515 558 q 507 310 515 457 q 499 138 499 163 q 508 95 499 107 q 542 83 518 83 q 589 92 563 83 l 600 82 l 589 19 q 510 -8 549 -4 q 441 22 467 -4 q 414 94 415 49 l 404 94 q 256 -10 329 18 q 110 37 163 -10 q 58 164 58 83 q 91 261 58 225 q 188 313 124 297 l 413 365 l 414 456 q 385 539 414 510 q 304 568 357 568 q 210 546 257 568 q 108 476 163 524 l 97 482 l 83 561 q 321 647 199 647 m 210 246 q 169 223 182 238 q 157 179 157 208 q 183 108 157 133 q 251 82 208 82 q 407 181 328 82 l 411 294 l 210 246 z "},"á":{"ha":642,"x_min":58,"x_max":600,"o":"m 321 647 q 463 603 411 647 q 515 481 515 558 q 507 310 515 457 q 499 138 499 163 q 508 95 499 107 q 542 83 518 83 q 589 92 563 83 l 600 82 l 589 19 q 510 -8 549 -4 q 441 22 467 -4 q 414 94 415 49 l 404 94 q 256 -10 329 18 q 110 37 163 -10 q 58 164 58 83 q 91 261 58 225 q 188 313 124 297 l 413 365 l 414 456 q 385 539 414 510 q 304 568 357 568 q 210 546 257 568 q 108 476 163 524 l 97 482 l 83 561 q 321 647 199 647 m 210 246 q 169 223 182 238 q 157 179 157 208 q 183 108 157 133 q 251 82 208 82 q 407 181 328 82 l 411 294 l 210 246 m 447 967 l 489 908 l 486 897 q 250 721 349 790 l 238 722 l 207 767 q 435 968 343 878 l 447 967 z "},"ă":{"ha":642,"x_min":58,"x_max":600,"o":"m 321 647 q 463 603 411 647 q 515 481 515 558 q 507 310 515 457 q 499 138 499 163 q 508 95 499 107 q 542 83 518 83 q 589 92 563 83 l 600 82 l 589 19 q 510 -8 549 -4 q 441 22 467 -4 q 414 94 415 49 l 404 94 q 256 -10 329 18 q 110 37 163 -10 q 58 164 58 83 q 91 261 58 225 q 188 313 124 297 l 413 365 l 414 456 q 385 539 414 510 q 304 568 357 568 q 210 546 257 568 q 108 476 163 524 l 97 482 l 83 561 q 321 647 199 647 m 210 246 q 169 223 182 238 q 157 179 157 208 q 183 108 157 133 q 251 82 208 82 q 407 181 328 82 l 411 294 l 210 246 m 488 892 q 308 732 450 732 q 194 774 236 732 q 136 892 151 815 l 167 932 l 183 932 q 311 811 210 811 q 439 932 413 811 l 456 932 l 488 892 z "},"ắ":{"ha":642,"x_min":58,"x_max":600,"o":"m 321 647 q 463 603 411 647 q 515 481 515 558 q 507 310 515 457 q 499 138 499 163 q 508 95 499 107 q 542 83 518 83 q 589 92 563 83 l 600 82 l 589 19 q 510 -8 549 -4 q 441 22 467 -4 q 414 94 415 49 l 404 94 q 256 -10 329 18 q 110 37 163 -10 q 58 164 58 83 q 91 261 58 225 q 188 313 124 297 l 413 365 l 414 456 q 385 539 414 510 q 304 568 357 568 q 210 546 257 568 q 108 476 163 524 l 97 482 l 83 561 q 321 647 199 647 m 210 246 q 169 223 182 238 q 157 179 157 208 q 183 108 157 133 q 251 82 208 82 q 407 181 328 82 l 411 294 l 210 246 m 435 1028 l 436 1017 l 304 882 l 293 882 l 254 913 q 376 1064 313 981 l 386 1065 l 435 1028 m 485 850 q 418 758 464 790 q 307 725 372 725 q 199 757 243 725 q 135 850 154 789 l 165 889 l 182 889 q 230 826 197 849 q 310 804 263 804 q 390 826 357 804 q 438 889 422 849 l 454 889 l 485 850 z "},"ặ":{"ha":642,"x_min":58,"x_max":600,"o":"m 496 892 q 317 732 458 732 q 202 774 244 732 q 144 892 160 815 l 175 932 l 192 932 q 319 811 218 811 q 447 932 421 811 l 464 932 l 496 892 m 321 647 q 463 603 411 647 q 515 481 515 558 q 507 310 515 457 q 499 138 499 163 q 508 95 499 107 q 542 83 518 83 q 589 92 563 83 l 600 82 l 589 19 q 510 -8 549 -4 q 441 22 467 -4 q 414 94 415 49 l 404 94 q 256 -10 329 18 q 110 37 163 -10 q 58 164 58 83 q 91 261 58 225 q 188 313 124 297 l 413 365 l 414 456 q 385 539 414 510 q 304 568 357 568 q 210 546 257 568 q 108 476 163 524 l 97 482 l 83 561 q 321 647 199 647 m 210 246 q 169 223 182 238 q 157 179 157 208 q 183 108 157 133 q 251 82 208 82 q 407 181 328 82 l 411 294 l 210 246 m 311 -97 q 356 -114 339 -97 q 372 -160 372 -131 q 355 -208 372 -190 q 307 -226 338 -226 q 262 -210 278 -226 q 246 -162 246 -193 q 263 -115 246 -133 q 311 -97 281 -97 z "},"ằ":{"ha":642,"x_min":58,"x_max":600,"o":"m 321 647 q 463 603 411 647 q 515 481 515 558 q 507 310 515 457 q 499 138 499 163 q 508 95 499 107 q 542 83 518 83 q 589 92 563 83 l 600 82 l 589 19 q 510 -8 549 -4 q 441 22 467 -4 q 414 94 415 49 l 404 94 q 256 -10 329 18 q 110 37 163 -10 q 58 164 58 83 q 91 261 58 225 q 188 313 124 297 l 413 365 l 414 456 q 385 539 414 510 q 304 568 357 568 q 210 546 257 568 q 108 476 163 524 l 97 482 l 83 561 q 321 647 199 647 m 210 246 q 169 223 182 238 q 157 179 157 208 q 183 108 157 133 q 251 82 208 82 q 407 181 328 82 l 411 294 l 210 246 m 308 882 l 178 1017 l 178 1028 l 225 1065 l 236 1064 q 358 913 279 1008 l 321 882 l 308 882 m 485 850 q 418 758 464 790 q 307 725 372 725 q 199 757 243 725 q 135 850 154 789 l 165 889 l 182 889 q 230 826 197 849 q 310 804 263 804 q 390 826 357 804 q 438 889 422 849 l 454 889 l 485 850 z "},"ẳ":{"ha":642,"x_min":58,"x_max":600,"o":"m 321 647 q 463 603 411 647 q 515 481 515 558 q 507 310 515 457 q 499 138 499 163 q 508 95 499 107 q 542 83 518 83 q 589 92 563 83 l 600 82 l 589 19 q 510 -8 549 -4 q 441 22 467 -4 q 414 94 415 49 l 404 94 q 256 -10 329 18 q 110 37 163 -10 q 58 164 58 83 q 91 261 58 225 q 188 313 124 297 l 413 365 l 414 456 q 385 539 414 510 q 304 568 357 568 q 210 546 257 568 q 108 476 163 524 l 97 482 l 83 561 q 321 647 199 647 m 210 246 q 169 223 182 238 q 157 179 157 208 q 183 108 157 133 q 251 82 208 82 q 407 181 328 82 l 411 294 l 210 246 m 485 850 q 418 758 464 790 q 307 725 372 725 q 199 757 243 725 q 135 850 154 789 l 165 889 l 182 889 q 230 826 197 849 q 310 804 263 804 q 390 826 357 804 q 438 889 422 849 l 454 889 l 485 850 m 271 954 q 323 1001 304 977 q 342 1045 342 1026 q 331 1065 342 1058 q 304 1073 321 1073 q 264 1065 286 1073 q 222 1040 242 1057 l 201 1077 q 259 1119 228 1104 q 321 1133 290 1133 q 385 1111 360 1133 q 411 1055 411 1089 q 395 1007 411 1031 q 339 953 379 984 l 366 906 l 318 879 l 271 954 z "},"ẵ":{"ha":642,"x_min":58,"x_max":600,"o":"m 321 647 q 463 603 411 647 q 515 481 515 558 q 507 310 515 457 q 499 138 499 163 q 508 95 499 107 q 542 83 518 83 q 589 92 563 83 l 600 82 l 589 19 q 510 -8 549 -4 q 441 22 467 -4 q 414 94 415 49 l 404 94 q 256 -10 329 18 q 110 37 163 -10 q 58 164 58 83 q 91 261 58 225 q 188 313 124 297 l 413 365 l 414 456 q 385 539 414 510 q 304 568 357 568 q 210 546 257 568 q 108 476 163 524 l 97 482 l 83 561 q 321 647 199 647 m 210 246 q 169 223 182 238 q 157 179 157 208 q 183 108 157 133 q 251 82 208 82 q 407 181 328 82 l 411 294 l 210 246 m 481 848 q 416 758 461 789 q 308 726 371 726 q 202 757 245 726 q 139 848 158 788 l 169 886 l 186 886 q 232 825 200 846 q 310 803 264 803 q 388 825 357 803 q 435 886 420 846 l 451 886 l 481 848 m 511 1050 l 511 1039 l 432 947 l 420 943 q 314 971 396 946 q 222 994 241 994 q 203 985 213 994 q 171 954 192 977 l 150 931 l 139 931 l 109 966 l 109 975 l 188 1067 l 200 1071 q 304 1044 228 1068 q 398 1022 379 1022 q 417 1030 407 1022 q 447 1059 427 1038 l 470 1083 l 480 1083 l 511 1050 z "},"ǎ":{"ha":642,"x_min":58,"x_max":600,"o":"m 321 647 q 463 603 411 647 q 515 481 515 558 q 507 310 515 457 q 499 138 499 163 q 508 95 499 107 q 542 83 518 83 q 589 92 563 83 l 600 82 l 589 19 q 510 -8 549 -4 q 441 22 467 -4 q 414 94 415 49 l 404 94 q 256 -10 329 18 q 110 37 163 -10 q 58 164 58 83 q 91 261 58 225 q 188 313 124 297 l 413 365 l 414 456 q 385 539 414 510 q 304 568 357 568 q 210 546 257 568 q 108 476 163 524 l 97 482 l 83 561 q 321 647 199 647 m 210 246 q 169 223 182 238 q 157 179 157 208 q 183 108 157 133 q 251 82 208 82 q 407 181 328 82 l 411 294 l 210 246 m 496 911 q 326 725 417 831 l 293 725 q 125 911 207 832 l 156 956 l 168 956 q 310 811 254 874 q 451 956 363 869 l 465 956 l 496 911 z "},"â":{"ha":642,"x_min":58,"x_max":600,"o":"m 321 647 q 463 603 411 647 q 515 481 515 558 q 507 310 515 457 q 499 138 499 163 q 508 95 499 107 q 542 83 518 83 q 589 92 563 83 l 600 82 l 589 19 q 510 -8 549 -4 q 441 22 467 -4 q 414 94 415 49 l 404 94 q 256 -10 329 18 q 110 37 163 -10 q 58 164 58 83 q 91 261 58 225 q 188 313 124 297 l 413 365 l 414 456 q 385 539 414 510 q 304 568 357 568 q 210 546 257 568 q 108 476 163 524 l 97 482 l 83 561 q 321 647 199 647 m 210 246 q 169 223 182 238 q 157 179 157 208 q 183 108 157 133 q 251 82 208 82 q 407 181 328 82 l 411 294 l 210 246 m 125 771 q 294 957 204 851 l 328 957 q 496 771 414 850 l 465 726 l 453 726 q 311 871 367 808 q 169 726 258 813 l 156 726 l 125 771 z "},"ấ":{"ha":642,"x_min":58,"x_max":600,"o":"m 321 647 q 463 603 411 647 q 515 481 515 558 q 507 310 515 457 q 499 138 499 163 q 508 95 499 107 q 542 83 518 83 q 589 92 563 83 l 600 82 l 589 19 q 510 -8 549 -4 q 441 22 467 -4 q 414 94 415 49 l 404 94 q 256 -10 329 18 q 110 37 163 -10 q 58 164 58 83 q 91 261 58 225 q 188 313 124 297 l 413 365 l 414 456 q 385 539 414 510 q 304 568 357 568 q 210 546 257 568 q 108 476 163 524 l 97 482 l 83 561 q 321 647 199 647 m 210 246 q 169 223 182 238 q 157 179 157 208 q 183 108 157 133 q 251 82 208 82 q 407 181 328 82 l 411 294 l 210 246 m 536 1029 l 539 1018 l 435 894 l 424 894 l 383 925 l 472 1056 l 483 1058 l 536 1029 m 132 785 q 293 911 233 856 l 324 911 q 486 785 396 849 l 465 738 l 451 738 q 310 831 361 794 q 167 738 250 789 l 154 738 l 132 785 z "},"ậ":{"ha":642,"x_min":58,"x_max":600,"o":"m 321 647 q 463 603 411 647 q 515 481 515 558 q 507 310 515 457 q 499 138 499 163 q 508 95 499 107 q 542 83 518 83 q 589 92 563 83 l 600 82 l 589 19 q 510 -8 549 -4 q 441 22 467 -4 q 414 94 415 49 l 404 94 q 256 -10 329 18 q 110 37 163 -10 q 58 164 58 83 q 91 261 58 225 q 188 313 124 297 l 413 365 l 414 456 q 385 539 414 510 q 304 568 357 568 q 210 546 257 568 q 108 476 163 524 l 97 482 l 83 561 q 321 647 199 647 m 210 246 q 169 223 182 238 q 157 179 157 208 q 183 108 157 133 q 251 82 208 82 q 407 181 328 82 l 411 294 l 210 246 m 311 -97 q 356 -114 339 -97 q 372 -160 372 -131 q 355 -208 372 -190 q 307 -226 338 -226 q 262 -210 278 -226 q 246 -162 246 -193 q 263 -115 246 -133 q 311 -97 281 -97 m 125 771 q 294 957 204 851 l 328 957 q 496 771 414 850 l 465 726 l 453 726 q 311 871 367 808 q 169 726 258 813 l 156 726 l 125 771 z "},"ầ":{"ha":642,"x_min":58,"x_max":600,"o":"m 321 647 q 463 603 411 647 q 515 481 515 558 q 507 310 515 457 q 499 138 499 163 q 508 95 499 107 q 542 83 518 83 q 589 92 563 83 l 600 82 l 589 19 q 510 -8 549 -4 q 441 22 467 -4 q 414 94 415 49 l 404 94 q 256 -10 329 18 q 110 37 163 -10 q 58 164 58 83 q 91 261 58 225 q 188 313 124 297 l 413 365 l 414 456 q 385 539 414 510 q 304 568 357 568 q 210 546 257 568 q 108 476 163 524 l 97 482 l 83 561 q 321 647 199 647 m 210 246 q 169 223 182 238 q 157 179 157 208 q 183 108 157 133 q 251 82 208 82 q 407 181 328 82 l 411 294 l 210 246 m 346 1018 l 347 1029 l 400 1058 l 411 1056 l 501 925 l 461 894 l 450 894 l 346 1018 m 132 785 q 293 911 233 856 l 324 911 q 486 785 396 849 l 465 738 l 451 738 q 310 831 361 794 q 167 738 250 789 l 154 738 l 132 785 z "},"ẩ":{"ha":642,"x_min":58,"x_max":600,"o":"m 321 647 q 463 603 411 647 q 515 481 515 558 q 507 310 515 457 q 499 138 499 163 q 508 95 499 107 q 542 83 518 83 q 589 92 563 83 l 600 82 l 589 19 q 510 -8 549 -4 q 441 22 467 -4 q 414 94 415 49 l 404 94 q 256 -10 329 18 q 110 37 163 -10 q 58 164 58 83 q 91 261 58 225 q 188 313 124 297 l 413 365 l 414 456 q 385 539 414 510 q 304 568 357 568 q 210 546 257 568 q 108 476 163 524 l 97 482 l 83 561 q 321 647 199 647 m 210 246 q 169 223 182 238 q 157 179 157 208 q 183 108 157 133 q 251 82 208 82 q 407 181 328 82 l 411 294 l 210 246 m 132 813 q 293 939 233 883 l 324 939 q 486 813 396 876 l 465 765 l 451 765 q 310 857 364 819 q 167 765 274 832 l 154 765 l 132 813 m 419 976 q 471 1022 452 999 q 489 1065 489 1046 q 479 1085 489 1078 q 452 1092 468 1092 q 413 1085 434 1092 q 372 1061 392 1077 l 351 1096 q 408 1137 377 1123 q 468 1152 438 1152 q 532 1130 507 1152 q 557 1075 557 1108 q 541 1028 557 1051 q 487 975 525 1005 l 513 929 l 466 902 l 419 976 z "},"ẫ":{"ha":642,"x_min":58,"x_max":600,"o":"m 321 647 q 463 603 411 647 q 515 481 515 558 q 507 310 515 457 q 499 138 499 163 q 508 95 499 107 q 542 83 518 83 q 589 92 563 83 l 600 82 l 589 19 q 510 -8 549 -4 q 441 22 467 -4 q 414 94 415 49 l 404 94 q 256 -10 329 18 q 110 37 163 -10 q 58 164 58 83 q 91 261 58 225 q 188 313 124 297 l 413 365 l 414 456 q 385 539 414 510 q 304 568 357 568 q 210 546 257 568 q 108 476 163 524 l 97 482 l 83 561 q 321 647 199 647 m 210 246 q 169 223 182 238 q 157 179 157 208 q 183 108 157 133 q 251 82 208 82 q 407 181 328 82 l 411 294 l 210 246 m 133 813 q 294 939 235 883 l 325 939 q 488 813 397 876 l 467 765 l 453 765 q 311 857 365 819 q 168 765 275 832 l 156 765 l 133 813 m 528 1092 l 528 1081 l 442 985 l 429 981 q 314 1010 403 983 q 214 1033 235 1033 q 193 1024 204 1033 q 158 992 182 1015 l 136 968 l 124 968 l 92 1004 l 92 1014 l 178 1110 l 190 1114 q 303 1086 221 1111 q 406 1063 385 1063 q 426 1071 415 1063 q 458 1101 436 1079 l 483 1126 l 494 1126 l 528 1092 z "},"ȁ":{"ha":642,"x_min":58,"x_max":600,"o":"m 321 647 q 463 603 411 647 q 515 481 515 558 q 507 310 515 457 q 499 138 499 163 q 508 95 499 107 q 542 83 518 83 q 589 92 563 83 l 600 82 l 589 19 q 510 -8 549 -4 q 441 22 467 -4 q 414 94 415 49 l 404 94 q 256 -10 329 18 q 110 37 163 -10 q 58 164 58 83 q 91 261 58 225 q 188 313 124 297 l 413 365 l 414 456 q 385 539 414 510 q 304 568 357 568 q 210 546 257 568 q 108 476 163 524 l 97 482 l 83 561 q 321 647 199 647 m 210 246 q 169 223 182 238 q 157 179 157 208 q 183 108 157 133 q 251 82 208 82 q 407 181 328 82 l 411 294 l 210 246 m 313 754 q 126 968 236 836 l 115 969 l 64 932 l 64 921 q 265 722 140 839 l 275 721 l 313 754 m 510 754 q 322 968 433 835 l 311 969 l 260 932 l 260 921 q 460 722 347 829 l 472 721 l 510 754 z "},"ä":{"ha":642,"x_min":58,"x_max":600,"o":"m 321 647 q 463 603 411 647 q 515 481 515 558 q 507 310 515 457 q 499 138 499 163 q 508 95 499 107 q 542 83 518 83 q 589 92 563 83 l 600 82 l 589 19 q 510 -8 549 -4 q 441 22 467 -4 q 414 94 415 49 l 404 94 q 256 -10 329 18 q 110 37 163 -10 q 58 164 58 83 q 91 261 58 225 q 188 313 124 297 l 413 365 l 414 456 q 385 539 414 510 q 304 568 357 568 q 210 546 257 568 q 108 476 163 524 l 97 482 l 83 561 q 321 647 199 647 m 210 246 q 169 223 182 238 q 157 179 157 208 q 183 108 157 133 q 251 82 208 82 q 407 181 328 82 l 411 294 l 210 246 m 204 904 q 247 889 231 904 q 263 846 263 874 q 246 799 263 817 q 201 781 229 781 q 157 797 172 781 q 142 842 142 813 q 158 887 142 869 q 204 904 175 904 m 422 904 q 465 889 450 904 q 481 846 481 874 q 464 799 481 817 q 419 781 447 781 q 376 797 392 781 q 360 842 360 814 q 376 887 360 869 q 422 904 393 904 z "},"ạ":{"ha":642,"x_min":58,"x_max":600,"o":"m 321 647 q 463 603 411 647 q 515 481 515 558 q 507 310 515 457 q 499 138 499 163 q 508 95 499 107 q 542 83 518 83 q 589 92 563 83 l 600 82 l 589 19 q 510 -8 549 -4 q 441 22 467 -4 q 414 94 415 49 l 404 94 q 256 -10 329 18 q 110 37 163 -10 q 58 164 58 83 q 91 261 58 225 q 188 313 124 297 l 413 365 l 414 456 q 385 539 414 510 q 304 568 357 568 q 210 546 257 568 q 108 476 163 524 l 97 482 l 83 561 q 321 647 199 647 m 210 246 q 169 223 182 238 q 157 179 157 208 q 183 108 157 133 q 251 82 208 82 q 407 181 328 82 l 411 294 l 210 246 m 311 -97 q 356 -114 339 -97 q 372 -160 372 -131 q 355 -208 372 -190 q 307 -226 338 -226 q 262 -210 278 -226 q 246 -162 246 -193 q 263 -115 246 -133 q 311 -97 281 -97 z "},"à":{"ha":642,"x_min":58,"x_max":600,"o":"m 321 647 q 463 603 411 647 q 515 481 515 558 q 507 310 515 457 q 499 138 499 163 q 508 95 499 107 q 542 83 518 83 q 589 92 563 83 l 600 82 l 589 19 q 510 -8 549 -4 q 441 22 467 -4 q 414 94 415 49 l 404 94 q 256 -10 329 18 q 110 37 163 -10 q 58 164 58 83 q 91 261 58 225 q 188 313 124 297 l 413 365 l 414 456 q 385 539 414 510 q 304 568 357 568 q 210 546 257 568 q 108 476 163 524 l 97 482 l 83 561 q 321 647 199 647 m 210 246 q 169 223 182 238 q 157 179 157 208 q 183 108 157 133 q 251 82 208 82 q 407 181 328 82 l 411 294 l 210 246 m 222 968 q 450 767 325 869 l 419 722 l 407 721 q 171 897 308 790 l 168 908 l 210 967 l 222 968 z "},"ả":{"ha":642,"x_min":58,"x_max":600,"o":"m 321 647 q 463 603 411 647 q 515 481 515 558 q 507 310 515 457 q 499 138 499 163 q 508 95 499 107 q 542 83 518 83 q 589 92 563 83 l 600 82 l 589 19 q 510 -8 549 -4 q 441 22 467 -4 q 414 94 415 49 l 404 94 q 256 -10 329 18 q 110 37 163 -10 q 58 164 58 83 q 91 261 58 225 q 188 313 124 297 l 413 365 l 414 456 q 385 539 414 510 q 304 568 357 568 q 210 546 257 568 q 108 476 163 524 l 97 482 l 83 561 q 321 647 199 647 m 210 246 q 169 223 182 238 q 157 179 157 208 q 183 108 157 133 q 251 82 208 82 q 407 181 328 82 l 411 294 l 210 246 m 269 786 q 324 835 304 810 q 343 879 343 860 q 332 901 343 893 q 304 908 321 908 q 263 900 285 908 q 219 875 240 892 l 197 913 q 257 956 225 940 q 321 971 289 971 q 388 948 361 971 q 414 890 414 925 q 397 841 414 865 q 340 785 381 817 l 368 736 l 318 708 l 269 786 z "},"ȃ":{"ha":642,"x_min":58,"x_max":600,"o":"m 321 647 q 463 603 411 647 q 515 481 515 558 q 507 310 515 457 q 499 138 499 163 q 508 95 499 107 q 542 83 518 83 q 589 92 563 83 l 600 82 l 589 19 q 510 -8 549 -4 q 441 22 467 -4 q 414 94 415 49 l 404 94 q 256 -10 329 18 q 110 37 163 -10 q 58 164 58 83 q 91 261 58 225 q 188 313 124 297 l 413 365 l 414 456 q 385 539 414 510 q 304 568 357 568 q 210 546 257 568 q 108 476 163 524 l 97 482 l 83 561 q 321 647 199 647 m 210 246 q 169 223 182 238 q 157 179 157 208 q 183 108 157 133 q 251 82 208 82 q 407 181 328 82 l 411 294 l 210 246 m 132 789 q 311 949 169 949 q 426 907 383 949 q 483 789 468 865 l 453 749 l 436 749 q 308 869 410 869 q 181 749 207 869 l 164 749 l 132 789 z "},"ā":{"ha":642,"x_min":58,"x_max":600,"o":"m 321 647 q 463 603 411 647 q 515 481 515 558 q 507 310 515 457 q 499 138 499 163 q 508 95 499 107 q 542 83 518 83 q 589 92 563 83 l 600 82 l 589 19 q 510 -8 549 -4 q 441 22 467 -4 q 414 94 415 49 l 404 94 q 256 -10 329 18 q 110 37 163 -10 q 58 164 58 83 q 91 261 58 225 q 188 313 124 297 l 413 365 l 414 456 q 385 539 414 510 q 304 568 357 568 q 210 546 257 568 q 108 476 163 524 l 97 482 l 83 561 q 321 647 199 647 m 210 246 q 169 223 182 238 q 157 179 157 208 q 183 108 157 133 q 251 82 208 82 q 407 181 328 82 l 411 294 l 210 246 m 514 874 l 507 808 l 114 808 l 106 817 l 111 881 l 504 881 l 514 874 z "},"ą":{"ha":642,"x_min":58,"x_max":624,"o":"m 321 647 q 463 603 411 647 q 515 481 515 558 q 507 310 515 457 q 499 138 499 163 q 508 95 499 107 q 542 83 518 83 q 589 92 563 83 l 600 82 l 589 19 q 510 -8 549 -4 q 441 22 467 -4 q 414 94 415 49 l 404 94 q 256 -10 329 18 q 110 37 163 -10 q 58 164 58 83 q 91 261 58 225 q 188 313 124 297 l 413 365 l 414 456 q 385 539 414 510 q 304 568 357 568 q 210 546 257 568 q 108 476 163 524 l 97 482 l 83 561 q 321 647 199 647 m 210 246 q 169 223 182 238 q 157 179 157 208 q 183 108 157 133 q 251 82 208 82 q 407 181 328 82 l 411 294 l 210 246 m 483 -294 q 399 -267 431 -294 q 367 -193 367 -240 q 396 -108 367 -151 q 517 19 425 -65 l 589 19 q 469 -119 494 -86 q 444 -176 444 -153 q 494 -221 444 -221 q 597 -167 540 -221 l 604 -168 l 624 -226 q 483 -294 558 -294 z "},"å":{"ha":642,"x_min":58,"x_max":600,"o":"m 321 647 q 463 603 411 647 q 515 481 515 558 q 507 310 515 457 q 499 138 499 163 q 508 95 499 107 q 542 83 518 83 q 589 92 563 83 l 600 82 l 589 19 q 510 -8 549 -4 q 441 22 467 -4 q 414 94 415 49 l 404 94 q 256 -10 329 18 q 110 37 163 -10 q 58 164 58 83 q 91 261 58 225 q 188 313 124 297 l 413 365 l 414 456 q 385 539 414 510 q 304 568 357 568 q 210 546 257 568 q 108 476 163 524 l 97 482 l 83 561 q 321 647 199 647 m 210 246 q 169 223 182 238 q 157 179 157 208 q 183 108 157 133 q 251 82 208 82 q 407 181 328 82 l 411 294 l 210 246 m 310 968 q 394 937 364 968 q 425 856 425 906 q 391 770 425 801 q 306 739 357 739 q 224 769 256 739 q 192 853 192 799 q 224 937 192 906 q 310 968 256 968 m 307 914 q 260 898 276 914 q 244 854 244 882 q 262 808 244 824 q 308 792 279 792 q 353 807 336 792 q 371 851 371 822 q 355 897 371 881 q 307 914 339 914 z "},"ǻ":{"ha":642,"x_min":58,"x_max":600,"o":"m 321 647 q 463 603 411 647 q 515 481 515 558 q 507 310 515 457 q 499 138 499 163 q 508 95 499 107 q 542 83 518 83 q 589 92 563 83 l 600 82 l 589 19 q 510 -8 549 -4 q 441 22 467 -4 q 414 94 415 49 l 404 94 q 256 -10 329 18 q 110 37 163 -10 q 58 164 58 83 q 91 261 58 225 q 188 313 124 297 l 413 365 l 414 456 q 385 539 414 510 q 304 568 357 568 q 210 546 257 568 q 108 476 163 524 l 97 482 l 83 561 q 321 647 199 647 m 210 246 q 169 223 182 238 q 157 179 157 208 q 183 108 157 133 q 251 82 208 82 q 407 181 328 82 l 411 294 l 210 246 m 310 968 q 394 937 364 968 q 425 856 425 906 q 391 770 425 801 q 306 739 357 739 q 224 769 256 739 q 192 853 192 799 q 224 937 192 906 q 310 968 256 968 m 307 914 q 260 898 276 914 q 244 854 244 882 q 262 808 244 824 q 308 792 279 792 q 353 807 336 792 q 371 851 371 822 q 355 897 371 881 q 307 914 339 914 m 174 1096 l 212 1036 l 211 1025 q -38 863 91 943 l -51 866 l -79 912 q 160 1097 53 1007 l 174 1096 z "},"ã":{"ha":642,"x_min":58,"x_max":600,"o":"m 321 647 q 463 603 411 647 q 515 481 515 558 q 507 310 515 457 q 499 138 499 163 q 508 95 499 107 q 542 83 518 83 q 589 92 563 83 l 600 82 l 589 19 q 510 -8 549 -4 q 441 22 467 -4 q 414 94 415 49 l 404 94 q 256 -10 329 18 q 110 37 163 -10 q 58 164 58 83 q 91 261 58 225 q 188 313 124 297 l 413 365 l 414 456 q 385 539 414 510 q 304 568 357 568 q 210 546 257 568 q 108 476 163 524 l 97 482 l 83 561 q 321 647 199 647 m 210 246 q 169 223 182 238 q 157 179 157 208 q 183 108 157 133 q 251 82 208 82 q 407 181 328 82 l 411 294 l 210 246 m 528 892 l 528 881 l 443 785 l 429 781 q 313 808 399 783 q 214 832 233 832 q 193 823 204 832 q 158 790 182 814 l 136 767 l 124 767 l 90 803 l 90 813 l 175 908 l 189 913 q 304 885 222 910 q 351 872 314 882 q 404 863 389 863 q 428 872 415 863 q 460 903 440 882 l 483 926 l 494 926 l 528 892 z "},"æ":{"ha":942,"x_min":54,"x_max":904,"o":"m 681 646 q 843 578 782 646 q 900 385 904 511 l 888 369 l 494 303 q 547 131 500 190 q 682 72 594 72 q 773 89 726 72 q 860 136 819 106 l 871 131 l 858 40 q 769 3 818 17 q 674 -11 719 -11 q 538 24 596 -11 q 447 126 481 60 q 258 -10 371 29 q 109 37 164 -10 q 54 165 54 83 q 88 267 54 228 q 183 317 121 307 l 406 354 l 406 456 q 378 539 406 510 q 299 568 350 568 q 106 476 214 568 l 94 482 l 78 561 q 311 647 193 647 q 418 620 376 647 q 478 547 460 593 q 567 621 514 596 q 681 646 619 646 m 665 571 q 578 544 618 571 q 517 474 539 518 q 494 378 494 431 l 494 369 l 800 428 q 760 533 796 496 q 665 571 724 571 m 251 83 q 326 106 290 83 q 417 188 363 129 q 406 288 407 256 l 224 251 q 169 226 186 244 q 153 176 153 207 q 181 108 153 132 q 251 83 208 83 z "},"ǽ":{"ha":942,"x_min":54,"x_max":900,"o":"m 681 646 q 843 578 782 646 q 900 385 904 511 l 888 369 l 494 303 q 547 131 500 190 q 682 72 594 72 q 773 89 726 72 q 860 136 819 106 l 871 131 l 858 40 q 769 3 818 17 q 674 -11 719 -11 q 538 24 596 -11 q 447 126 481 60 q 258 -10 371 29 q 109 37 164 -10 q 54 165 54 83 q 88 267 54 228 q 183 317 121 307 l 406 354 l 406 456 q 378 539 406 510 q 299 568 350 568 q 106 476 214 568 l 94 482 l 78 561 q 311 647 193 647 q 418 620 376 647 q 478 547 460 593 q 567 621 514 596 q 681 646 619 646 m 665 571 q 578 544 618 571 q 517 474 539 518 q 494 378 494 431 l 494 369 l 800 428 q 760 533 796 496 q 665 571 724 571 m 251 83 q 326 106 290 83 q 417 188 363 129 q 406 288 407 256 l 224 251 q 169 226 186 244 q 153 176 153 207 q 181 108 153 132 q 251 83 208 83 m 614 967 l 656 908 l 653 897 q 417 721 515 790 l 404 722 l 374 767 q 601 968 510 878 l 614 967 z "},"b":{"ha":714,"x_min":117,"x_max":654,"o":"m 407 643 q 591 563 528 643 q 654 338 654 483 q 574 80 654 171 q 349 -11 493 -11 q 213 19 282 -11 l 136 -15 l 117 -4 l 125 267 l 118 965 l 228 975 l 224 549 l 232 549 q 318 608 279 588 q 407 643 357 629 m 358 69 q 499 132 447 69 q 550 317 550 194 q 510 491 550 429 q 397 553 471 553 q 312 529 354 553 q 222 456 269 506 l 221 279 l 225 114 q 358 69 292 69 z "},"c":{"ha":535,"x_min":58,"x_max":511,"o":"m 340 647 q 430 637 383 647 q 511 610 476 626 l 492 514 l 479 510 q 336 557 407 557 q 208 494 254 557 q 163 319 163 432 q 210 142 163 207 q 343 78 258 78 q 422 90 381 78 q 499 125 463 103 l 511 118 l 499 25 q 329 -11 414 -11 q 131 76 203 -11 q 58 314 58 163 q 134 558 58 468 q 340 647 210 647 z "},"ć":{"ha":535,"x_min":58,"x_max":511,"o":"m 340 647 q 430 637 383 647 q 511 610 476 626 l 492 514 l 479 510 q 336 557 407 557 q 208 494 254 557 q 163 319 163 432 q 210 142 163 207 q 343 78 258 78 q 422 90 381 78 q 499 125 463 103 l 511 118 l 499 25 q 329 -11 414 -11 q 131 76 203 -11 q 58 314 58 163 q 134 558 58 468 q 340 647 210 647 m 467 967 l 508 908 l 506 897 q 269 721 368 790 l 257 722 l 226 767 q 454 968 363 878 l 467 967 z "},"č":{"ha":535,"x_min":58,"x_max":515,"o":"m 340 647 q 430 637 383 647 q 511 610 476 626 l 492 514 l 479 510 q 336 557 407 557 q 208 494 254 557 q 163 319 163 432 q 210 142 163 207 q 343 78 258 78 q 422 90 381 78 q 499 125 463 103 l 511 118 l 499 25 q 329 -11 414 -11 q 131 76 203 -11 q 58 314 58 163 q 134 558 58 468 q 340 647 210 647 m 515 911 q 346 725 436 831 l 313 725 q 144 911 226 832 l 175 956 l 188 956 q 329 811 274 874 q 471 956 382 869 l 485 956 l 515 911 z "},"ç":{"ha":535,"x_min":58,"x_max":511,"o":"m 340 647 q 430 637 383 647 q 511 610 476 626 l 492 514 l 479 510 q 336 557 407 557 q 208 494 254 557 q 163 319 163 432 q 210 142 163 207 q 343 78 258 78 q 422 90 381 78 q 499 125 463 103 l 511 118 l 499 25 q 329 -11 414 -11 q 131 76 203 -11 q 58 314 58 163 q 134 558 58 468 q 340 647 210 647 m 340 -71 l 388 -99 q 440 -176 440 -129 q 409 -242 440 -217 q 328 -268 378 -268 q 228 -225 268 -268 l 238 -169 l 244 -168 q 282 -201 264 -190 q 324 -211 300 -211 q 355 -201 343 -211 q 367 -174 367 -192 q 360 -155 367 -162 q 338 -139 353 -147 l 271 -99 l 306 26 l 369 26 l 340 -71 z "},"ḉ":{"ha":535,"x_min":58,"x_max":511,"o":"m 340 647 q 430 637 383 647 q 511 610 476 626 l 492 514 l 479 510 q 336 557 407 557 q 208 494 254 557 q 163 319 163 432 q 210 142 163 207 q 343 78 258 78 q 422 90 381 78 q 499 125 463 103 l 511 118 l 499 25 q 329 -11 414 -11 q 131 76 203 -11 q 58 314 58 163 q 134 558 58 468 q 340 647 210 647 m 340 -71 l 388 -99 q 440 -176 440 -129 q 409 -242 440 -217 q 328 -268 378 -268 q 228 -225 268 -268 l 238 -169 l 244 -168 q 282 -201 264 -190 q 324 -211 300 -211 q 355 -201 343 -211 q 367 -174 367 -192 q 360 -155 367 -162 q 338 -139 353 -147 l 271 -99 l 306 26 l 369 26 l 340 -71 m 467 967 l 508 908 l 506 897 q 269 721 368 790 l 257 722 l 226 767 q 454 968 363 878 l 467 967 z "},"ĉ":{"ha":535,"x_min":58,"x_max":515,"o":"m 340 647 q 430 637 383 647 q 511 610 476 626 l 492 514 l 479 510 q 336 557 407 557 q 208 494 254 557 q 163 319 163 432 q 210 142 163 207 q 343 78 258 78 q 422 90 381 78 q 499 125 463 103 l 511 118 l 499 25 q 329 -11 414 -11 q 131 76 203 -11 q 58 314 58 163 q 134 558 58 468 q 340 647 210 647 m 144 771 q 314 957 224 851 l 347 957 q 515 771 433 850 l 485 726 l 472 726 q 331 871 386 808 q 189 726 278 813 l 175 726 l 144 771 z "},"ċ":{"ha":535,"x_min":58,"x_max":511,"o":"m 340 647 q 430 637 383 647 q 511 610 476 626 l 492 514 l 479 510 q 336 557 407 557 q 208 494 254 557 q 163 319 163 432 q 210 142 163 207 q 343 78 258 78 q 422 90 381 78 q 499 125 463 103 l 511 118 l 499 25 q 329 -11 414 -11 q 131 76 203 -11 q 58 314 58 163 q 134 558 58 468 q 340 647 210 647 m 332 921 q 376 904 360 921 q 393 858 393 888 q 376 810 393 828 q 328 792 358 792 q 283 808 299 792 q 267 856 267 825 q 284 903 267 885 q 332 921 301 921 z "},"d":{"ha":719,"x_min":58,"x_max":690,"o":"m 588 279 l 592 136 q 601 95 593 107 q 632 83 610 83 q 679 92 654 83 l 690 82 l 679 19 q 601 -8 642 -4 q 534 21 558 -4 q 504 89 510 46 l 494 89 q 419 31 453 53 q 343 -7 386 10 q 132 77 206 -7 q 58 317 58 161 q 140 560 58 474 q 367 647 222 647 q 489 633 432 647 l 488 965 l 597 975 l 588 279 m 354 569 q 214 509 265 569 q 163 335 163 449 q 209 151 163 217 q 338 86 256 86 q 413 106 376 86 q 490 171 450 125 l 493 271 l 489 535 q 354 569 415 569 z "},"ð":{"ha":679,"x_min":60,"x_max":617,"o":"m 413 821 q 565 603 513 725 q 617 342 617 482 q 543 81 617 174 q 335 -11 469 -11 q 133 74 207 -11 q 60 311 60 158 q 134 551 60 465 q 342 638 208 638 q 460 617 406 638 q 331 778 411 707 l 161 693 l 150 697 l 128 750 l 272 822 q 96 917 199 874 l 96 931 l 158 981 l 167 981 q 360 867 281 931 l 521 949 l 531 944 l 554 892 l 413 821 m 342 64 q 476 131 432 64 q 521 335 521 199 q 503 500 521 426 q 347 563 436 563 q 205 498 254 563 q 156 311 156 433 q 204 127 156 190 q 342 64 253 64 z "},"ď":{"ha":792,"x_min":58,"x_max":789,"o":"m 588 279 l 592 136 q 601 95 593 107 q 632 83 610 83 q 679 92 654 83 l 690 82 l 679 19 q 601 -8 642 -4 q 534 21 558 -4 q 504 89 510 46 l 494 89 q 419 31 453 53 q 343 -7 386 10 q 132 77 206 -7 q 58 317 58 161 q 140 560 58 474 q 367 647 222 647 q 489 633 432 647 l 488 965 l 597 975 l 588 279 m 789 893 l 757 654 l 704 646 l 694 654 l 701 897 l 781 903 l 789 893 m 354 569 q 214 509 265 569 q 163 335 163 449 q 209 151 163 217 q 338 86 256 86 q 413 106 376 86 q 490 171 450 125 l 493 271 l 489 535 q 354 569 415 569 z "},"đ":{"ha":722,"x_min":58,"x_max":701,"o":"m 594 772 l 588 279 l 592 136 q 601 95 593 107 q 632 83 610 83 q 679 92 654 83 l 690 82 l 679 19 q 601 -8 642 -4 q 534 21 558 -4 q 504 89 510 46 l 494 89 q 419 31 453 53 q 343 -7 386 10 q 132 77 206 -7 q 58 317 58 161 q 140 560 58 474 q 367 647 222 647 q 489 633 432 647 l 489 772 l 314 772 l 306 781 l 313 840 l 488 840 l 488 965 l 597 975 l 596 840 l 692 840 l 701 831 l 694 772 l 594 772 m 493 271 l 489 535 q 354 569 415 569 q 214 509 265 569 q 163 335 163 449 q 209 151 163 217 q 338 86 256 86 q 413 106 376 86 q 490 171 450 125 l 493 271 z "},"ḍ":{"ha":719,"x_min":58,"x_max":690,"o":"m 588 279 l 592 136 q 601 95 593 107 q 632 83 610 83 q 679 92 654 83 l 690 82 l 679 19 q 601 -8 642 -4 q 534 21 558 -4 q 504 89 510 46 l 494 89 q 419 31 453 53 q 343 -7 386 10 q 132 77 206 -7 q 58 317 58 161 q 140 560 58 474 q 367 647 222 647 q 489 633 432 647 l 488 965 l 597 975 l 588 279 m 354 569 q 214 509 265 569 q 163 335 163 449 q 209 151 163 217 q 338 86 256 86 q 413 106 376 86 q 490 171 450 125 l 493 271 l 489 535 q 354 569 415 569 m 363 -97 q 407 -114 390 -97 q 424 -160 424 -131 q 406 -208 424 -190 q 358 -226 389 -226 q 313 -210 329 -226 q 297 -162 297 -193 q 315 -115 297 -133 q 363 -97 332 -97 z "},"ḏ":{"ha":719,"x_min":58,"x_max":690,"o":"m 588 279 l 592 136 q 601 95 593 107 q 632 83 610 83 q 679 92 654 83 l 690 82 l 679 19 q 601 -8 642 -4 q 534 21 558 -4 q 504 89 510 46 l 494 89 q 419 31 453 53 q 343 -7 386 10 q 132 77 206 -7 q 58 317 58 161 q 140 560 58 474 q 367 647 222 647 q 489 633 432 647 l 488 965 l 597 975 l 588 279 m 354 569 q 214 509 265 569 q 163 335 163 449 q 209 151 163 217 q 338 86 256 86 q 413 106 376 86 q 490 171 450 125 l 493 271 l 489 535 q 354 569 415 569 m 533 -157 l 528 -222 l 199 -222 l 190 -212 l 196 -149 l 525 -149 l 533 -157 z "},"ǆ":{"ha":1292,"x_min":58,"x_max":1246,"o":"m 588 279 l 592 136 q 601 95 593 107 q 632 83 610 83 q 679 92 654 83 l 690 82 l 679 19 q 601 -8 642 -4 q 534 21 558 -4 q 504 89 510 46 l 494 89 q 419 31 453 53 q 343 -7 386 10 q 132 77 206 -7 q 58 317 58 161 q 140 560 58 474 q 367 647 222 647 q 489 633 432 647 l 488 965 l 597 975 l 588 279 m 354 569 q 214 509 265 569 q 163 335 163 449 q 209 151 163 217 q 338 86 256 86 q 413 106 376 86 q 490 171 450 125 l 493 271 l 489 535 q 354 569 415 569 m 899 636 l 1183 636 l 1236 638 l 1239 571 l 883 78 l 1135 78 l 1239 88 l 1246 78 l 1236 -3 l 1108 0 l 831 0 l 765 -3 l 765 64 l 1122 560 l 882 560 l 783 549 l 775 558 l 785 639 l 899 636 m 1192 911 q 1022 725 1113 831 l 989 725 q 821 911 903 832 l 851 956 l 864 956 q 1006 811 950 874 q 1147 956 1058 869 l 1161 956 l 1192 911 z "},"e":{"ha":640,"x_min":58,"x_max":579,"o":"m 161 322 l 161 319 q 214 140 161 203 q 364 78 267 78 q 461 94 413 78 q 550 139 510 110 l 561 131 l 544 36 q 350 -11 447 -11 q 136 76 214 -11 q 58 314 58 163 q 136 557 58 467 q 346 647 214 647 q 518 584 457 647 q 579 408 579 521 q 574 338 579 371 l 560 324 l 161 322 m 346 569 q 230 524 276 569 q 168 397 183 479 l 475 403 l 478 422 q 444 531 478 493 q 346 569 410 569 z "},"é":{"ha":640,"x_min":58,"x_max":579,"o":"m 161 322 l 161 319 q 214 140 161 203 q 364 78 267 78 q 461 94 413 78 q 550 139 510 110 l 561 131 l 544 36 q 350 -11 447 -11 q 136 76 214 -11 q 58 314 58 163 q 136 557 58 467 q 346 647 214 647 q 518 584 457 647 q 579 408 579 521 q 574 338 579 371 l 560 324 l 161 322 m 346 569 q 230 524 276 569 q 168 397 183 479 l 475 403 l 478 422 q 444 531 478 493 q 346 569 410 569 m 468 967 l 510 908 l 507 897 q 271 721 369 790 l 258 722 l 228 767 q 456 968 364 878 l 468 967 z "},"ĕ":{"ha":640,"x_min":58,"x_max":579,"o":"m 161 322 l 161 319 q 214 140 161 203 q 364 78 267 78 q 461 94 413 78 q 550 139 510 110 l 561 131 l 544 36 q 350 -11 447 -11 q 136 76 214 -11 q 58 314 58 163 q 136 557 58 467 q 346 647 214 647 q 518 584 457 647 q 579 408 579 521 q 574 338 579 371 l 560 324 l 161 322 m 346 569 q 230 524 276 569 q 168 397 183 479 l 475 403 l 478 422 q 444 531 478 493 q 346 569 410 569 m 508 892 q 329 732 471 732 q 215 774 257 732 q 157 892 172 815 l 188 932 l 204 932 q 332 811 231 811 q 460 932 433 811 l 476 932 l 508 892 z "},"ě":{"ha":640,"x_min":58,"x_max":579,"o":"m 161 322 l 161 319 q 214 140 161 203 q 364 78 267 78 q 461 94 413 78 q 550 139 510 110 l 561 131 l 544 36 q 350 -11 447 -11 q 136 76 214 -11 q 58 314 58 163 q 136 557 58 467 q 346 647 214 647 q 518 584 457 647 q 579 408 579 521 q 574 338 579 371 l 560 324 l 161 322 m 346 569 q 230 524 276 569 q 168 397 183 479 l 475 403 l 478 422 q 444 531 478 493 q 346 569 410 569 m 517 911 q 347 725 438 831 l 314 725 q 146 911 228 832 l 176 956 l 189 956 q 331 811 275 874 q 472 956 383 869 l 486 956 l 517 911 z "},"ḝ":{"ha":640,"x_min":58,"x_max":579,"o":"m 161 322 l 161 319 q 214 140 161 203 q 364 78 267 78 q 461 94 413 78 q 550 139 510 110 l 561 131 l 544 36 q 350 -11 447 -11 q 136 76 214 -11 q 58 314 58 163 q 136 557 58 467 q 346 647 214 647 q 518 584 457 647 q 579 408 579 521 q 574 338 579 371 l 560 324 l 161 322 m 346 569 q 230 524 276 569 q 168 397 183 479 l 475 403 l 478 422 q 444 531 478 493 q 346 569 410 569 m 360 -71 l 407 -99 q 460 -176 460 -129 q 428 -242 460 -217 q 347 -268 397 -268 q 247 -225 288 -268 l 257 -169 l 264 -168 q 301 -201 283 -190 q 343 -211 319 -211 q 374 -201 363 -211 q 386 -174 386 -192 q 379 -155 386 -162 q 357 -139 372 -147 l 290 -99 l 325 26 l 389 26 l 360 -71 m 508 892 q 329 732 471 732 q 215 774 257 732 q 157 892 172 815 l 188 932 l 204 932 q 332 811 231 811 q 460 932 433 811 l 476 932 l 508 892 z "},"ê":{"ha":640,"x_min":58,"x_max":579,"o":"m 161 322 l 161 319 q 214 140 161 203 q 364 78 267 78 q 461 94 413 78 q 550 139 510 110 l 561 131 l 544 36 q 350 -11 447 -11 q 136 76 214 -11 q 58 314 58 163 q 136 557 58 467 q 346 647 214 647 q 518 584 457 647 q 579 408 579 521 q 574 338 579 371 l 560 324 l 161 322 m 346 569 q 230 524 276 569 q 168 397 183 479 l 475 403 l 478 422 q 444 531 478 493 q 346 569 410 569 m 146 771 q 315 957 225 851 l 349 957 q 517 771 435 850 l 486 726 l 474 726 q 332 871 388 808 q 190 726 279 813 l 176 726 l 146 771 z "},"ế":{"ha":640,"x_min":58,"x_max":579,"o":"m 161 322 l 161 319 q 214 140 161 203 q 364 78 267 78 q 461 94 413 78 q 550 139 510 110 l 561 131 l 544 36 q 350 -11 447 -11 q 136 76 214 -11 q 58 314 58 163 q 136 557 58 467 q 346 647 214 647 q 518 584 457 647 q 579 408 579 521 q 574 338 579 371 l 560 324 l 161 322 m 346 569 q 230 524 276 569 q 168 397 183 479 l 475 403 l 478 422 q 444 531 478 493 q 346 569 410 569 m 557 1029 l 560 1018 l 456 894 l 444 894 l 404 925 l 493 1056 l 504 1058 l 557 1029 m 153 785 q 314 911 254 856 l 344 911 q 507 785 417 849 l 486 738 l 472 738 q 331 831 382 794 q 188 738 271 789 l 175 738 l 153 785 z "},"ệ":{"ha":640,"x_min":58,"x_max":579,"o":"m 161 322 l 161 319 q 214 140 161 203 q 364 78 267 78 q 461 94 413 78 q 550 139 510 110 l 561 131 l 544 36 q 350 -11 447 -11 q 136 76 214 -11 q 58 314 58 163 q 136 557 58 467 q 346 647 214 647 q 518 584 457 647 q 579 408 579 521 q 574 338 579 371 l 560 324 l 161 322 m 346 569 q 230 524 276 569 q 168 397 183 479 l 475 403 l 478 422 q 444 531 478 493 q 346 569 410 569 m 347 -97 q 392 -114 375 -97 q 408 -160 408 -131 q 391 -208 408 -190 q 343 -226 374 -226 q 298 -210 314 -226 q 282 -162 282 -193 q 299 -115 282 -133 q 347 -97 317 -97 m 146 771 q 315 957 225 851 l 349 957 q 517 771 435 850 l 486 726 l 474 726 q 332 871 388 808 q 190 726 279 813 l 176 726 l 146 771 z "},"ề":{"ha":640,"x_min":58,"x_max":579,"o":"m 161 322 l 161 319 q 214 140 161 203 q 364 78 267 78 q 461 94 413 78 q 550 139 510 110 l 561 131 l 544 36 q 350 -11 447 -11 q 136 76 214 -11 q 58 314 58 163 q 136 557 58 467 q 346 647 214 647 q 518 584 457 647 q 579 408 579 521 q 574 338 579 371 l 560 324 l 161 322 m 346 569 q 230 524 276 569 q 168 397 183 479 l 475 403 l 478 422 q 444 531 478 493 q 346 569 410 569 m 367 1018 l 368 1029 l 421 1058 l 432 1056 l 522 925 l 482 894 l 471 894 l 367 1018 m 153 785 q 314 911 254 856 l 344 911 q 507 785 417 849 l 486 738 l 472 738 q 331 831 382 794 q 188 738 271 789 l 175 738 l 153 785 z "},"ể":{"ha":640,"x_min":58,"x_max":579,"o":"m 161 322 l 161 319 q 214 140 161 203 q 364 78 267 78 q 461 94 413 78 q 550 139 510 110 l 561 131 l 544 36 q 350 -11 447 -11 q 136 76 214 -11 q 58 314 58 163 q 136 557 58 467 q 346 647 214 647 q 518 584 457 647 q 579 408 579 521 q 574 338 579 371 l 560 324 l 161 322 m 346 569 q 230 524 276 569 q 168 397 183 479 l 475 403 l 478 422 q 444 531 478 493 q 346 569 410 569 m 153 813 q 314 939 254 883 l 344 939 q 507 813 417 876 l 486 765 l 472 765 q 331 857 385 819 q 188 765 294 832 l 175 765 l 153 813 m 440 976 q 492 1022 473 999 q 510 1065 510 1046 q 500 1085 510 1078 q 473 1092 489 1092 q 434 1085 455 1092 q 393 1061 412 1077 l 371 1096 q 428 1137 398 1123 q 489 1152 459 1152 q 553 1130 528 1152 q 578 1075 578 1108 q 562 1028 578 1051 q 508 975 546 1005 l 534 929 l 487 902 l 440 976 z "},"ễ":{"ha":640,"x_min":58,"x_max":579,"o":"m 161 322 l 161 319 q 214 140 161 203 q 364 78 267 78 q 461 94 413 78 q 550 139 510 110 l 561 131 l 544 36 q 350 -11 447 -11 q 136 76 214 -11 q 58 314 58 163 q 136 557 58 467 q 346 647 214 647 q 518 584 457 647 q 579 408 579 521 q 574 338 579 371 l 560 324 l 161 322 m 346 569 q 230 524 276 569 q 168 397 183 479 l 475 403 l 478 422 q 444 531 478 493 q 346 569 410 569 m 154 813 q 315 939 256 883 l 346 939 q 508 813 418 876 l 488 765 l 474 765 q 332 857 386 819 q 189 765 296 832 l 176 765 l 154 813 m 549 1092 l 549 1081 l 463 985 l 450 981 q 335 1010 424 983 q 235 1033 256 1033 q 214 1024 225 1033 q 179 992 203 1015 l 157 968 l 144 968 l 113 1004 l 113 1014 l 199 1110 l 211 1114 q 324 1086 242 1111 q 426 1063 406 1063 q 447 1071 436 1063 q 479 1101 457 1079 l 504 1126 l 515 1126 l 549 1092 z "},"ȅ":{"ha":640,"x_min":58,"x_max":579,"o":"m 161 322 l 161 319 q 214 140 161 203 q 364 78 267 78 q 461 94 413 78 q 550 139 510 110 l 561 131 l 544 36 q 350 -11 447 -11 q 136 76 214 -11 q 58 314 58 163 q 136 557 58 467 q 346 647 214 647 q 518 584 457 647 q 579 408 579 521 q 574 338 579 371 l 560 324 l 161 322 m 346 569 q 230 524 276 569 q 168 397 183 479 l 475 403 l 478 422 q 444 531 478 493 q 346 569 410 569 m 333 754 q 147 968 257 836 l 136 969 l 85 932 l 85 921 q 286 722 161 839 l 296 721 l 333 754 m 531 754 q 343 968 454 835 l 332 969 l 281 932 l 281 921 q 481 722 368 829 l 493 721 l 531 754 z "},"ë":{"ha":640,"x_min":58,"x_max":579,"o":"m 161 322 l 161 319 q 214 140 161 203 q 364 78 267 78 q 461 94 413 78 q 550 139 510 110 l 561 131 l 544 36 q 350 -11 447 -11 q 136 76 214 -11 q 58 314 58 163 q 136 557 58 467 q 346 647 214 647 q 518 584 457 647 q 579 408 579 521 q 574 338 579 371 l 560 324 l 161 322 m 346 569 q 230 524 276 569 q 168 397 183 479 l 475 403 l 478 422 q 444 531 478 493 q 346 569 410 569 m 225 904 q 267 889 251 904 q 283 846 283 874 q 267 799 283 817 q 222 781 250 781 q 178 797 193 781 q 163 842 163 813 q 179 887 163 869 q 225 904 196 904 m 443 904 q 486 889 471 904 q 501 846 501 874 q 485 799 501 817 q 440 781 468 781 q 397 797 413 781 q 381 842 381 814 q 397 887 381 869 q 443 904 414 904 z "},"ė":{"ha":640,"x_min":58,"x_max":579,"o":"m 161 322 l 161 319 q 214 140 161 203 q 364 78 267 78 q 461 94 413 78 q 550 139 510 110 l 561 131 l 544 36 q 350 -11 447 -11 q 136 76 214 -11 q 58 314 58 163 q 136 557 58 467 q 346 647 214 647 q 518 584 457 647 q 579 408 579 521 q 574 338 579 371 l 560 324 l 161 322 m 346 569 q 230 524 276 569 q 168 397 183 479 l 475 403 l 478 422 q 444 531 478 493 q 346 569 410 569 m 333 921 q 378 904 361 921 q 394 858 394 888 q 377 810 394 828 q 329 792 360 792 q 284 808 300 792 q 268 856 268 825 q 285 903 268 885 q 333 921 303 921 z "},"ẹ":{"ha":640,"x_min":58,"x_max":579,"o":"m 161 322 l 161 319 q 214 140 161 203 q 364 78 267 78 q 461 94 413 78 q 550 139 510 110 l 561 131 l 544 36 q 350 -11 447 -11 q 136 76 214 -11 q 58 314 58 163 q 136 557 58 467 q 346 647 214 647 q 518 584 457 647 q 579 408 579 521 q 574 338 579 371 l 560 324 l 161 322 m 346 569 q 230 524 276 569 q 168 397 183 479 l 475 403 l 478 422 q 444 531 478 493 q 346 569 410 569 m 347 -97 q 392 -114 375 -97 q 408 -160 408 -131 q 391 -208 408 -190 q 343 -226 374 -226 q 298 -210 314 -226 q 282 -162 282 -193 q 299 -115 282 -133 q 347 -97 317 -97 z "},"è":{"ha":640,"x_min":58,"x_max":579,"o":"m 161 322 l 161 319 q 214 140 161 203 q 364 78 267 78 q 461 94 413 78 q 550 139 510 110 l 561 131 l 544 36 q 350 -11 447 -11 q 136 76 214 -11 q 58 314 58 163 q 136 557 58 467 q 346 647 214 647 q 518 584 457 647 q 579 408 579 521 q 574 338 579 371 l 560 324 l 161 322 m 346 569 q 230 524 276 569 q 168 397 183 479 l 475 403 l 478 422 q 444 531 478 493 q 346 569 410 569 m 243 968 q 471 767 346 869 l 440 722 l 428 721 q 192 897 329 790 l 189 908 l 231 967 l 243 968 z "},"ẻ":{"ha":640,"x_min":58,"x_max":579,"o":"m 161 322 l 161 319 q 214 140 161 203 q 364 78 267 78 q 461 94 413 78 q 550 139 510 110 l 561 131 l 544 36 q 350 -11 447 -11 q 136 76 214 -11 q 58 314 58 163 q 136 557 58 467 q 346 647 214 647 q 518 584 457 647 q 579 408 579 521 q 574 338 579 371 l 560 324 l 161 322 m 346 569 q 230 524 276 569 q 168 397 183 479 l 475 403 l 478 422 q 444 531 478 493 q 346 569 410 569 m 290 786 q 344 835 325 810 q 364 879 364 860 q 353 901 364 893 q 325 908 342 908 q 283 900 306 908 q 240 875 261 892 l 218 913 q 278 956 246 940 q 342 971 310 971 q 408 948 382 971 q 435 890 435 925 q 418 841 435 865 q 361 785 401 817 l 389 736 l 339 708 l 290 786 z "},"ȇ":{"ha":640,"x_min":58,"x_max":579,"o":"m 161 322 l 161 319 q 214 140 161 203 q 364 78 267 78 q 461 94 413 78 q 550 139 510 110 l 561 131 l 544 36 q 350 -11 447 -11 q 136 76 214 -11 q 58 314 58 163 q 136 557 58 467 q 346 647 214 647 q 518 584 457 647 q 579 408 579 521 q 574 338 579 371 l 560 324 l 161 322 m 346 569 q 230 524 276 569 q 168 397 183 479 l 475 403 l 478 422 q 444 531 478 493 q 346 569 410 569 m 153 789 q 332 949 190 949 q 447 907 404 949 q 504 789 489 865 l 474 749 l 457 749 q 329 869 431 869 q 201 749 228 869 l 185 749 l 153 789 z "},"ē":{"ha":640,"x_min":58,"x_max":579,"o":"m 161 322 l 161 319 q 214 140 161 203 q 364 78 267 78 q 461 94 413 78 q 550 139 510 110 l 561 131 l 544 36 q 350 -11 447 -11 q 136 76 214 -11 q 58 314 58 163 q 136 557 58 467 q 346 647 214 647 q 518 584 457 647 q 579 408 579 521 q 574 338 579 371 l 560 324 l 161 322 m 346 569 q 230 524 276 569 q 168 397 183 479 l 475 403 l 478 422 q 444 531 478 493 q 346 569 410 569 m 535 874 l 528 808 l 135 808 l 126 817 l 132 881 l 525 881 l 535 874 z "},"ḗ":{"ha":640,"x_min":58,"x_max":579,"o":"m 161 322 l 161 319 q 214 140 161 203 q 364 78 267 78 q 461 94 413 78 q 550 139 510 110 l 561 131 l 544 36 q 350 -11 447 -11 q 136 76 214 -11 q 58 314 58 163 q 136 557 58 467 q 346 647 214 647 q 518 584 457 647 q 579 408 579 521 q 574 338 579 371 l 560 324 l 161 322 m 346 569 q 230 524 276 569 q 168 397 183 479 l 475 403 l 478 422 q 444 531 478 493 q 346 569 410 569 m 471 1068 l 489 999 l 482 986 q 194 918 375 958 l 182 925 l 172 978 q 460 1072 319 1021 l 471 1068 m 488 836 l 482 771 l 181 771 l 174 781 l 179 844 l 481 844 l 488 836 z "},"ḕ":{"ha":640,"x_min":58,"x_max":579,"o":"m 161 322 l 161 319 q 214 140 161 203 q 364 78 267 78 q 461 94 413 78 q 550 139 510 110 l 561 131 l 544 36 q 350 -11 447 -11 q 136 76 214 -11 q 58 314 58 163 q 136 557 58 467 q 346 647 214 647 q 518 584 457 647 q 579 408 579 521 q 574 338 579 371 l 560 324 l 161 322 m 346 569 q 230 524 276 569 q 168 397 183 479 l 475 403 l 478 422 q 444 531 478 493 q 346 569 410 569 m 467 918 q 179 986 286 958 l 172 999 l 190 1068 l 201 1072 q 490 978 335 1024 l 479 925 l 467 918 m 488 836 l 482 771 l 181 771 l 174 781 l 179 844 l 481 844 l 488 836 z "},"ę":{"ha":640,"x_min":58,"x_max":579,"o":"m 161 322 l 161 319 q 214 140 161 203 q 364 78 267 78 q 461 94 413 78 q 550 139 510 110 l 561 131 l 544 36 q 350 -11 447 -11 q 136 76 214 -11 q 58 314 58 163 q 136 557 58 467 q 346 647 214 647 q 518 584 457 647 q 579 408 579 521 q 574 338 579 371 l 560 324 l 161 322 m 346 569 q 230 524 276 569 q 168 397 183 479 l 475 403 l 478 422 q 444 531 478 493 q 346 569 410 569 m 439 -278 q 354 -251 386 -278 q 322 -176 322 -224 q 351 -92 322 -135 q 472 36 381 -49 l 544 36 q 425 -103 450 -69 q 400 -160 400 -136 q 450 -204 400 -204 q 553 -150 496 -204 l 560 -151 l 579 -210 q 439 -278 514 -278 z "},"ẽ":{"ha":640,"x_min":58,"x_max":579,"o":"m 161 322 l 161 319 q 214 140 161 203 q 364 78 267 78 q 461 94 413 78 q 550 139 510 110 l 561 131 l 544 36 q 350 -11 447 -11 q 136 76 214 -11 q 58 314 58 163 q 136 557 58 467 q 346 647 214 647 q 518 584 457 647 q 579 408 579 521 q 574 338 579 371 l 560 324 l 161 322 m 346 569 q 230 524 276 569 q 168 397 183 479 l 475 403 l 478 422 q 444 531 478 493 q 346 569 410 569 m 549 892 l 549 881 l 464 785 l 450 781 q 333 808 419 783 q 235 832 254 832 q 214 823 225 832 q 179 790 203 814 l 157 767 l 144 767 l 111 803 l 111 813 l 196 908 l 210 913 q 325 885 243 910 q 372 872 335 882 q 425 863 410 863 q 449 872 436 863 q 481 903 461 882 l 504 926 l 515 926 l 549 892 z "},"ə":{"ha":640,"x_min":61,"x_max":582,"o":"m 290 647 q 504 560 426 647 q 582 322 582 474 q 504 79 582 169 q 294 -11 426 -11 q 122 52 183 -11 q 61 228 61 115 q 67 299 61 265 l 81 313 l 479 314 l 479 317 q 426 496 479 433 q 276 558 374 558 q 179 542 228 558 q 90 497 131 526 l 79 506 l 96 600 q 290 647 193 647 m 294 67 q 410 112 364 67 q 472 239 457 157 l 165 233 l 163 214 q 197 105 163 143 q 294 67 231 67 z "},"f":{"ha":421,"x_min":50,"x_max":486,"o":"m 378 978 q 486 965 428 978 l 478 879 l 469 872 q 368 897 419 897 q 285 863 314 897 q 254 763 256 829 l 253 635 l 419 635 l 424 626 l 417 561 l 251 561 l 249 279 l 256 0 l 146 0 l 154 271 l 151 561 l 56 561 l 50 569 l 57 635 l 151 635 l 150 746 q 208 918 149 858 q 378 978 268 978 z "},"g":{"ha":676,"x_min":76,"x_max":674,"o":"m 674 582 q 546 553 631 569 l 543 547 q 574 429 574 499 q 506 268 574 328 q 324 208 439 208 q 238 219 278 208 q 206 190 214 201 q 197 165 197 179 q 233 124 197 136 q 351 100 269 113 q 483 75 432 89 q 572 30 535 61 q 610 -57 610 -1 q 570 -164 610 -115 q 462 -240 531 -212 q 311 -268 393 -268 q 138 -217 200 -268 q 76 -86 76 -167 q 199 35 110 -19 l 199 42 q 122 83 149 57 q 94 153 94 108 q 179 238 124 201 l 179 243 q 112 316 135 271 q 89 421 89 361 q 156 584 89 525 q 336 643 224 643 q 461 618 410 643 q 663 665 557 636 l 674 657 l 674 582 m 329 283 q 437 322 399 283 q 475 431 475 361 q 439 533 475 497 q 335 569 403 569 q 226 532 265 569 q 188 425 188 494 q 224 321 188 358 q 329 283 261 283 m 513 -78 q 466 -14 513 -32 q 325 18 419 4 l 281 25 q 201 -36 228 -7 q 174 -97 174 -65 q 213 -164 174 -137 q 324 -190 253 -190 q 458 -158 404 -190 q 513 -78 513 -125 z "},"ğ":{"ha":676,"x_min":76,"x_max":674,"o":"m 674 582 q 546 553 631 569 l 543 547 q 574 429 574 499 q 506 268 574 328 q 324 208 439 208 q 238 219 278 208 q 206 190 214 201 q 197 165 197 179 q 233 124 197 136 q 351 100 269 113 q 483 75 432 89 q 572 30 535 61 q 610 -57 610 -1 q 570 -164 610 -115 q 462 -240 531 -212 q 311 -268 393 -268 q 138 -217 200 -268 q 76 -86 76 -167 q 199 35 110 -19 l 199 42 q 122 83 149 57 q 94 153 94 108 q 179 238 124 201 l 179 243 q 112 316 135 271 q 89 421 89 361 q 156 584 89 525 q 336 643 224 643 q 461 618 410 643 q 663 665 557 636 l 674 657 l 674 582 m 329 283 q 437 322 399 283 q 475 431 475 361 q 439 533 475 497 q 335 569 403 569 q 226 532 265 569 q 188 425 188 494 q 224 321 188 358 q 329 283 261 283 m 513 -78 q 466 -14 513 -32 q 325 18 419 4 l 281 25 q 201 -36 228 -7 q 174 -97 174 -65 q 213 -164 174 -137 q 324 -190 253 -190 q 458 -158 404 -190 q 513 -78 513 -125 m 518 878 q 339 718 481 718 q 224 760 267 718 q 167 878 182 801 l 197 918 l 214 918 q 342 797 240 797 q 469 918 443 797 l 486 918 l 518 878 z "},"ǧ":{"ha":676,"x_min":76,"x_max":674,"o":"m 674 582 q 546 553 631 569 l 543 547 q 574 429 574 499 q 506 268 574 328 q 324 208 439 208 q 238 219 278 208 q 206 190 214 201 q 197 165 197 179 q 233 124 197 136 q 351 100 269 113 q 483 75 432 89 q 572 30 535 61 q 610 -57 610 -1 q 570 -164 610 -115 q 462 -240 531 -212 q 311 -268 393 -268 q 138 -217 200 -268 q 76 -86 76 -167 q 199 35 110 -19 l 199 42 q 122 83 149 57 q 94 153 94 108 q 179 238 124 201 l 179 243 q 112 316 135 271 q 89 421 89 361 q 156 584 89 525 q 336 643 224 643 q 461 618 410 643 q 663 665 557 636 l 674 657 l 674 582 m 329 283 q 437 322 399 283 q 475 431 475 361 q 439 533 475 497 q 335 569 403 569 q 226 532 265 569 q 188 425 188 494 q 224 321 188 358 q 329 283 261 283 m 513 -78 q 466 -14 513 -32 q 325 18 419 4 l 281 25 q 201 -36 228 -7 q 174 -97 174 -65 q 213 -164 174 -137 q 324 -190 253 -190 q 458 -158 404 -190 q 513 -78 513 -125 m 526 897 q 357 711 447 817 l 324 711 q 156 897 238 818 l 186 942 l 199 942 q 340 797 285 860 q 482 942 393 856 l 496 942 l 526 897 z "},"ĝ":{"ha":676,"x_min":76,"x_max":674,"o":"m 674 582 q 546 553 631 569 l 543 547 q 574 429 574 499 q 506 268 574 328 q 324 208 439 208 q 238 219 278 208 q 206 190 214 201 q 197 165 197 179 q 233 124 197 136 q 351 100 269 113 q 483 75 432 89 q 572 30 535 61 q 610 -57 610 -1 q 570 -164 610 -115 q 462 -240 531 -212 q 311 -268 393 -268 q 138 -217 200 -268 q 76 -86 76 -167 q 199 35 110 -19 l 199 42 q 122 83 149 57 q 94 153 94 108 q 179 238 124 201 l 179 243 q 112 316 135 271 q 89 421 89 361 q 156 584 89 525 q 336 643 224 643 q 461 618 410 643 q 663 665 557 636 l 674 657 l 674 582 m 329 283 q 437 322 399 283 q 475 431 475 361 q 439 533 475 497 q 335 569 403 569 q 226 532 265 569 q 188 425 188 494 q 224 321 188 358 q 329 283 261 283 m 513 -78 q 466 -14 513 -32 q 325 18 419 4 l 281 25 q 201 -36 228 -7 q 174 -97 174 -65 q 213 -164 174 -137 q 324 -190 253 -190 q 458 -158 404 -190 q 513 -78 513 -125 m 156 757 q 325 943 235 838 l 358 943 q 526 757 444 836 l 496 713 l 483 713 q 342 857 397 794 q 200 713 289 799 l 186 713 l 156 757 z "},"ģ":{"ha":676,"x_min":76,"x_max":674,"o":"m 338 721 q 268 818 268 747 q 363 992 268 899 l 401 964 l 403 954 q 349 846 349 899 q 399 775 349 794 l 399 764 q 338 721 374 742 m 674 582 q 546 553 631 569 l 543 547 q 574 429 574 499 q 506 268 574 328 q 324 208 439 208 q 238 219 278 208 q 206 190 214 201 q 197 165 197 179 q 233 124 197 136 q 351 100 269 113 q 483 75 432 89 q 572 30 535 61 q 610 -57 610 -1 q 570 -164 610 -115 q 462 -240 531 -212 q 311 -268 393 -268 q 138 -217 200 -268 q 76 -86 76 -167 q 199 35 110 -19 l 199 42 q 122 83 149 57 q 94 153 94 108 q 179 238 124 201 l 179 243 q 112 316 135 271 q 89 421 89 361 q 156 584 89 525 q 336 643 224 643 q 461 618 410 643 q 663 665 557 636 l 674 657 l 674 582 m 329 283 q 437 322 399 283 q 475 431 475 361 q 439 533 475 497 q 335 569 403 569 q 226 532 265 569 q 188 425 188 494 q 224 321 188 358 q 329 283 261 283 m 513 -78 q 466 -14 513 -32 q 325 18 419 4 l 281 25 q 201 -36 228 -7 q 174 -97 174 -65 q 213 -164 174 -137 q 324 -190 253 -190 q 458 -158 404 -190 q 513 -78 513 -125 z "},"ġ":{"ha":676,"x_min":76,"x_max":674,"o":"m 674 582 q 546 553 631 569 l 543 547 q 574 429 574 499 q 506 268 574 328 q 324 208 439 208 q 238 219 278 208 q 206 190 214 201 q 197 165 197 179 q 233 124 197 136 q 351 100 269 113 q 483 75 432 89 q 572 30 535 61 q 610 -57 610 -1 q 570 -164 610 -115 q 462 -240 531 -212 q 311 -268 393 -268 q 138 -217 200 -268 q 76 -86 76 -167 q 199 35 110 -19 l 199 42 q 122 83 149 57 q 94 153 94 108 q 179 238 124 201 l 179 243 q 112 316 135 271 q 89 421 89 361 q 156 584 89 525 q 336 643 224 643 q 461 618 410 643 q 663 665 557 636 l 674 657 l 674 582 m 329 283 q 437 322 399 283 q 475 431 475 361 q 439 533 475 497 q 335 569 403 569 q 226 532 265 569 q 188 425 188 494 q 224 321 188 358 q 329 283 261 283 m 513 -78 q 466 -14 513 -32 q 325 18 419 4 l 281 25 q 201 -36 228 -7 q 174 -97 174 -65 q 213 -164 174 -137 q 324 -190 253 -190 q 458 -158 404 -190 q 513 -78 513 -125 m 343 907 q 388 890 371 907 q 404 844 404 874 q 387 796 404 814 q 339 778 369 778 q 294 794 310 778 q 278 842 278 811 q 295 889 278 871 q 343 907 313 907 z "},"ḡ":{"ha":676,"x_min":76,"x_max":674,"o":"m 674 582 q 546 553 631 569 l 543 547 q 574 429 574 499 q 506 268 574 328 q 324 208 439 208 q 238 219 278 208 q 206 190 214 201 q 197 165 197 179 q 233 124 197 136 q 351 100 269 113 q 483 75 432 89 q 572 30 535 61 q 610 -57 610 -1 q 570 -164 610 -115 q 462 -240 531 -212 q 311 -268 393 -268 q 138 -217 200 -268 q 76 -86 76 -167 q 199 35 110 -19 l 199 42 q 122 83 149 57 q 94 153 94 108 q 179 238 124 201 l 179 243 q 112 316 135 271 q 89 421 89 361 q 156 584 89 525 q 336 643 224 643 q 461 618 410 643 q 663 665 557 636 l 674 657 l 674 582 m 329 283 q 437 322 399 283 q 475 431 475 361 q 439 533 475 497 q 335 569 403 569 q 226 532 265 569 q 188 425 188 494 q 224 321 188 358 q 329 283 261 283 m 513 -78 q 466 -14 513 -32 q 325 18 419 4 l 281 25 q 201 -36 228 -7 q 174 -97 174 -65 q 213 -164 174 -137 q 324 -190 253 -190 q 458 -158 404 -190 q 513 -78 513 -125 m 544 860 l 538 794 l 144 794 l 136 803 l 142 867 l 535 867 l 544 860 z "},"h":{"ha":722,"x_min":117,"x_max":622,"o":"m 518 432 q 492 521 519 489 q 410 553 464 553 q 222 454 318 553 l 219 279 l 226 0 l 117 0 l 125 271 l 118 965 l 228 975 l 222 546 l 231 546 q 407 644 317 622 q 567 596 513 644 q 619 457 621 547 l 617 276 l 622 0 l 511 0 l 518 432 z "},"ħ":{"ha":714,"x_min":10,"x_max":615,"o":"m 513 432 q 485 521 514 489 q 403 553 457 553 q 215 453 311 553 l 213 279 l 221 0 l 110 0 l 118 271 l 114 751 l 19 751 l 10 760 l 15 817 l 113 817 l 111 965 l 222 975 l 219 817 l 417 817 l 424 807 l 419 751 l 219 751 l 217 546 l 225 546 q 401 644 308 621 q 560 596 506 644 q 613 457 614 547 l 611 276 l 615 0 l 504 0 l 513 432 z "},"ḫ":{"ha":722,"x_min":117,"x_max":622,"o":"m 518 432 q 492 521 519 489 q 410 553 464 553 q 222 454 318 553 l 219 279 l 226 0 l 117 0 l 125 271 l 118 965 l 228 975 l 222 546 l 231 546 q 407 644 317 622 q 567 596 513 644 q 619 457 621 547 l 617 276 l 622 0 l 511 0 l 518 432 m 538 -119 q 358 -279 500 -279 q 244 -237 286 -279 q 186 -119 201 -196 l 217 -79 l 233 -79 q 361 -200 260 -200 q 489 -79 463 -200 l 506 -79 l 538 -119 z "},"ĥ":{"ha":722,"x_min":-7,"x_max":622,"o":"m 518 432 q 492 521 519 489 q 410 553 464 553 q 222 454 318 553 l 219 279 l 226 0 l 117 0 l 125 271 l 118 965 l 228 975 l 222 546 l 231 546 q 407 644 317 622 q 567 596 513 644 q 619 457 621 547 l 617 276 l 622 0 l 511 0 l 518 432 m -7 1074 q 154 1200 94 1144 l 185 1200 q 347 1074 257 1138 l 326 1026 l 313 1026 q 171 1118 225 1081 q 28 1026 135 1093 l 15 1026 l -7 1074 z "},"ḥ":{"ha":722,"x_min":117,"x_max":622,"o":"m 518 432 q 492 521 519 489 q 410 553 464 553 q 222 454 318 553 l 219 279 l 226 0 l 117 0 l 125 271 l 118 965 l 228 975 l 222 546 l 231 546 q 407 644 317 622 q 567 596 513 644 q 619 457 621 547 l 617 276 l 622 0 l 511 0 l 518 432 m 363 -97 q 407 -114 390 -97 q 424 -160 424 -131 q 406 -208 424 -190 q 358 -226 389 -226 q 313 -210 329 -226 q 297 -162 297 -193 q 315 -115 297 -133 q 363 -97 332 -97 z "},"i":{"ha":336,"x_min":104,"x_max":231,"o":"m 118 269 l 114 629 l 221 639 l 218 279 l 221 0 l 113 0 l 118 269 m 169 921 q 214 904 197 921 q 231 858 231 888 q 213 810 231 828 q 165 792 196 792 q 120 808 136 792 q 104 856 104 825 q 122 903 104 885 q 169 921 139 921 z "},"ı":{"ha":336,"x_min":113,"x_max":221,"o":"m 118 269 l 114 629 l 221 639 l 218 279 l 221 0 l 113 0 l 118 269 z "},"í":{"ha":336,"x_min":64,"x_max":346,"o":"m 118 269 l 114 629 l 221 639 l 218 279 l 221 0 l 113 0 l 118 269 m 304 967 l 346 908 l 343 897 q 107 721 206 790 l 94 722 l 64 767 q 292 968 200 878 l 304 967 z "},"ĭ":{"ha":336,"x_min":-7,"x_max":344,"o":"m 118 269 l 114 629 l 221 639 l 218 279 l 221 0 l 113 0 l 118 269 m 344 892 q 165 732 307 732 q 51 774 93 732 q -7 892 8 815 l 24 932 l 40 932 q 168 811 67 811 q 296 932 269 811 l 313 932 l 344 892 z "},"ǐ":{"ha":336,"x_min":-18,"x_max":353,"o":"m 118 269 l 114 629 l 221 639 l 218 279 l 221 0 l 113 0 l 118 269 m 353 911 q 183 725 274 831 l 150 725 q -18 911 64 832 l 13 956 l 25 956 q 167 811 111 874 q 308 956 219 869 l 322 956 l 353 911 z "},"î":{"ha":336,"x_min":-18,"x_max":353,"o":"m 118 269 l 114 629 l 221 639 l 218 279 l 221 0 l 113 0 l 118 269 m -18 771 q 151 957 61 851 l 185 957 q 353 771 271 850 l 322 726 l 310 726 q 168 871 224 808 q 26 726 115 813 l 13 726 l -18 771 z "},"ȉ":{"ha":336,"x_min":-79,"x_max":367,"o":"m 118 269 l 114 629 l 221 639 l 218 279 l 221 0 l 113 0 l 118 269 m 169 754 q -17 968 93 836 l -28 969 l -79 932 l -79 921 q 122 722 -3 839 l 132 721 l 169 754 m 367 754 q 179 968 290 835 l 168 969 l 117 932 l 117 921 q 317 722 204 829 l 329 721 l 367 754 z "},"ï":{"ha":336,"x_min":32,"x_max":303,"o":"m 118 269 l 114 629 l 221 639 l 218 279 l 221 0 l 113 0 l 118 269 m 94 904 q 136 888 121 904 q 151 846 151 872 q 135 798 151 815 q 90 781 118 781 q 47 797 63 781 q 32 842 32 813 q 49 887 32 869 q 94 904 65 904 m 246 904 q 288 888 272 904 q 303 846 303 872 q 287 798 303 815 q 243 781 271 781 q 199 797 214 781 q 183 842 183 813 q 200 887 183 869 q 246 904 217 904 z "},"ḯ":{"ha":336,"x_min":-3,"x_max":331,"o":"m 118 269 l 114 629 l 221 639 l 218 279 l 221 0 l 113 0 l 118 269 m 306 1085 l 322 1017 l 315 1006 q 29 936 169 967 l 17 943 l 6 997 q 294 1092 150 1038 l 306 1085 m 57 874 q 98 858 83 874 q 113 817 113 843 q 97 773 113 789 q 54 757 81 757 q 12 772 26 757 q -3 814 -3 788 q 13 858 -3 842 q 57 874 29 874 m 275 874 q 316 858 301 874 q 331 817 331 843 q 315 773 331 789 q 272 757 299 757 q 231 772 246 757 q 217 814 217 788 q 233 858 217 842 q 275 874 249 874 z "},"ị":{"ha":336,"x_min":103,"x_max":231,"o":"m 118 269 l 114 629 l 221 639 l 218 279 l 221 0 l 113 0 l 118 269 m 169 921 q 214 904 197 921 q 231 858 231 888 q 213 810 231 828 q 165 792 196 792 q 120 808 136 792 q 104 856 104 825 q 122 903 104 885 q 169 921 139 921 m 168 -97 q 213 -114 196 -97 q 229 -160 229 -131 q 212 -208 229 -190 q 164 -226 194 -226 q 119 -210 135 -226 q 103 -162 103 -193 q 120 -115 103 -133 q 168 -97 138 -97 z "},"ì":{"ha":336,"x_min":25,"x_max":307,"o":"m 118 269 l 114 629 l 221 639 l 218 279 l 221 0 l 113 0 l 118 269 m 79 968 q 307 767 182 869 l 276 722 l 264 721 q 28 897 165 790 l 25 908 l 67 967 l 79 968 z "},"ỉ":{"ha":336,"x_min":54,"x_max":271,"o":"m 118 269 l 114 629 l 221 639 l 218 279 l 221 0 l 113 0 l 118 269 m 126 786 q 181 835 161 810 q 200 879 200 860 q 189 901 200 893 q 161 908 178 908 q 119 900 142 908 q 76 875 97 892 l 54 913 q 114 956 82 940 q 178 971 146 971 q 244 948 218 971 q 271 890 271 925 q 254 841 271 865 q 197 785 238 817 l 225 736 l 175 708 l 126 786 z "},"ȋ":{"ha":336,"x_min":-11,"x_max":340,"o":"m 118 269 l 114 629 l 221 639 l 218 279 l 221 0 l 113 0 l 118 269 m -11 789 q 168 949 26 949 q 283 907 240 949 q 340 789 325 865 l 310 749 l 293 749 q 165 869 267 869 q 38 749 64 869 l 21 749 l -11 789 z "},"ĳ":{"ha":704,"x_min":104,"x_max":589,"o":"m 118 269 l 114 629 l 221 639 l 218 279 l 221 0 l 113 0 l 118 269 m 169 921 q 214 904 197 921 q 231 858 231 888 q 213 810 231 828 q 165 792 196 792 q 120 808 136 792 q 104 856 104 825 q 122 903 104 885 q 169 921 139 921 m 589 636 l 579 279 l 586 26 q 542 -148 586 -82 q 393 -269 499 -214 l 351 -219 l 351 -207 q 453 -114 425 -164 q 482 21 482 -64 l 485 269 l 479 561 l 351 561 l 343 571 l 350 635 l 481 635 l 585 639 l 589 636 m 514 921 q 558 904 542 921 q 575 858 575 888 q 558 810 575 828 q 510 792 540 792 q 465 808 481 792 q 449 856 449 825 q 466 903 449 885 q 514 921 483 921 z "},"ī":{"ha":336,"x_min":10,"x_max":324,"o":"m 118 269 l 114 629 l 221 639 l 218 279 l 221 0 l 113 0 l 118 269 m 324 874 l 318 808 l 17 808 l 10 817 l 15 881 l 317 881 l 324 874 z "},"į":{"ha":336,"x_min":25,"x_max":239,"o":"m 118 269 l 114 629 l 221 639 l 218 279 l 221 0 l 113 0 l 118 269 m 169 921 q 214 904 197 921 q 231 858 231 888 q 213 810 231 828 q 165 792 196 792 q 120 808 136 792 q 104 856 104 825 q 122 903 104 885 q 169 921 139 921 m 221 0 q 120 -119 142 -90 q 99 -167 99 -147 q 132 -199 99 -199 q 210 -150 171 -199 l 217 -150 l 239 -204 q 118 -269 190 -269 q 50 -247 75 -269 q 25 -185 25 -224 q 51 -110 25 -149 q 147 0 78 -71 l 221 0 z "},"ĩ":{"ha":336,"x_min":-26,"x_max":361,"o":"m 118 269 l 114 629 l 221 639 l 218 279 l 221 0 l 113 0 l 118 269 m 361 888 l 361 876 l 283 781 l 272 776 q 172 804 253 779 q 88 828 104 828 q 67 818 78 828 q 42 792 56 808 q 18 764 28 775 l 7 764 l -26 800 l -26 810 l 50 904 l 63 910 q 163 882 92 907 q 201 869 169 879 q 247 860 233 860 q 269 869 258 860 q 297 900 281 879 l 317 922 l 326 922 l 361 888 z "},"j":{"ha":368,"x_min":7,"x_max":253,"o":"m 253 636 l 243 279 l 250 26 q 206 -148 250 -82 q 57 -269 163 -214 l 15 -219 l 15 -207 q 117 -114 89 -164 q 146 21 146 -64 l 149 269 l 143 561 l 15 561 l 7 571 l 14 635 l 144 635 l 249 639 l 253 636 m 178 921 q 222 904 206 921 q 239 858 239 888 q 222 810 239 828 q 174 792 204 792 q 128 808 144 792 q 113 856 113 825 q 130 903 113 885 q 178 921 147 921 z "},"ȷ":{"ha":368,"x_min":7,"x_max":253,"o":"m 253 636 l 243 279 l 250 26 q 206 -148 250 -82 q 57 -269 163 -214 l 15 -219 l 15 -207 q 117 -114 89 -164 q 146 21 146 -64 l 149 269 l 143 561 l 15 561 l 7 571 l 14 635 l 144 635 l 249 639 l 253 636 z "},"ĵ":{"ha":368,"x_min":-10,"x_max":361,"o":"m 253 636 l 243 279 l 250 26 q 206 -148 250 -82 q 57 -269 163 -214 l 15 -219 l 15 -207 q 117 -114 89 -164 q 146 21 146 -64 l 149 269 l 143 561 l 15 561 l 7 571 l 14 635 l 144 635 l 249 639 l 253 636 m -10 771 q 160 957 69 851 l 193 957 q 361 771 279 850 l 331 726 l 318 726 q 176 871 232 808 q 35 726 124 813 l 21 726 l -10 771 z "},"k":{"ha":633,"x_min":117,"x_max":622,"o":"m 219 279 l 226 0 l 117 0 l 125 271 l 118 965 l 228 975 l 219 279 m 356 344 q 622 19 451 215 l 622 7 q 565 -6 596 -1 q 524 -12 533 -11 l 510 -7 q 246 335 353 179 l 246 344 l 444 579 l 481 636 l 606 636 l 356 344 z "},"ķ":{"ha":633,"x_min":117,"x_max":622,"o":"m 219 279 l 226 0 l 117 0 l 125 271 l 118 965 l 228 975 l 219 279 m 356 344 q 622 19 451 215 l 622 7 q 565 -6 596 -1 q 524 -12 533 -11 l 510 -7 q 246 335 353 179 l 246 344 l 444 579 l 481 636 l 606 636 l 356 344 m 375 -78 q 431 -164 431 -112 q 308 -337 431 -249 l 274 -306 l 274 -296 q 344 -182 344 -240 q 304 -122 344 -147 l 304 -111 q 375 -78 339 -87 z "},"ĸ":{"ha":629,"x_min":111,"x_max":618,"o":"m 115 269 l 113 629 l 219 639 l 217 279 l 218 0 l 111 0 l 115 269 m 349 344 q 618 19 471 185 l 618 7 q 560 -6 592 -1 q 519 -12 529 -11 l 508 -7 q 240 335 340 192 l 240 344 l 444 579 l 481 636 l 600 636 l 349 344 z "},"l":{"ha":343,"x_min":117,"x_max":228,"o":"m 219 279 l 226 0 l 117 0 l 125 271 l 118 965 l 228 975 l 219 279 z "},"ĺ":{"ha":343,"x_min":46,"x_max":353,"o":"m 219 279 l 226 0 l 117 0 l 125 271 l 118 965 l 228 975 l 219 279 m 325 1251 l 353 1186 l 350 1175 q 78 1056 218 1114 l 65 1061 l 46 1111 q 311 1254 192 1183 l 325 1251 z "},"ľ":{"ha":406,"x_min":117,"x_max":415,"o":"m 219 279 l 226 0 l 117 0 l 125 271 l 118 965 l 228 975 l 219 279 m 415 892 l 385 653 l 332 644 l 322 653 l 329 896 l 408 901 l 415 892 z "},"ļ":{"ha":343,"x_min":94,"x_max":251,"o":"m 219 279 l 226 0 l 117 0 l 125 271 l 118 965 l 228 975 l 219 279 m 196 -78 q 251 -164 251 -112 q 129 -337 251 -249 l 94 -306 l 94 -296 q 165 -182 165 -240 q 125 -122 165 -147 l 125 -111 q 196 -78 160 -87 z "},"ŀ":{"ha":343,"x_min":117,"x_max":401,"o":"m 219 279 l 226 0 l 117 0 l 125 271 l 118 965 l 228 975 l 219 279 m 340 453 q 385 436 369 453 q 401 392 401 419 q 384 342 401 360 q 336 324 367 324 q 291 340 307 324 q 275 388 275 357 q 292 435 275 417 q 340 453 310 453 z "},"ḷ":{"ha":343,"x_min":107,"x_max":233,"o":"m 219 279 l 226 0 l 117 0 l 125 271 l 118 965 l 228 975 l 219 279 m 172 -97 q 217 -114 200 -97 q 233 -160 233 -131 q 216 -208 233 -190 q 168 -226 199 -226 q 123 -210 139 -226 q 107 -162 107 -193 q 124 -115 107 -133 q 172 -97 142 -97 z "},"ǉ":{"ha":711,"x_min":117,"x_max":596,"o":"m 219 279 l 226 0 l 117 0 l 125 271 l 118 965 l 228 975 l 219 279 m 596 636 l 586 279 l 593 26 q 549 -148 593 -82 q 400 -269 506 -214 l 358 -219 l 358 -207 q 460 -114 432 -164 q 489 21 489 -64 l 492 269 l 486 561 l 358 561 l 350 571 l 357 635 l 488 635 l 592 639 l 596 636 m 521 921 q 565 904 549 921 q 582 858 582 888 q 565 810 582 828 q 517 792 547 792 q 472 808 488 792 q 456 856 456 825 q 473 903 456 885 q 521 921 490 921 z "},"ḻ":{"ha":343,"x_min":0,"x_max":343,"o":"m 219 279 l 226 0 l 117 0 l 125 271 l 118 965 l 228 975 l 219 279 m 343 -157 l 338 -222 l 8 -222 l 0 -212 l 6 -149 l 335 -149 l 343 -157 z "},"ł":{"ha":361,"x_min":11,"x_max":351,"o":"m 228 279 l 236 0 l 125 0 l 133 271 l 132 457 l 42 410 l 35 414 l 11 486 l 131 547 l 126 965 l 238 975 l 232 599 l 321 644 l 328 642 l 351 569 l 231 506 l 228 279 z "},"m":{"ha":1111,"x_min":111,"x_max":1011,"o":"m 907 432 q 881 521 908 489 q 799 553 853 553 q 614 457 710 553 l 611 276 l 617 0 l 504 0 l 513 432 q 486 521 514 489 q 404 553 458 553 q 215 454 317 553 l 215 279 l 221 0 l 111 0 l 118 269 l 113 629 l 217 639 l 217 546 l 225 546 q 401 644 311 622 q 529 617 479 644 q 600 539 579 590 l 608 539 q 796 644 696 618 q 956 596 901 644 q 1008 457 1010 547 l 1006 276 l 1011 0 l 900 0 l 907 432 z "},"ṃ":{"ha":1111,"x_min":111,"x_max":1011,"o":"m 907 432 q 881 521 908 489 q 799 553 853 553 q 614 457 710 553 l 611 276 l 617 0 l 504 0 l 513 432 q 486 521 514 489 q 404 553 458 553 q 215 454 317 553 l 215 279 l 221 0 l 111 0 l 118 269 l 113 629 l 217 639 l 217 546 l 225 546 q 401 644 311 622 q 529 617 479 644 q 600 539 579 590 l 608 539 q 796 644 696 618 q 956 596 901 644 q 1008 457 1010 547 l 1006 276 l 1011 0 l 900 0 l 907 432 m 556 -97 q 600 -114 583 -97 q 617 -160 617 -131 q 599 -208 617 -190 q 551 -226 582 -226 q 506 -210 522 -226 q 490 -162 490 -193 q 508 -115 490 -133 q 556 -97 525 -97 z "},"n":{"ha":717,"x_min":111,"x_max":617,"o":"m 513 432 q 486 521 514 489 q 404 553 458 553 q 215 454 317 553 l 215 279 l 221 0 l 111 0 l 118 269 l 113 629 l 217 639 l 217 546 l 225 546 q 401 644 311 622 q 560 596 506 644 q 614 457 615 547 l 611 276 l 617 0 l 506 0 l 513 432 z "},"ń":{"ha":717,"x_min":111,"x_max":617,"o":"m 513 432 q 486 521 514 489 q 404 553 458 553 q 215 454 317 553 l 215 279 l 221 0 l 111 0 l 118 269 l 113 629 l 217 639 l 217 546 l 225 546 q 401 644 311 622 q 560 596 506 644 q 614 457 615 547 l 611 276 l 617 0 l 506 0 l 513 432 m 517 967 l 558 908 l 556 897 q 319 721 418 790 l 307 722 l 276 767 q 504 968 413 878 l 517 967 z "},"ň":{"ha":717,"x_min":111,"x_max":617,"o":"m 513 432 q 486 521 514 489 q 404 553 458 553 q 215 454 317 553 l 215 279 l 221 0 l 111 0 l 118 269 l 113 629 l 217 639 l 217 546 l 225 546 q 401 644 311 622 q 560 596 506 644 q 614 457 615 547 l 611 276 l 617 0 l 506 0 l 513 432 m 565 911 q 396 725 486 831 l 363 725 q 194 911 276 832 l 225 956 l 238 956 q 379 811 324 874 q 521 956 432 869 l 535 956 l 565 911 z "},"ņ":{"ha":717,"x_min":111,"x_max":617,"o":"m 513 432 q 486 521 514 489 q 404 553 458 553 q 215 454 317 553 l 215 279 l 221 0 l 111 0 l 118 269 l 113 629 l 217 639 l 217 546 l 225 546 q 401 644 311 622 q 560 596 506 644 q 614 457 615 547 l 611 276 l 617 0 l 506 0 l 513 432 m 386 -78 q 442 -164 442 -112 q 319 -337 442 -249 l 285 -306 l 285 -296 q 356 -182 356 -240 q 315 -122 356 -147 l 315 -111 q 386 -78 350 -87 z "},"ṅ":{"ha":717,"x_min":111,"x_max":617,"o":"m 513 432 q 486 521 514 489 q 404 553 458 553 q 215 454 317 553 l 215 279 l 221 0 l 111 0 l 118 269 l 113 629 l 217 639 l 217 546 l 225 546 q 401 644 311 622 q 560 596 506 644 q 614 457 615 547 l 611 276 l 617 0 l 506 0 l 513 432 m 382 921 q 426 904 410 921 q 443 858 443 888 q 426 810 443 828 q 378 792 408 792 q 333 808 349 792 q 317 856 317 825 q 334 903 317 885 q 382 921 351 921 z "},"ṇ":{"ha":717,"x_min":111,"x_max":617,"o":"m 513 432 q 486 521 514 489 q 404 553 458 553 q 215 454 317 553 l 215 279 l 221 0 l 111 0 l 118 269 l 113 629 l 217 639 l 217 546 l 225 546 q 401 644 311 622 q 560 596 506 644 q 614 457 615 547 l 611 276 l 617 0 l 506 0 l 513 432 m 363 -97 q 407 -114 390 -97 q 424 -160 424 -131 q 406 -208 424 -190 q 358 -226 389 -226 q 313 -210 329 -226 q 297 -162 297 -193 q 315 -115 297 -133 q 363 -97 332 -97 z "},"ŋ":{"ha":733,"x_min":111,"x_max":618,"o":"m 618 26 q 574 -148 618 -82 q 425 -269 531 -214 l 383 -219 l 383 -207 q 485 -114 457 -164 q 514 21 514 -64 l 513 432 q 485 521 513 489 q 404 553 458 553 q 215 454 317 553 l 215 279 l 221 0 l 111 0 l 118 269 l 113 629 l 217 639 l 217 546 l 225 546 q 401 644 311 622 q 560 596 506 644 q 614 457 615 547 l 611 278 l 618 26 z "},"ǌ":{"ha":1085,"x_min":111,"x_max":969,"o":"m 513 432 q 486 521 514 489 q 404 553 458 553 q 215 454 317 553 l 215 279 l 221 0 l 111 0 l 118 269 l 113 629 l 217 639 l 217 546 l 225 546 q 401 644 311 622 q 560 596 506 644 q 614 457 615 547 l 611 276 l 617 0 l 506 0 l 513 432 m 969 636 l 960 279 l 967 26 q 923 -148 967 -82 q 774 -269 879 -214 l 732 -219 l 732 -207 q 834 -114 806 -164 q 863 21 863 -64 l 865 269 l 860 561 l 732 561 l 724 571 l 731 635 l 861 635 l 965 639 l 969 636 m 894 921 q 939 904 922 921 q 956 858 956 888 q 938 810 956 828 q 890 792 921 792 q 845 808 861 792 q 829 856 829 825 q 847 903 829 885 q 894 921 864 921 z "},"ṉ":{"ha":717,"x_min":111,"x_max":617,"o":"m 513 432 q 486 521 514 489 q 404 553 458 553 q 215 454 317 553 l 215 279 l 221 0 l 111 0 l 118 269 l 113 629 l 217 639 l 217 546 l 225 546 q 401 644 311 622 q 560 596 506 644 q 614 457 615 547 l 611 276 l 617 0 l 506 0 l 513 432 m 533 -157 l 528 -222 l 199 -222 l 190 -212 l 196 -149 l 525 -149 l 533 -157 z "},"ñ":{"ha":717,"x_min":111,"x_max":617,"o":"m 513 432 q 486 521 514 489 q 404 553 458 553 q 215 454 317 553 l 215 279 l 221 0 l 111 0 l 118 269 l 113 629 l 217 639 l 217 546 l 225 546 q 401 644 311 622 q 560 596 506 644 q 614 457 615 547 l 611 276 l 617 0 l 506 0 l 513 432 m 597 892 l 597 881 l 513 785 l 499 781 q 382 808 468 783 q 283 832 303 832 q 263 823 274 832 q 228 790 251 814 l 206 767 l 193 767 l 160 803 l 160 813 l 244 908 l 258 913 q 374 885 292 910 q 421 872 383 882 q 474 863 458 863 q 497 872 485 863 q 529 903 510 882 l 553 926 l 564 926 l 597 892 z "},"o":{"ha":682,"x_min":58,"x_max":621,"o":"m 349 647 q 549 563 478 647 q 621 326 621 479 q 546 77 621 165 q 332 -11 471 -11 q 130 73 201 -11 q 58 310 58 157 q 134 559 58 471 q 349 647 210 647 m 342 569 q 208 510 254 569 q 163 335 163 450 q 208 135 163 201 q 339 68 253 68 q 472 126 426 68 q 518 301 518 185 q 473 501 518 433 q 342 569 428 569 z "},"ó":{"ha":682,"x_min":58,"x_max":621,"o":"m 349 647 q 549 563 478 647 q 621 326 621 479 q 546 77 621 165 q 332 -11 471 -11 q 130 73 201 -11 q 58 310 58 157 q 134 559 58 471 q 349 647 210 647 m 342 569 q 208 510 254 569 q 163 335 163 450 q 208 135 163 201 q 339 68 253 68 q 472 126 426 68 q 518 301 518 185 q 473 501 518 433 q 342 569 428 569 m 479 967 l 521 908 l 518 897 q 282 721 381 790 l 269 722 l 239 767 q 467 968 375 878 l 479 967 z "},"ŏ":{"ha":682,"x_min":58,"x_max":621,"o":"m 349 647 q 549 563 478 647 q 621 326 621 479 q 546 77 621 165 q 332 -11 471 -11 q 130 73 201 -11 q 58 310 58 157 q 134 559 58 471 q 349 647 210 647 m 342 569 q 208 510 254 569 q 163 335 163 450 q 208 135 163 201 q 339 68 253 68 q 472 126 426 68 q 518 301 518 185 q 473 501 518 433 q 342 569 428 569 m 519 892 q 340 732 482 732 q 226 774 268 732 q 168 892 183 815 l 199 932 l 215 932 q 343 811 242 811 q 471 932 444 811 l 488 932 l 519 892 z "},"ǒ":{"ha":682,"x_min":58,"x_max":621,"o":"m 349 647 q 549 563 478 647 q 621 326 621 479 q 546 77 621 165 q 332 -11 471 -11 q 130 73 201 -11 q 58 310 58 157 q 134 559 58 471 q 349 647 210 647 m 342 569 q 208 510 254 569 q 163 335 163 450 q 208 135 163 201 q 339 68 253 68 q 472 126 426 68 q 518 301 518 185 q 473 501 518 433 q 342 569 428 569 m 528 911 q 358 725 449 831 l 325 725 q 157 911 239 832 l 188 956 l 200 956 q 342 811 286 874 q 483 956 394 869 l 497 956 l 528 911 z "},"ô":{"ha":682,"x_min":58,"x_max":621,"o":"m 349 647 q 549 563 478 647 q 621 326 621 479 q 546 77 621 165 q 332 -11 471 -11 q 130 73 201 -11 q 58 310 58 157 q 134 559 58 471 q 349 647 210 647 m 342 569 q 208 510 254 569 q 163 335 163 450 q 208 135 163 201 q 339 68 253 68 q 472 126 426 68 q 518 301 518 185 q 473 501 518 433 q 342 569 428 569 m 157 771 q 326 957 236 851 l 360 957 q 528 771 446 850 l 497 726 l 485 726 q 343 871 399 808 q 201 726 290 813 l 188 726 l 157 771 z "},"ố":{"ha":682,"x_min":58,"x_max":621,"o":"m 349 647 q 549 563 478 647 q 621 326 621 479 q 546 77 621 165 q 332 -11 471 -11 q 130 73 201 -11 q 58 310 58 157 q 134 559 58 471 q 349 647 210 647 m 342 569 q 208 510 254 569 q 163 335 163 450 q 208 135 163 201 q 339 68 253 68 q 472 126 426 68 q 518 301 518 185 q 473 501 518 433 q 342 569 428 569 m 568 1029 l 571 1018 l 467 894 l 456 894 l 415 925 l 504 1056 l 515 1058 l 568 1029 m 164 785 q 325 911 265 856 l 356 911 q 518 785 428 849 l 497 738 l 483 738 q 342 831 393 794 q 199 738 282 789 l 186 738 l 164 785 z "},"ộ":{"ha":682,"x_min":58,"x_max":621,"o":"m 349 647 q 549 563 478 647 q 621 326 621 479 q 546 77 621 165 q 332 -11 471 -11 q 130 73 201 -11 q 58 310 58 157 q 134 559 58 471 q 349 647 210 647 m 342 569 q 208 510 254 569 q 163 335 163 450 q 208 135 163 201 q 339 68 253 68 q 472 126 426 68 q 518 301 518 185 q 473 501 518 433 q 342 569 428 569 m 343 -97 q 388 -114 371 -97 q 404 -160 404 -131 q 387 -208 404 -190 q 339 -226 369 -226 q 294 -210 310 -226 q 278 -162 278 -193 q 295 -115 278 -133 q 343 -97 313 -97 m 157 771 q 326 957 236 851 l 360 957 q 528 771 446 850 l 497 726 l 485 726 q 343 871 399 808 q 201 726 290 813 l 188 726 l 157 771 z "},"ồ":{"ha":682,"x_min":58,"x_max":621,"o":"m 349 647 q 549 563 478 647 q 621 326 621 479 q 546 77 621 165 q 332 -11 471 -11 q 130 73 201 -11 q 58 310 58 157 q 134 559 58 471 q 349 647 210 647 m 342 569 q 208 510 254 569 q 163 335 163 450 q 208 135 163 201 q 339 68 253 68 q 472 126 426 68 q 518 301 518 185 q 473 501 518 433 q 342 569 428 569 m 378 1018 l 379 1029 l 432 1058 l 443 1056 l 533 925 l 493 894 l 482 894 l 378 1018 m 164 785 q 325 911 265 856 l 356 911 q 518 785 428 849 l 497 738 l 483 738 q 342 831 393 794 q 199 738 282 789 l 186 738 l 164 785 z "},"ổ":{"ha":682,"x_min":58,"x_max":621,"o":"m 349 647 q 549 563 478 647 q 621 326 621 479 q 546 77 621 165 q 332 -11 471 -11 q 130 73 201 -11 q 58 310 58 157 q 134 559 58 471 q 349 647 210 647 m 342 569 q 208 510 254 569 q 163 335 163 450 q 208 135 163 201 q 339 68 253 68 q 472 126 426 68 q 518 301 518 185 q 473 501 518 433 q 342 569 428 569 m 164 813 q 325 939 265 883 l 356 939 q 518 813 428 876 l 497 765 l 483 765 q 342 857 396 819 q 199 765 306 832 l 186 765 l 164 813 m 451 976 q 503 1022 484 999 q 521 1065 521 1046 q 511 1085 521 1078 q 484 1092 500 1092 q 445 1085 466 1092 q 404 1061 424 1077 l 383 1096 q 439 1137 409 1123 q 500 1152 470 1152 q 564 1130 539 1152 q 589 1075 589 1108 q 573 1028 589 1051 q 519 975 557 1005 l 545 929 l 498 902 l 451 976 z "},"ỗ":{"ha":682,"x_min":58,"x_max":621,"o":"m 349 647 q 549 563 478 647 q 621 326 621 479 q 546 77 621 165 q 332 -11 471 -11 q 130 73 201 -11 q 58 310 58 157 q 134 559 58 471 q 349 647 210 647 m 342 569 q 208 510 254 569 q 163 335 163 450 q 208 135 163 201 q 339 68 253 68 q 472 126 426 68 q 518 301 518 185 q 473 501 518 433 q 342 569 428 569 m 165 813 q 326 939 267 883 l 357 939 q 519 813 429 876 l 499 765 l 485 765 q 343 857 397 819 q 200 765 307 832 l 188 765 l 165 813 m 560 1092 l 560 1081 l 474 985 l 461 981 q 346 1010 435 983 q 246 1033 267 1033 q 225 1024 236 1033 q 190 992 214 1015 l 168 968 l 156 968 l 124 1004 l 124 1014 l 210 1110 l 222 1114 q 335 1086 253 1111 q 438 1063 417 1063 q 458 1071 447 1063 q 490 1101 468 1079 l 515 1126 l 526 1126 l 560 1092 z "},"ȍ":{"ha":682,"x_min":58,"x_max":621,"o":"m 349 647 q 549 563 478 647 q 621 326 621 479 q 546 77 621 165 q 332 -11 471 -11 q 130 73 201 -11 q 58 310 58 157 q 134 559 58 471 q 349 647 210 647 m 342 569 q 208 510 254 569 q 163 335 163 450 q 208 135 163 201 q 339 68 253 68 q 472 126 426 68 q 518 301 518 185 q 473 501 518 433 q 342 569 428 569 m 344 754 q 158 968 268 836 l 147 969 l 96 932 l 96 921 q 297 722 172 839 l 307 721 l 344 754 m 542 754 q 354 968 465 835 l 343 969 l 292 932 l 292 921 q 492 722 379 829 l 504 721 l 542 754 z "},"ö":{"ha":682,"x_min":58,"x_max":621,"o":"m 349 647 q 549 563 478 647 q 621 326 621 479 q 546 77 621 165 q 332 -11 471 -11 q 130 73 201 -11 q 58 310 58 157 q 134 559 58 471 q 349 647 210 647 m 342 569 q 208 510 254 569 q 163 335 163 450 q 208 135 163 201 q 339 68 253 68 q 472 126 426 68 q 518 301 518 185 q 473 501 518 433 q 342 569 428 569 m 236 904 q 278 889 263 904 q 294 846 294 874 q 278 799 294 817 q 233 781 261 781 q 189 797 204 781 q 174 842 174 813 q 190 887 174 869 q 236 904 207 904 m 454 904 q 497 889 482 904 q 513 846 513 874 q 496 799 513 817 q 451 781 479 781 q 408 797 424 781 q 392 842 392 814 q 408 887 392 869 q 454 904 425 904 z "},"ȫ":{"ha":682,"x_min":58,"x_max":621,"o":"m 349 647 q 549 563 478 647 q 621 326 621 479 q 546 77 621 165 q 332 -11 471 -11 q 130 73 201 -11 q 58 310 58 157 q 134 559 58 471 q 349 647 210 647 m 342 569 q 208 510 254 569 q 163 335 163 450 q 208 135 163 201 q 339 68 253 68 q 472 126 426 68 q 518 301 518 185 q 473 501 518 433 q 342 569 428 569 m 513 1031 l 506 965 l 182 965 l 174 974 l 179 1039 l 504 1039 l 513 1031 m 233 874 q 274 858 258 874 q 289 817 289 843 q 273 773 289 789 q 231 757 257 757 q 188 772 203 757 q 174 814 174 788 q 190 858 174 842 q 233 874 206 874 m 451 874 q 492 858 478 874 q 507 817 507 843 q 491 773 507 789 q 449 757 475 757 q 407 772 422 757 q 392 814 392 788 q 408 858 392 842 q 451 874 424 874 z "},"ȱ":{"ha":682,"x_min":58,"x_max":621,"o":"m 349 647 q 549 563 478 647 q 621 326 621 479 q 546 77 621 165 q 332 -11 471 -11 q 130 73 201 -11 q 58 310 58 157 q 134 559 58 471 q 349 647 210 647 m 342 569 q 208 510 254 569 q 163 335 163 450 q 208 135 163 201 q 339 68 253 68 q 472 126 426 68 q 518 301 518 185 q 473 501 518 433 q 342 569 428 569 m 344 883 q 389 867 372 883 q 406 821 406 850 q 388 772 406 790 q 340 754 371 754 q 295 771 311 754 q 279 818 279 788 q 297 865 279 847 q 344 883 314 883 m 499 1014 l 493 949 l 192 949 l 185 957 l 190 1021 l 492 1021 l 499 1014 z "},"ọ":{"ha":682,"x_min":58,"x_max":621,"o":"m 349 647 q 549 563 478 647 q 621 326 621 479 q 546 77 621 165 q 332 -11 471 -11 q 130 73 201 -11 q 58 310 58 157 q 134 559 58 471 q 349 647 210 647 m 342 569 q 208 510 254 569 q 163 335 163 450 q 208 135 163 201 q 339 68 253 68 q 472 126 426 68 q 518 301 518 185 q 473 501 518 433 q 342 569 428 569 m 343 -97 q 388 -114 371 -97 q 404 -160 404 -131 q 387 -208 404 -190 q 339 -226 369 -226 q 294 -210 310 -226 q 278 -162 278 -193 q 295 -115 278 -133 q 343 -97 313 -97 z "},"ò":{"ha":682,"x_min":58,"x_max":621,"o":"m 349 647 q 549 563 478 647 q 621 326 621 479 q 546 77 621 165 q 332 -11 471 -11 q 130 73 201 -11 q 58 310 58 157 q 134 559 58 471 q 349 647 210 647 m 342 569 q 208 510 254 569 q 163 335 163 450 q 208 135 163 201 q 339 68 253 68 q 472 126 426 68 q 518 301 518 185 q 473 501 518 433 q 342 569 428 569 m 254 968 q 482 767 357 869 l 451 722 l 439 721 q 203 897 340 790 l 200 908 l 242 967 l 254 968 z "},"ỏ":{"ha":682,"x_min":58,"x_max":621,"o":"m 349 647 q 549 563 478 647 q 621 326 621 479 q 546 77 621 165 q 332 -11 471 -11 q 130 73 201 -11 q 58 310 58 157 q 134 559 58 471 q 349 647 210 647 m 342 569 q 208 510 254 569 q 163 335 163 450 q 208 135 163 201 q 339 68 253 68 q 472 126 426 68 q 518 301 518 185 q 473 501 518 433 q 342 569 428 569 m 301 786 q 356 835 336 810 q 375 879 375 860 q 364 901 375 893 q 336 908 353 908 q 294 900 317 908 q 251 875 272 892 l 229 913 q 289 956 257 940 q 353 971 321 971 q 419 948 393 971 q 446 890 446 925 q 429 841 446 865 q 372 785 413 817 l 400 736 l 350 708 l 301 786 z "},"ơ":{"ha":725,"x_min":58,"x_max":689,"o":"m 689 713 q 647 612 689 653 q 542 568 604 571 q 621 325 621 482 q 546 77 621 165 q 333 -11 471 -11 q 130 72 201 -11 q 58 311 58 156 q 134 559 58 471 q 347 647 210 647 q 447 632 386 647 q 517 621 494 621 q 578 641 556 621 q 601 697 601 661 q 556 788 601 744 l 560 799 q 614 824 589 824 q 666 788 643 824 q 689 713 689 753 m 340 67 q 473 128 428 67 q 518 311 518 190 q 339 569 518 569 q 206 507 253 569 q 160 325 160 444 q 340 67 160 67 z "},"ớ":{"ha":725,"x_min":58,"x_max":689,"o":"m 689 713 q 647 612 689 653 q 542 568 604 571 q 621 325 621 482 q 546 77 621 165 q 333 -11 471 -11 q 130 72 201 -11 q 58 311 58 156 q 134 559 58 471 q 347 647 210 647 q 447 632 386 647 q 517 621 494 621 q 578 641 556 621 q 601 697 601 661 q 556 788 601 744 l 560 799 q 614 824 589 824 q 666 788 643 824 q 689 713 689 753 m 340 67 q 473 128 428 67 q 518 311 518 190 q 339 569 518 569 q 206 507 253 569 q 160 325 160 444 q 340 67 160 67 m 478 967 l 519 908 l 517 897 q 281 721 379 790 l 268 722 l 238 767 q 465 968 374 878 l 478 967 z "},"ợ":{"ha":683,"x_min":58,"x_max":689,"o":"m 689 713 q 647 612 689 653 q 542 568 604 571 q 621 325 621 482 q 546 77 621 165 q 333 -11 471 -11 q 130 72 201 -11 q 58 311 58 156 q 134 559 58 471 q 347 647 210 647 q 447 632 386 647 q 517 621 494 621 q 578 641 556 621 q 601 697 601 661 q 556 788 601 744 l 560 799 q 614 824 589 824 q 666 788 643 824 q 689 713 689 753 m 340 67 q 473 128 428 67 q 518 311 518 190 q 339 569 518 569 q 206 507 253 569 q 160 325 160 444 q 340 67 160 67 m 353 -97 q 397 -114 381 -97 q 414 -160 414 -131 q 397 -208 414 -190 q 349 -226 379 -226 q 303 -210 319 -226 q 288 -162 288 -193 q 305 -115 288 -133 q 353 -97 322 -97 z "},"ờ":{"ha":683,"x_min":58,"x_max":717,"o":"m 210 968 q 439 767 317 865 l 408 722 l 394 721 q 160 897 310 781 l 157 908 l 197 967 l 210 968 m 642 810 q 692 777 668 810 q 717 699 717 744 q 671 588 717 631 q 557 546 625 546 q 621 325 621 469 q 546 77 621 165 q 335 -11 471 -11 q 130 73 201 -11 q 58 311 58 157 q 134 559 58 471 q 349 647 210 647 q 406 642 382 647 q 464 625 431 636 q 501 613 482 618 q 539 608 521 608 q 605 628 581 608 q 629 683 629 649 q 583 774 629 731 l 588 786 q 642 810 618 810 m 342 569 q 208 506 254 569 q 163 321 163 443 q 339 68 163 68 q 472 131 426 68 q 518 315 518 193 q 473 505 518 440 q 342 569 428 569 z "}}}
